999
dxfrw 0.5.11
0
SECTION
2
HEADER
9
$ACADVER
1
AC1021
9
$HANDSEED
5
20000
9
$DWGCODEPAGE
3
ANSI_1252
9
$INSBASE
10
0
20
0
30
0
9
$EXTMIN
10
28.8112804
20
-175.000000001
30
0
9
$EXTMAX
10
401.1887196
20
-49.9999999982
30
0
9
$LIMMIN
10
0
20
0
9
$LIMMAX
10
420
20
297
9
$ORTHOMODE
70
0
9
$LTSCALE
40
1
9
$TEXTSTYLE
7
STANDARD
9
$CLAYER
8
BLACK
9
$DIMASZ
40
2.5
9
$DIMLFAC
40
1
9
$DIMSCALE
40
1
9
$DIMEXO
40
0.625
9
$DIMEXE
40
1.25
9
$DIMTXT
40
2.5
9
$DIMTSZ
40
0
9
$DIMAUNIT
70
0
9
$DIMADEC
70
2
9
$DIMLUNIT
70
2
9
$DIMSTYLE
2
STANDARD
9
$DIMGAP
40
0.625
9
$DIMTIH
70
0
9
$LUNITS
70
2
9
$LUPREC
70
4
9
$AUNITS
70
0
9
$AUPREC
70
2
9
$SPLINESEGS
70
8
9
$GRIDMODE
70
1
9
$SNAPSTYLE
70
0
9
$GRIDUNIT
10
0
20
0
9
$PINSBASE
10
0
20
0
30
0
9
$PLIMMIN
10
0
20
0
9
$PLIMMAX
10
297
20
210
9
$INSUNITS
70
4
9
$PSVPSCALE
40
1
0
ENDSEC
0
SECTION
2
CLASSES
0
ENDSEC
0
SECTION
2
TABLES
0
TABLE
2
VPORT
5
8
330
0
100
AcDbSymbolTable
70
1
0
VPORT
5
31
330
2
100
AcDbSymbolTableRecord
100
AcDbViewportTableRecord
2
*ACTIVE
70
0
10
0
20
0
11
1
21
1
12
234.062500001
22
7.18750000003
13
0
23
0
14
10
24
10
15
10
25
10
16
0
26
0
36
1
17
0
27
0
37
0
40
265.000000001
41
1.85495283019
42
50
43
0
44
0
50
0
51
0
71
0
72
100
73
1
74
3
75
0
76
1
77
0
78
0
281
0
65
1
110
0
120
0
130
0
111
1
121
0
131
0
112
0
122
1
132
0
79
0
146
0
348
10020
60
7
61
5
292
1
282
1
141
0
142
0
63
250
421
3358443
0
ENDTAB
0
TABLE
2
LTYPE
5
5
330
0
100
AcDbSymbolTable
70
4
0
LTYPE
5
14
330
5
100
AcDbSymbolTableRecord
100
AcDbLinetypeTableRecord
2
ByBlock
70
0
3

72
65
73
0
40
0
0
LTYPE
5
15
330
5
100
AcDbSymbolTableRecord
100
AcDbLinetypeTableRecord
2
ByLayer
70
0
3

72
65
73
0
40
0
0
LTYPE
5
16
330
5
100
AcDbSymbolTableRecord
100
AcDbLinetypeTableRecord
2
Continuous
70
0
3
Solid line
72
65
73
0
40
0
0
LTYPE
5
32
330
5
100
AcDbSymbolTableRecord
100
AcDbLinetypeTableRecord
2
DOT
70
0
3
Dot . . . . . . . . . . . . . . . . . . . . . .
72
65
73
2
40
6.35
49
0
74
0
49
-6.35
74
0
0
LTYPE
5
33
330
5
100
AcDbSymbolTableRecord
100
AcDbLinetypeTableRecord
2
DOT2
70
0
3
Dot (.5x) .....................................
72
65
73
2
40
3.175
49
0
74
0
49
-3.175
74
0
0
LTYPE
5
34
330
5
100
AcDbSymbolTableRecord
100
AcDbLinetypeTableRecord
2
DOTX2
70
0
3
Dot (2x) .  .  .  .  .  .  .  .  .  .  .  .  .
72
65
73
2
40
12.7
49
0
74
0
49
-12.7
74
0
0
LTYPE
5
35
330
5
100
AcDbSymbolTableRecord
100
AcDbLinetypeTableRecord
2
DASHED
70
0
3
Dot . . . . . . . . . . . . . . . . . . . . . .
72
65
73
2
40
19.05
49
12.7
74
0
49
-6.35
74
0
0
LTYPE
5
36
330
5
100
AcDbSymbolTableRecord
100
AcDbLinetypeTableRecord
2
DASHED2
70
0
3
Dashed (.5x) _ _ _ _ _ _ _ _ _ _ _ _ _ _ _ _ _
72
65
73
2
40
9.525
49
6.35
74
0
49
-3.175
74
0
0
LTYPE
5
37
330
5
100
AcDbSymbolTableRecord
100
AcDbLinetypeTableRecord
2
DASHEDX2
70
0
3
Dashed (2x) ____  ____  ____  ____  ____  ___
72
65
73
2
40
38.1
49
25.4
74
0
49
-12.7
74
0
0
LTYPE
5
38
330
5
100
AcDbSymbolTableRecord
100
AcDbLinetypeTableRecord
2
DASHDOT
70
0
3
Dash dot __ . __ . __ . __ . __ . __ . __ . __
72
65
73
4
40
25.4
49
12.7
74
0
49
-6.35
74
0
49
0
74
0
49
-6.35
74
0
0
LTYPE
5
39
330
5
100
AcDbSymbolTableRecord
100
AcDbLinetypeTableRecord
2
DASHDOT2
70
0
3
Dash dot (.5x) _._._._._._._._._._._._._._._.
72
65
73
4
40
12.7
49
6.35
74
0
49
-3.175
74
0
49
0
74
0
49
-3.175
74
0
0
LTYPE
5
3A
330
5
100
AcDbSymbolTableRecord
100
AcDbLinetypeTableRecord
2
DASHDOTX2
70
0
3
Dash dot (2x) ____  .  ____  .  ____  .  ___
72
65
73
4
40
50.8
49
25.4
74
0
49
-12.7
74
0
49
0
74
0
49
-12.7
74
0
0
LTYPE
5
3B
330
5
100
AcDbSymbolTableRecord
100
AcDbLinetypeTableRecord
2
DIVIDE
70
0
3
Divide ____ . . ____ . . ____ . . ____ . . ____
72
65
73
6
40
31.75
49
12.7
74
0
49
-6.35
74
0
49
0
74
0
49
-6.35
74
0
49
0
74
0
49
-6.35
74
0
0
LTYPE
5
3C
330
5
100
AcDbSymbolTableRecord
100
AcDbLinetypeTableRecord
2
DIVIDE2
70
0
3
Divide (.5x) __..__..__..__..__..__..__..__.._
72
65
73
6
40
15.875
49
6.35
74
0
49
-3.175
74
0
49
0
74
0
49
-3.175
74
0
49
0
74
0
49
-3.175
74
0
0
LTYPE
5
3D
330
5
100
AcDbSymbolTableRecord
100
AcDbLinetypeTableRecord
2
DIVIDEX2
70
0
3
Divide (2x) ________  .  .  ________  .  .  _
72
65
73
6
40
63.5
49
25.4
74
0
49
-12.7
74
0
49
0
74
0
49
-12.7
74
0
49
0
74
0
49
-12.7
74
0
0
LTYPE
5
3E
330
5
100
AcDbSymbolTableRecord
100
AcDbLinetypeTableRecord
2
BORDER
70
0
3
Border __ __ . __ __ . __ __ . __ __ . __ __ .
72
65
73
6
40
44.45
49
12.7
74
0
49
-6.35
74
0
49
12.7
74
0
49
-6.35
74
0
49
0
74
0
49
-6.35
74
0
0
LTYPE
5
3F
330
5
100
AcDbSymbolTableRecord
100
AcDbLinetypeTableRecord
2
BORDER2
70
0
3
Border (.5x) __.__.__.__.__.__.__.__.__.__.__.
72
65
73
6
40
22.225
49
6.35
74
0
49
-3.175
74
0
49
6.35
74
0
49
-3.175
74
0
49
0
74
0
49
-3.175
74
0
0
LTYPE
5
40
330
5
100
AcDbSymbolTableRecord
100
AcDbLinetypeTableRecord
2
BORDERX2
70
0
3
Border (2x) ____  ____  .  ____  ____  .  ___
72
65
73
6
40
88.9
49
25.4
74
0
49
-12.7
74
0
49
25.4
74
0
49
-12.7
74
0
49
0
74
0
49
-12.7
74
0
0
LTYPE
5
41
330
5
100
AcDbSymbolTableRecord
100
AcDbLinetypeTableRecord
2
CENTER
70
0
3
Center ____ _ ____ _ ____ _ ____ _ ____ _ ____
72
65
73
4
40
50.8
49
31.75
74
0
49
-6.35
74
0
49
6.35
74
0
49
-6.35
74
0
0
LTYPE
5
42
330
5
100
AcDbSymbolTableRecord
100
AcDbLinetypeTableRecord
2
CENTER2
70
0
3
Center (.5x) ___ _ ___ _ ___ _ ___ _ ___ _ ___
72
65
73
4
40
28.575
49
19.05
74
0
49
-3.175
74
0
49
3.175
74
0
49
-3.175
74
0
0
LTYPE
5
43
330
5
100
AcDbSymbolTableRecord
100
AcDbLinetypeTableRecord
2
CENTERX2
70
0
3
Center (2x) ________  __  ________  __  _____
72
65
73
4
40
101.6
49
63.5
74
0
49
-12.7
74
0
49
12.7
74
0
49
-12.7
74
0
0
ENDTAB
0
TABLE
2
LAYER
5
2
330
0
100
AcDbSymbolTable
70
1
0
LAYER
5
10
330
2
100
AcDbSymbolTableRecord
100
AcDbLayerTableRecord
2
0
70
0
62
7
6
CONTINUOUS
370
0
390
F
0
LAYER
5
44
330
2
100
AcDbSymbolTableRecord
100
AcDbLayerTableRecord
2
BLACK
70
0
62
250
6
CONTINUOUS
370
-1
390
F
0
LAYER
5
45
330
2
100
AcDbSymbolTableRecord
100
AcDbLayerTableRecord
2
BLUE
70
0
62
5
6
CONTINUOUS
370
-1
390
F
0
LAYER
5
46
330
2
100
AcDbSymbolTableRecord
100
AcDbLayerTableRecord
2
BROWN
70
0
62
54
6
CONTINUOUS
370
-1
390
F
0
LAYER
5
47
330
2
100
AcDbSymbolTableRecord
100
AcDbLayerTableRecord
2
CYAN
70
0
62
4
6
CONTINUOUS
370
-1
390
F
0
LAYER
5
48
330
2
100
AcDbSymbolTableRecord
100
AcDbLayerTableRecord
2
DARKBLUE
70
0
62
178
6
CONTINUOUS
370
-1
390
F
0
LAYER
5
49
330
2
100
AcDbSymbolTableRecord
100
AcDbLayerTableRecord
2
DARKBROWN
70
0
62
58
6
CONTINUOUS
370
-1
390
F
0
LAYER
5
4A
330
2
100
AcDbSymbolTableRecord
100
AcDbLayerTableRecord
2
DARKCYAN
70
0
62
138
6
CONTINUOUS
370
-1
390
F
0
LAYER
5
4B
330
2
100
AcDbSymbolTableRecord
100
AcDbLayerTableRecord
2
DARKDARKGRAY
70
0
62
251
6
CONTINUOUS
370
-1
390
F
0
LAYER
5
4C
330
2
100
AcDbSymbolTableRecord
100
AcDbLayerTableRecord
2
DARKGRAY
70
0
62
8
6
CONTINUOUS
370
-1
390
F
0
LAYER
5
4D
330
2
100
AcDbSymbolTableRecord
100
AcDbLayerTableRecord
2
DARKGREEN
70
0
62
98
6
CONTINUOUS
370
-1
390
F
0
LAYER
5
4E
330
2
100
AcDbSymbolTableRecord
100
AcDbLayerTableRecord
2
DARKMAGENTA
70
0
62
228
6
CONTINUOUS
370
-1
390
F
0
LAYER
5
4F
330
2
100
AcDbSymbolTableRecord
100
AcDbLayerTableRecord
2
DARKRED
70
0
62
18
6
CONTINUOUS
370
-1
390
F
0
LAYER
5
50
330
2
100
AcDbSymbolTableRecord
100
AcDbLayerTableRecord
2
GREEN
70
0
62
3
6
CONTINUOUS
370
-1
390
F
0
LAYER
5
51
330
2
100
AcDbSymbolTableRecord
100
AcDbLayerTableRecord
2
LIGHTBLUE
70
0
62
171
6
CONTINUOUS
370
-1
390
F
0
LAYER
5
52
330
2
100
AcDbSymbolTableRecord
100
AcDbLayerTableRecord
2
LIGHTCYAN
70
0
62
131
6
CONTINUOUS
370
-1
390
F
0
LAYER
5
53
330
2
100
AcDbSymbolTableRecord
100
AcDbLayerTableRecord
2
LIGHTGRAY
70
0
62
9
6
CONTINUOUS
370
-1
390
F
0
LAYER
5
54
330
2
100
AcDbSymbolTableRecord
100
AcDbLayerTableRecord
2
LIGHTGREEN
70
0
62
91
6
CONTINUOUS
370
-1
390
F
0
LAYER
5
55
330
2
100
AcDbSymbolTableRecord
100
AcDbLayerTableRecord
2
LIGHTMAGENTA
70
0
62
221
6
CONTINUOUS
370
-1
390
F
0
LAYER
5
56
330
2
100
AcDbSymbolTableRecord
100
AcDbLayerTableRecord
2
LIGHTRED
70
0
62
11
6
CONTINUOUS
370
-1
390
F
0
LAYER
5
57
330
2
100
AcDbSymbolTableRecord
100
AcDbLayerTableRecord
2
LIGHTYELLOW
70
0
62
51
6
CONTINUOUS
370
-1
390
F
0
LAYER
5
58
330
2
100
AcDbSymbolTableRecord
100
AcDbLayerTableRecord
2
MAGENTA
70
0
62
6
6
CONTINUOUS
370
-1
390
F
0
LAYER
5
59
330
2
100
AcDbSymbolTableRecord
100
AcDbLayerTableRecord
2
RED
70
0
62
1
6
CONTINUOUS
370
-1
390
F
0
LAYER
5
5A
330
2
100
AcDbSymbolTableRecord
100
AcDbLayerTableRecord
2
WHITE
70
0
62
7
6
CONTINUOUS
370
-1
390
F
0
LAYER
5
5B
330
2
100
AcDbSymbolTableRecord
100
AcDbLayerTableRecord
2
YELLOW
70
0
62
2
6
CONTINUOUS
370
-1
390
F
0
ENDTAB
0
TABLE
2
STYLE
5
3
330
0
100
AcDbSymbolTable
70
3
0
STYLE
5
5C
330
2
100
AcDbSymbolTableRecord
100
AcDbTextStyleTableRecord
2
Standard
70
0
40
0
41
1
50
0
71
0
42
1
3
txt
4

0
ENDTAB
0
TABLE
2
VIEW
5
6
330
0
100
AcDbSymbolTable
70
0
0
ENDTAB
0
TABLE
2
UCS
5
7
330
0
100
AcDbSymbolTable
70
0
0
ENDTAB
0
TABLE
2
APPID
5
9
330
0
100
AcDbSymbolTable
70
1
0
APPID
5
12
330
9
100
AcDbSymbolTableRecord
100
AcDbRegAppTableRecord
2
ACAD
70
0
0
ENDTAB
0
TABLE
2
DIMSTYLE
5
A
330
0
100
AcDbSymbolTable
70
1
100
AcDbDimStyleTable
71
1
0
DIMSTYLE
105
5D
330
A
100
AcDbSymbolTableRecord
100
AcDbDimStyleTableRecord
2
Standard
70
0
40
1
41
2.5
42
0.625
43
0.38
44
1.25
45
0
46
0
47
0
48
0
140
2.5
141
0.09
142
0
143
25.4
144
1
145
0
146
1
147
0.625
148
0
71
0
72
0
73
0
74
1
75
0
76
0
77
0
78
0
79
0
170
0
171
2
172
0
173
0
174
0
175
0
176
0
177
0
178
0
179
0
271
4
272
4
273
2
274
2
275
0
276
0
277
2
278
46
279
0
280
0
281
0
282
0
283
1
284
0
285
0
286
0
288
0
289
3
340
Standard
341

371
-2
372
-2
0
ENDTAB
0
TABLE
2
BLOCK_RECORD
5
1
330
0
100
AcDbSymbolTable
70
2
0
BLOCK_RECORD
5
1F
330
1
100
AcDbSymbolTableRecord
100
AcDbBlockTableRecord
2
*Model_Space
70
0
280
1
281
0
0
BLOCK_RECORD
5
1E
330
1
100
AcDbSymbolTableRecord
100
AcDbBlockTableRecord
2
*Paper_Space
70
0
280
1
281
0
0
ENDTAB
0
ENDSEC
0
SECTION
2
BLOCKS
0
BLOCK
5
20
330
1F
100
AcDbEntity
8
0
100
AcDbBlockBegin
2
*Model_Space
70
0
10
0
20
0
30
0
3
*Model_Space
1

0
ENDBLK
5
21
330
1F
100
AcDbEntity
8
0
100
AcDbBlockEnd
0
BLOCK
5
1C
330
1B
100
AcDbEntity
8
0
100
AcDbBlockBegin
2
*Paper_Space
70
0
10
0
20
0
30
0
3
*Paper_Space
1

0
ENDBLK
5
1D
330
1F
100
AcDbEntity
8
0
100
AcDbBlockEnd
0
ENDSEC
0
SECTION
2
ENTITIES
0
LINE
5
5E
100
AcDbEntity
8
BLACK
6
ByLayer
62
256
370
-1
100
AcDbLine
10
208.015
20
-108.015
11
221.985
21
-108.015
0
LINE
5
5F
100
AcDbEntity
8
BLACK
6
ByLayer
62
256
370
-1
100
AcDbLine
10
221.985
20
-108.015
11
221.985
21
-108.995
0
LINE
5
60
100
AcDbEntity
8
BLACK
6
ByLayer
62
256
370
-1
100
AcDbLine
10
221.985
20
-108.995
11
222.798
21
-108.995
0
LINE
5
61
100
AcDbEntity
8
BLACK
6
ByLayer
62
256
370
-1
100
AcDbLine
10
222.798
20
-108.995
11
222.798
21
-112.496
0
LINE
5
62
100
AcDbEntity
8
BLACK
6
ByLayer
62
256
370
-1
100
AcDbLine
10
222.798
20
-112.496
11
221.985
21
-112.496
0
LINE
5
63
100
AcDbEntity
8
BLACK
6
ByLayer
62
256
370
-1
100
AcDbLine
10
221.985
20
-112.496
11
221.985
21
-117.504
0
LINE
5
64
100
AcDbEntity
8
BLACK
6
ByLayer
62
256
370
-1
100
AcDbLine
10
221.985
20
-117.504
11
222.798
21
-117.504
0
LINE
5
65
100
AcDbEntity
8
BLACK
6
ByLayer
62
256
370
-1
100
AcDbLine
10
222.798
20
-117.504
11
222.798
21
-121.005
0
LINE
5
66
100
AcDbEntity
8
BLACK
6
ByLayer
62
256
370
-1
100
AcDbLine
10
222.798
20
-121.005
11
221.985
21
-121.005
0
LINE
5
67
100
AcDbEntity
8
BLACK
6
ByLayer
62
256
370
-1
100
AcDbLine
10
221.985
20
-121.005
11
221.985
21
-121.985
0
LINE
5
68
100
AcDbEntity
8
BLACK
6
ByLayer
62
256
370
-1
100
AcDbLine
10
221.985
20
-121.985
11
208.015
21
-121.985
0
LINE
5
69
100
AcDbEntity
8
BLACK
6
ByLayer
62
256
370
-1
100
AcDbLine
10
208.015
20
-121.985
11
208.015
21
-121.005
0
LINE
5
6A
100
AcDbEntity
8
BLACK
6
ByLayer
62
256
370
-1
100
AcDbLine
10
208.015
20
-121.005
11
207.202
21
-121.005
0
LINE
5
6B
100
AcDbEntity
8
BLACK
6
ByLayer
62
256
370
-1
100
AcDbLine
10
207.202
20
-121.005
11
207.202
21
-117.504
0
LINE
5
6C
100
AcDbEntity
8
BLACK
6
ByLayer
62
256
370
-1
100
AcDbLine
10
207.202
20
-117.504
11
208.015
21
-117.504
0
LINE
5
6D
100
AcDbEntity
8
BLACK
6
ByLayer
62
256
370
-1
100
AcDbLine
10
208.015
20
-117.504
11
208.015
21
-112.496
0
LINE
5
6E
100
AcDbEntity
8
BLACK
6
ByLayer
62
256
370
-1
100
AcDbLine
10
208.015
20
-112.496
11
207.202
21
-112.496
0
LINE
5
6F
100
AcDbEntity
8
BLACK
6
ByLayer
62
256
370
-1
100
AcDbLine
10
207.202
20
-112.496
11
207.202
21
-108.995
0
LINE
5
70
100
AcDbEntity
8
BLACK
6
ByLayer
62
256
370
-1
100
AcDbLine
10
207.202
20
-108.995
11
208.015
21
-108.995
0
LINE
5
71
100
AcDbEntity
8
BLACK
6
ByLayer
62
256
370
-1
100
AcDbLine
10
208.015
20
-108.995
11
208.015
21
-108.015
0
LINE
5
72
100
AcDbEntity
8
BLACK
6
ByLayer
62
256
370
-1
100
AcDbLine
10
103.015
20
-148.015
11
116.985
21
-148.015
0
LINE
5
73
100
AcDbEntity
8
BLACK
6
ByLayer
62
256
370
-1
100
AcDbLine
10
116.985
20
-148.015
11
116.985
21
-148.995
0
LINE
5
74
100
AcDbEntity
8
BLACK
6
ByLayer
62
256
370
-1
100
AcDbLine
10
116.985
20
-148.995
11
117.798
21
-148.995
0
LINE
5
75
100
AcDbEntity
8
BLACK
6
ByLayer
62
256
370
-1
100
AcDbLine
10
117.798
20
-148.995
11
117.798
21
-152.496
0
LINE
5
76
100
AcDbEntity
8
BLACK
6
ByLayer
62
256
370
-1
100
AcDbLine
10
117.798
20
-152.496
11
116.985
21
-152.496
0
LINE
5
77
100
AcDbEntity
8
BLACK
6
ByLayer
62
256
370
-1
100
AcDbLine
10
116.985
20
-152.496
11
116.985
21
-157.504
0
LINE
5
78
100
AcDbEntity
8
BLACK
6
ByLayer
62
256
370
-1
100
AcDbLine
10
116.985
20
-157.504
11
117.798
21
-157.504
0
LINE
5
79
100
AcDbEntity
8
BLACK
6
ByLayer
62
256
370
-1
100
AcDbLine
10
117.798
20
-157.504
11
117.798
21
-161.005
0
LINE
5
7A
100
AcDbEntity
8
BLACK
6
ByLayer
62
256
370
-1
100
AcDbLine
10
117.798
20
-161.005
11
116.985
21
-161.005
0
LINE
5
7B
100
AcDbEntity
8
BLACK
6
ByLayer
62
256
370
-1
100
AcDbLine
10
116.985
20
-161.005
11
116.985
21
-161.985
0
LINE
5
7C
100
AcDbEntity
8
BLACK
6
ByLayer
62
256
370
-1
100
AcDbLine
10
116.985
20
-161.985
11
103.015
21
-161.985
0
LINE
5
7D
100
AcDbEntity
8
BLACK
6
ByLayer
62
256
370
-1
100
AcDbLine
10
103.015
20
-161.985
11
103.015
21
-161.005
0
LINE
5
7E
100
AcDbEntity
8
BLACK
6
ByLayer
62
256
370
-1
100
AcDbLine
10
103.015
20
-161.005
11
102.202
21
-161.005
0
LINE
5
7F
100
AcDbEntity
8
BLACK
6
ByLayer
62
256
370
-1
100
AcDbLine
10
102.202
20
-161.005
11
102.202
21
-157.504
0
LINE
5
80
100
AcDbEntity
8
BLACK
6
ByLayer
62
256
370
-1
100
AcDbLine
10
102.202
20
-157.504
11
103.015
21
-157.504
0
LINE
5
81
100
AcDbEntity
8
BLACK
6
ByLayer
62
256
370
-1
100
AcDbLine
10
103.015
20
-157.504
11
103.015
21
-152.496
0
LINE
5
82
100
AcDbEntity
8
BLACK
6
ByLayer
62
256
370
-1
100
AcDbLine
10
103.015
20
-152.496
11
102.202
21
-152.496
0
LINE
5
83
100
AcDbEntity
8
BLACK
6
ByLayer
62
256
370
-1
100
AcDbLine
10
102.202
20
-152.496
11
102.202
21
-148.995
0
LINE
5
84
100
AcDbEntity
8
BLACK
6
ByLayer
62
256
370
-1
100
AcDbLine
10
102.202
20
-148.995
11
103.015
21
-148.995
0
LINE
5
85
100
AcDbEntity
8
BLACK
6
ByLayer
62
256
370
-1
100
AcDbLine
10
103.015
20
-148.995
11
103.015
21
-148.015
0
LINE
5
86
100
AcDbEntity
8
BLACK
6
ByLayer
62
256
370
-1
100
AcDbLine
10
208.015
20
-128.015
11
221.985
21
-128.015
0
LINE
5
87
100
AcDbEntity
8
BLACK
6
ByLayer
62
256
370
-1
100
AcDbLine
10
221.985
20
-128.015
11
221.985
21
-128.995
0
LINE
5
88
100
AcDbEntity
8
BLACK
6
ByLayer
62
256
370
-1
100
AcDbLine
10
221.985
20
-128.995
11
222.798
21
-128.995
0
LINE
5
89
100
AcDbEntity
8
BLACK
6
ByLayer
62
256
370
-1
100
AcDbLine
10
222.798
20
-128.995
11
222.798
21
-132.496
0
LINE
5
8A
100
AcDbEntity
8
BLACK
6
ByLayer
62
256
370
-1
100
AcDbLine
10
222.798
20
-132.496
11
221.985
21
-132.496
0
LINE
5
8B
100
AcDbEntity
8
BLACK
6
ByLayer
62
256
370
-1
100
AcDbLine
10
221.985
20
-132.496
11
221.985
21
-137.504
0
LINE
5
8C
100
AcDbEntity
8
BLACK
6
ByLayer
62
256
370
-1
100
AcDbLine
10
221.985
20
-137.504
11
222.798
21
-137.504
0
LINE
5
8D
100
AcDbEntity
8
BLACK
6
ByLayer
62
256
370
-1
100
AcDbLine
10
222.798
20
-137.504
11
222.798
21
-141.005
0
LINE
5
8E
100
AcDbEntity
8
BLACK
6
ByLayer
62
256
370
-1
100
AcDbLine
10
222.798
20
-141.005
11
221.985
21
-141.005
0
LINE
5
8F
100
AcDbEntity
8
BLACK
6
ByLayer
62
256
370
-1
100
AcDbLine
10
221.985
20
-141.005
11
221.985
21
-141.985
0
LINE
5
90
100
AcDbEntity
8
BLACK
6
ByLayer
62
256
370
-1
100
AcDbLine
10
221.985
20
-141.985
11
208.015
21
-141.985
0
LINE
5
91
100
AcDbEntity
8
BLACK
6
ByLayer
62
256
370
-1
100
AcDbLine
10
208.015
20
-141.985
11
208.015
21
-141.005
0
LINE
5
92
100
AcDbEntity
8
BLACK
6
ByLayer
62
256
370
-1
100
AcDbLine
10
208.015
20
-141.005
11
207.202
21
-141.005
0
LINE
5
93
100
AcDbEntity
8
BLACK
6
ByLayer
62
256
370
-1
100
AcDbLine
10
207.202
20
-141.005
11
207.202
21
-137.504
0
LINE
5
94
100
AcDbEntity
8
BLACK
6
ByLayer
62
256
370
-1
100
AcDbLine
10
207.202
20
-137.504
11
208.015
21
-137.504
0
LINE
5
95
100
AcDbEntity
8
BLACK
6
ByLayer
62
256
370
-1
100
AcDbLine
10
208.015
20
-137.504
11
208.015
21
-132.496
0
LINE
5
96
100
AcDbEntity
8
BLACK
6
ByLayer
62
256
370
-1
100
AcDbLine
10
208.015
20
-132.496
11
207.202
21
-132.496
0
LINE
5
97
100
AcDbEntity
8
BLACK
6
ByLayer
62
256
370
-1
100
AcDbLine
10
207.202
20
-132.496
11
207.202
21
-128.995
0
LINE
5
98
100
AcDbEntity
8
BLACK
6
ByLayer
62
256
370
-1
100
AcDbLine
10
207.202
20
-128.995
11
208.015
21
-128.995
0
LINE
5
99
100
AcDbEntity
8
BLACK
6
ByLayer
62
256
370
-1
100
AcDbLine
10
208.015
20
-128.995
11
208.015
21
-128.015
0
LINE
5
9A
100
AcDbEntity
8
BLACK
6
ByLayer
62
256
370
-1
100
AcDbLine
10
278.015
20
-148.015
11
291.985
21
-148.015
0
LINE
5
9B
100
AcDbEntity
8
BLACK
6
ByLayer
62
256
370
-1
100
AcDbLine
10
291.985
20
-148.015
11
291.985
21
-148.995
0
LINE
5
9C
100
AcDbEntity
8
BLACK
6
ByLayer
62
256
370
-1
100
AcDbLine
10
291.985
20
-148.995
11
292.798
21
-148.995
0
LINE
5
9D
100
AcDbEntity
8
BLACK
6
ByLayer
62
256
370
-1
100
AcDbLine
10
292.798
20
-148.995
11
292.798
21
-152.496
0
LINE
5
9E
100
AcDbEntity
8
BLACK
6
ByLayer
62
256
370
-1
100
AcDbLine
10
292.798
20
-152.496
11
291.985
21
-152.496
0
LINE
5
9F
100
AcDbEntity
8
BLACK
6
ByLayer
62
256
370
-1
100
AcDbLine
10
291.985
20
-152.496
11
291.985
21
-157.504
0
LINE
5
A0
100
AcDbEntity
8
BLACK
6
ByLayer
62
256
370
-1
100
AcDbLine
10
291.985
20
-157.504
11
292.798
21
-157.504
0
LINE
5
A1
100
AcDbEntity
8
BLACK
6
ByLayer
62
256
370
-1
100
AcDbLine
10
292.798
20
-157.504
11
292.798
21
-161.005
0
LINE
5
A2
100
AcDbEntity
8
BLACK
6
ByLayer
62
256
370
-1
100
AcDbLine
10
292.798
20
-161.005
11
291.985
21
-161.005
0
LINE
5
A3
100
AcDbEntity
8
BLACK
6
ByLayer
62
256
370
-1
100
AcDbLine
10
291.985
20
-161.005
11
291.985
21
-161.985
0
LINE
5
A4
100
AcDbEntity
8
BLACK
6
ByLayer
62
256
370
-1
100
AcDbLine
10
291.985
20
-161.985
11
278.015
21
-161.985
0
LINE
5
A5
100
AcDbEntity
8
BLACK
6
ByLayer
62
256
370
-1
100
AcDbLine
10
278.015
20
-161.985
11
278.015
21
-161.005
0
LINE
5
A6
100
AcDbEntity
8
BLACK
6
ByLayer
62
256
370
-1
100
AcDbLine
10
278.015
20
-161.005
11
277.202
21
-161.005
0
LINE
5
A7
100
AcDbEntity
8
BLACK
6
ByLayer
62
256
370
-1
100
AcDbLine
10
277.202
20
-161.005
11
277.202
21
-157.504
0
LINE
5
A8
100
AcDbEntity
8
BLACK
6
ByLayer
62
256
370
-1
100
AcDbLine
10
277.202
20
-157.504
11
278.015
21
-157.504
0
LINE
5
A9
100
AcDbEntity
8
BLACK
6
ByLayer
62
256
370
-1
100
AcDbLine
10
278.015
20
-157.504
11
278.015
21
-152.496
0
LINE
5
AA
100
AcDbEntity
8
BLACK
6
ByLayer
62
256
370
-1
100
AcDbLine
10
278.015
20
-152.496
11
277.202
21
-152.496
0
LINE
5
AB
100
AcDbEntity
8
BLACK
6
ByLayer
62
256
370
-1
100
AcDbLine
10
277.202
20
-152.496
11
277.202
21
-148.995
0
LINE
5
AC
100
AcDbEntity
8
BLACK
6
ByLayer
62
256
370
-1
100
AcDbLine
10
277.202
20
-148.995
11
278.015
21
-148.995
0
LINE
5
AD
100
AcDbEntity
8
BLACK
6
ByLayer
62
256
370
-1
100
AcDbLine
10
278.015
20
-148.995
11
278.015
21
-148.015
0
LINE
5
AE
100
AcDbEntity
8
BLACK
6
ByLayer
62
256
370
-1
100
AcDbLine
10
243.015
20
-148.015
11
256.985
21
-148.015
0
LINE
5
AF
100
AcDbEntity
8
BLACK
6
ByLayer
62
256
370
-1
100
AcDbLine
10
256.985
20
-148.015
11
256.985
21
-148.995
0
LINE
5
B0
100
AcDbEntity
8
BLACK
6
ByLayer
62
256
370
-1
100
AcDbLine
10
256.985
20
-148.995
11
257.798
21
-148.995
0
LINE
5
B1
100
AcDbEntity
8
BLACK
6
ByLayer
62
256
370
-1
100
AcDbLine
10
257.798
20
-148.995
11
257.798
21
-152.496
0
LINE
5
B2
100
AcDbEntity
8
BLACK
6
ByLayer
62
256
370
-1
100
AcDbLine
10
257.798
20
-152.496
11
256.985
21
-152.496
0
LINE
5
B3
100
AcDbEntity
8
BLACK
6
ByLayer
62
256
370
-1
100
AcDbLine
10
256.985
20
-152.496
11
256.985
21
-157.504
0
LINE
5
B4
100
AcDbEntity
8
BLACK
6
ByLayer
62
256
370
-1
100
AcDbLine
10
256.985
20
-157.504
11
257.798
21
-157.504
0
LINE
5
B5
100
AcDbEntity
8
BLACK
6
ByLayer
62
256
370
-1
100
AcDbLine
10
257.798
20
-157.504
11
257.798
21
-161.005
0
LINE
5
B6
100
AcDbEntity
8
BLACK
6
ByLayer
62
256
370
-1
100
AcDbLine
10
257.798
20
-161.005
11
256.985
21
-161.005
0
LINE
5
B7
100
AcDbEntity
8
BLACK
6
ByLayer
62
256
370
-1
100
AcDbLine
10
256.985
20
-161.005
11
256.985
21
-161.985
0
LINE
5
B8
100
AcDbEntity
8
BLACK
6
ByLayer
62
256
370
-1
100
AcDbLine
10
256.985
20
-161.985
11
243.015
21
-161.985
0
LINE
5
B9
100
AcDbEntity
8
BLACK
6
ByLayer
62
256
370
-1
100
AcDbLine
10
243.015
20
-161.985
11
243.015
21
-161.005
0
LINE
5
BA
100
AcDbEntity
8
BLACK
6
ByLayer
62
256
370
-1
100
AcDbLine
10
243.015
20
-161.005
11
242.202
21
-161.005
0
LINE
5
BB
100
AcDbEntity
8
BLACK
6
ByLayer
62
256
370
-1
100
AcDbLine
10
242.202
20
-161.005
11
242.202
21
-157.504
0
LINE
5
BC
100
AcDbEntity
8
BLACK
6
ByLayer
62
256
370
-1
100
AcDbLine
10
242.202
20
-157.504
11
243.015
21
-157.504
0
LINE
5
BD
100
AcDbEntity
8
BLACK
6
ByLayer
62
256
370
-1
100
AcDbLine
10
243.015
20
-157.504
11
243.015
21
-152.496
0
LINE
5
BE
100
AcDbEntity
8
BLACK
6
ByLayer
62
256
370
-1
100
AcDbLine
10
243.015
20
-152.496
11
242.202
21
-152.496
0
LINE
5
BF
100
AcDbEntity
8
BLACK
6
ByLayer
62
256
370
-1
100
AcDbLine
10
242.202
20
-152.496
11
242.202
21
-148.995
0
LINE
5
C0
100
AcDbEntity
8
BLACK
6
ByLayer
62
256
370
-1
100
AcDbLine
10
242.202
20
-148.995
11
243.015
21
-148.995
0
LINE
5
C1
100
AcDbEntity
8
BLACK
6
ByLayer
62
256
370
-1
100
AcDbLine
10
243.015
20
-148.995
11
243.015
21
-148.015
0
LINE
5
C2
100
AcDbEntity
8
BLACK
6
ByLayer
62
256
370
-1
100
AcDbLine
10
208.015
20
-148.015
11
221.985
21
-148.015
0
LINE
5
C3
100
AcDbEntity
8
BLACK
6
ByLayer
62
256
370
-1
100
AcDbLine
10
221.985
20
-148.015
11
221.985
21
-148.995
0
LINE
5
C4
100
AcDbEntity
8
BLACK
6
ByLayer
62
256
370
-1
100
AcDbLine
10
221.985
20
-148.995
11
222.798
21
-148.995
0
LINE
5
C5
100
AcDbEntity
8
BLACK
6
ByLayer
62
256
370
-1
100
AcDbLine
10
222.798
20
-148.995
11
222.798
21
-152.496
0
LINE
5
C6
100
AcDbEntity
8
BLACK
6
ByLayer
62
256
370
-1
100
AcDbLine
10
222.798
20
-152.496
11
221.985
21
-152.496
0
LINE
5
C7
100
AcDbEntity
8
BLACK
6
ByLayer
62
256
370
-1
100
AcDbLine
10
221.985
20
-152.496
11
221.985
21
-157.504
0
LINE
5
C8
100
AcDbEntity
8
BLACK
6
ByLayer
62
256
370
-1
100
AcDbLine
10
221.985
20
-157.504
11
222.798
21
-157.504
0
LINE
5
C9
100
AcDbEntity
8
BLACK
6
ByLayer
62
256
370
-1
100
AcDbLine
10
222.798
20
-157.504
11
222.798
21
-161.005
0
LINE
5
CA
100
AcDbEntity
8
BLACK
6
ByLayer
62
256
370
-1
100
AcDbLine
10
222.798
20
-161.005
11
221.985
21
-161.005
0
LINE
5
CB
100
AcDbEntity
8
BLACK
6
ByLayer
62
256
370
-1
100
AcDbLine
10
221.985
20
-161.005
11
221.985
21
-161.985
0
LINE
5
CC
100
AcDbEntity
8
BLACK
6
ByLayer
62
256
370
-1
100
AcDbLine
10
221.985
20
-161.985
11
208.015
21
-161.985
0
LINE
5
CD
100
AcDbEntity
8
BLACK
6
ByLayer
62
256
370
-1
100
AcDbLine
10
208.015
20
-161.985
11
208.015
21
-161.005
0
LINE
5
CE
100
AcDbEntity
8
BLACK
6
ByLayer
62
256
370
-1
100
AcDbLine
10
208.015
20
-161.005
11
207.202
21
-161.005
0
LINE
5
CF
100
AcDbEntity
8
BLACK
6
ByLayer
62
256
370
-1
100
AcDbLine
10
207.202
20
-161.005
11
207.202
21
-157.504
0
LINE
5
D0
100
AcDbEntity
8
BLACK
6
ByLayer
62
256
370
-1
100
AcDbLine
10
207.202
20
-157.504
11
208.015
21
-157.504
0
LINE
5
D1
100
AcDbEntity
8
BLACK
6
ByLayer
62
256
370
-1
100
AcDbLine
10
208.015
20
-157.504
11
208.015
21
-152.496
0
LINE
5
D2
100
AcDbEntity
8
BLACK
6
ByLayer
62
256
370
-1
100
AcDbLine
10
208.015
20
-152.496
11
207.202
21
-152.496
0
LINE
5
D3
100
AcDbEntity
8
BLACK
6
ByLayer
62
256
370
-1
100
AcDbLine
10
207.202
20
-152.496
11
207.202
21
-148.995
0
LINE
5
D4
100
AcDbEntity
8
BLACK
6
ByLayer
62
256
370
-1
100
AcDbLine
10
207.202
20
-148.995
11
208.015
21
-148.995
0
LINE
5
D5
100
AcDbEntity
8
BLACK
6
ByLayer
62
256
370
-1
100
AcDbLine
10
208.015
20
-148.995
11
208.015
21
-148.015
0
LINE
5
D6
100
AcDbEntity
8
BLACK
6
ByLayer
62
256
370
-1
100
AcDbLine
10
173.015
20
-148.015
11
186.985
21
-148.015
0
LINE
5
D7
100
AcDbEntity
8
BLACK
6
ByLayer
62
256
370
-1
100
AcDbLine
10
186.985
20
-148.015
11
186.985
21
-148.995
0
LINE
5
D8
100
AcDbEntity
8
BLACK
6
ByLayer
62
256
370
-1
100
AcDbLine
10
186.985
20
-148.995
11
187.798
21
-148.995
0
LINE
5
D9
100
AcDbEntity
8
BLACK
6
ByLayer
62
256
370
-1
100
AcDbLine
10
187.798
20
-148.995
11
187.798
21
-152.496
0
LINE
5
DA
100
AcDbEntity
8
BLACK
6
ByLayer
62
256
370
-1
100
AcDbLine
10
187.798
20
-152.496
11
186.985
21
-152.496
0
LINE
5
DB
100
AcDbEntity
8
BLACK
6
ByLayer
62
256
370
-1
100
AcDbLine
10
186.985
20
-152.496
11
186.985
21
-157.504
0
LINE
5
DC
100
AcDbEntity
8
BLACK
6
ByLayer
62
256
370
-1
100
AcDbLine
10
186.985
20
-157.504
11
187.798
21
-157.504
0
LINE
5
DD
100
AcDbEntity
8
BLACK
6
ByLayer
62
256
370
-1
100
AcDbLine
10
187.798
20
-157.504
11
187.798
21
-161.005
0
LINE
5
DE
100
AcDbEntity
8
BLACK
6
ByLayer
62
256
370
-1
100
AcDbLine
10
187.798
20
-161.005
11
186.985
21
-161.005
0
LINE
5
DF
100
AcDbEntity
8
BLACK
6
ByLayer
62
256
370
-1
100
AcDbLine
10
186.985
20
-161.005
11
186.985
21
-161.985
0
LINE
5
E0
100
AcDbEntity
8
BLACK
6
ByLayer
62
256
370
-1
100
AcDbLine
10
186.985
20
-161.985
11
173.015
21
-161.985
0
LINE
5
E1
100
AcDbEntity
8
BLACK
6
ByLayer
62
256
370
-1
100
AcDbLine
10
173.015
20
-161.985
11
173.015
21
-161.005
0
LINE
5
E2
100
AcDbEntity
8
BLACK
6
ByLayer
62
256
370
-1
100
AcDbLine
10
173.015
20
-161.005
11
172.202
21
-161.005
0
LINE
5
E3
100
AcDbEntity
8
BLACK
6
ByLayer
62
256
370
-1
100
AcDbLine
10
172.202
20
-161.005
11
172.202
21
-157.504
0
LINE
5
E4
100
AcDbEntity
8
BLACK
6
ByLayer
62
256
370
-1
100
AcDbLine
10
172.202
20
-157.504
11
173.015
21
-157.504
0
LINE
5
E5
100
AcDbEntity
8
BLACK
6
ByLayer
62
256
370
-1
100
AcDbLine
10
173.015
20
-157.504
11
173.015
21
-152.496
0
LINE
5
E6
100
AcDbEntity
8
BLACK
6
ByLayer
62
256
370
-1
100
AcDbLine
10
173.015
20
-152.496
11
172.202
21
-152.496
0
LINE
5
E7
100
AcDbEntity
8
BLACK
6
ByLayer
62
256
370
-1
100
AcDbLine
10
172.202
20
-152.496
11
172.202
21
-148.995
0
LINE
5
E8
100
AcDbEntity
8
BLACK
6
ByLayer
62
256
370
-1
100
AcDbLine
10
172.202
20
-148.995
11
173.015
21
-148.995
0
LINE
5
E9
100
AcDbEntity
8
BLACK
6
ByLayer
62
256
370
-1
100
AcDbLine
10
173.015
20
-148.995
11
173.015
21
-148.015
0
LINE
5
EA
100
AcDbEntity
8
BLACK
6
ByLayer
62
256
370
-1
100
AcDbLine
10
138.015
20
-148.015
11
151.985
21
-148.015
0
LINE
5
EB
100
AcDbEntity
8
BLACK
6
ByLayer
62
256
370
-1
100
AcDbLine
10
151.985
20
-148.015
11
151.985
21
-148.995
0
LINE
5
EC
100
AcDbEntity
8
BLACK
6
ByLayer
62
256
370
-1
100
AcDbLine
10
151.985
20
-148.995
11
152.798
21
-148.995
0
LINE
5
ED
100
AcDbEntity
8
BLACK
6
ByLayer
62
256
370
-1
100
AcDbLine
10
152.798
20
-148.995
11
152.798
21
-152.496
0
LINE
5
EE
100
AcDbEntity
8
BLACK
6
ByLayer
62
256
370
-1
100
AcDbLine
10
152.798
20
-152.496
11
151.985
21
-152.496
0
LINE
5
EF
100
AcDbEntity
8
BLACK
6
ByLayer
62
256
370
-1
100
AcDbLine
10
151.985
20
-152.496
11
151.985
21
-157.504
0
LINE
5
F0
100
AcDbEntity
8
BLACK
6
ByLayer
62
256
370
-1
100
AcDbLine
10
151.985
20
-157.504
11
152.798
21
-157.504
0
LINE
5
F1
100
AcDbEntity
8
BLACK
6
ByLayer
62
256
370
-1
100
AcDbLine
10
152.798
20
-157.504
11
152.798
21
-161.005
0
LINE
5
F2
100
AcDbEntity
8
BLACK
6
ByLayer
62
256
370
-1
100
AcDbLine
10
152.798
20
-161.005
11
151.985
21
-161.005
0
LINE
5
F3
100
AcDbEntity
8
BLACK
6
ByLayer
62
256
370
-1
100
AcDbLine
10
151.985
20
-161.005
11
151.985
21
-161.985
0
LINE
5
F4
100
AcDbEntity
8
BLACK
6
ByLayer
62
256
370
-1
100
AcDbLine
10
151.985
20
-161.985
11
138.015
21
-161.985
0
LINE
5
F5
100
AcDbEntity
8
BLACK
6
ByLayer
62
256
370
-1
100
AcDbLine
10
138.015
20
-161.985
11
138.015
21
-161.005
0
LINE
5
F6
100
AcDbEntity
8
BLACK
6
ByLayer
62
256
370
-1
100
AcDbLine
10
138.015
20
-161.005
11
137.202
21
-161.005
0
LINE
5
F7
100
AcDbEntity
8
BLACK
6
ByLayer
62
256
370
-1
100
AcDbLine
10
137.202
20
-161.005
11
137.202
21
-157.504
0
LINE
5
F8
100
AcDbEntity
8
BLACK
6
ByLayer
62
256
370
-1
100
AcDbLine
10
137.202
20
-157.504
11
138.015
21
-157.504
0
LINE
5
F9
100
AcDbEntity
8
BLACK
6
ByLayer
62
256
370
-1
100
AcDbLine
10
138.015
20
-157.504
11
138.015
21
-152.496
0
LINE
5
FA
100
AcDbEntity
8
BLACK
6
ByLayer
62
256
370
-1
100
AcDbLine
10
138.015
20
-152.496
11
137.202
21
-152.496
0
LINE
5
FB
100
AcDbEntity
8
BLACK
6
ByLayer
62
256
370
-1
100
AcDbLine
10
137.202
20
-152.496
11
137.202
21
-148.995
0
LINE
5
FC
100
AcDbEntity
8
BLACK
6
ByLayer
62
256
370
-1
100
AcDbLine
10
137.202
20
-148.995
11
138.015
21
-148.995
0
LINE
5
FD
100
AcDbEntity
8
BLACK
6
ByLayer
62
256
370
-1
100
AcDbLine
10
138.015
20
-148.995
11
138.015
21
-148.015
0
LINE
5
FE
100
AcDbEntity
8
BLACK
6
ByLayer
62
256
370
-1
100
AcDbLine
10
68.015
20
-108.015
11
81.985
21
-108.015
0
LINE
5
FF
100
AcDbEntity
8
BLACK
6
ByLayer
62
256
370
-1
100
AcDbLine
10
81.985
20
-108.015
11
81.985
21
-108.995
0
LINE
5
100
100
AcDbEntity
8
BLACK
6
ByLayer
62
256
370
-1
100
AcDbLine
10
81.985
20
-108.995
11
82.7978
21
-108.995
0
LINE
5
101
100
AcDbEntity
8
BLACK
6
ByLayer
62
256
370
-1
100
AcDbLine
10
82.7978
20
-108.995
11
82.7978
21
-112.496
0
LINE
5
102
100
AcDbEntity
8
BLACK
6
ByLayer
62
256
370
-1
100
AcDbLine
10
82.7978
20
-112.496
11
81.985
21
-112.496
0
LINE
5
103
100
AcDbEntity
8
BLACK
6
ByLayer
62
256
370
-1
100
AcDbLine
10
81.985
20
-112.496
11
81.985
21
-117.504
0
LINE
5
104
100
AcDbEntity
8
BLACK
6
ByLayer
62
256
370
-1
100
AcDbLine
10
81.985
20
-117.504
11
82.7978
21
-117.504
0
LINE
5
105
100
AcDbEntity
8
BLACK
6
ByLayer
62
256
370
-1
100
AcDbLine
10
82.7978
20
-117.504
11
82.7978
21
-121.005
0
LINE
5
106
100
AcDbEntity
8
BLACK
6
ByLayer
62
256
370
-1
100
AcDbLine
10
82.7978
20
-121.005
11
81.985
21
-121.005
0
LINE
5
107
100
AcDbEntity
8
BLACK
6
ByLayer
62
256
370
-1
100
AcDbLine
10
81.985
20
-121.005
11
81.985
21
-121.985
0
LINE
5
108
100
AcDbEntity
8
BLACK
6
ByLayer
62
256
370
-1
100
AcDbLine
10
81.985
20
-121.985
11
68.015
21
-121.985
0
LINE
5
109
100
AcDbEntity
8
BLACK
6
ByLayer
62
256
370
-1
100
AcDbLine
10
68.015
20
-121.985
11
68.015
21
-121.005
0
LINE
5
10A
100
AcDbEntity
8
BLACK
6
ByLayer
62
256
370
-1
100
AcDbLine
10
68.015
20
-121.005
11
67.2022
21
-121.005
0
LINE
5
10B
100
AcDbEntity
8
BLACK
6
ByLayer
62
256
370
-1
100
AcDbLine
10
67.2022
20
-121.005
11
67.2022
21
-117.504
0
LINE
5
10C
100
AcDbEntity
8
BLACK
6
ByLayer
62
256
370
-1
100
AcDbLine
10
67.2022
20
-117.504
11
68.015
21
-117.504
0
LINE
5
10D
100
AcDbEntity
8
BLACK
6
ByLayer
62
256
370
-1
100
AcDbLine
10
68.015
20
-117.504
11
68.015
21
-112.496
0
LINE
5
10E
100
AcDbEntity
8
BLACK
6
ByLayer
62
256
370
-1
100
AcDbLine
10
68.015
20
-112.496
11
67.2022
21
-112.496
0
LINE
5
10F
100
AcDbEntity
8
BLACK
6
ByLayer
62
256
370
-1
100
AcDbLine
10
67.2022
20
-112.496
11
67.2022
21
-108.995
0
LINE
5
110
100
AcDbEntity
8
BLACK
6
ByLayer
62
256
370
-1
100
AcDbLine
10
67.2022
20
-108.995
11
68.015
21
-108.995
0
LINE
5
111
100
AcDbEntity
8
BLACK
6
ByLayer
62
256
370
-1
100
AcDbLine
10
68.015
20
-108.995
11
68.015
21
-108.015
0
LINE
5
112
100
AcDbEntity
8
BLACK
6
ByLayer
62
256
370
-1
100
AcDbLine
10
66.015
20
-128.015
11
79.985
21
-128.015
0
LINE
5
113
100
AcDbEntity
8
BLACK
6
ByLayer
62
256
370
-1
100
AcDbLine
10
79.985
20
-128.015
11
79.985
21
-128.995
0
LINE
5
114
100
AcDbEntity
8
BLACK
6
ByLayer
62
256
370
-1
100
AcDbLine
10
79.985
20
-128.995
11
80.7978
21
-128.995
0
LINE
5
115
100
AcDbEntity
8
BLACK
6
ByLayer
62
256
370
-1
100
AcDbLine
10
80.7978
20
-128.995
11
80.7978
21
-132.496
0
LINE
5
116
100
AcDbEntity
8
BLACK
6
ByLayer
62
256
370
-1
100
AcDbLine
10
80.7978
20
-132.496
11
79.985
21
-132.496
0
LINE
5
117
100
AcDbEntity
8
BLACK
6
ByLayer
62
256
370
-1
100
AcDbLine
10
79.985
20
-132.496
11
79.985
21
-137.504
0
LINE
5
118
100
AcDbEntity
8
BLACK
6
ByLayer
62
256
370
-1
100
AcDbLine
10
79.985
20
-137.504
11
80.7978
21
-137.504
0
LINE
5
119
100
AcDbEntity
8
BLACK
6
ByLayer
62
256
370
-1
100
AcDbLine
10
80.7978
20
-137.504
11
80.7978
21
-141.005
0
LINE
5
11A
100
AcDbEntity
8
BLACK
6
ByLayer
62
256
370
-1
100
AcDbLine
10
80.7978
20
-141.005
11
79.985
21
-141.005
0
LINE
5
11B
100
AcDbEntity
8
BLACK
6
ByLayer
62
256
370
-1
100
AcDbLine
10
79.985
20
-141.005
11
79.985
21
-141.985
0
LINE
5
11C
100
AcDbEntity
8
BLACK
6
ByLayer
62
256
370
-1
100
AcDbLine
10
79.985
20
-141.985
11
66.015
21
-141.985
0
LINE
5
11D
100
AcDbEntity
8
BLACK
6
ByLayer
62
256
370
-1
100
AcDbLine
10
66.015
20
-141.985
11
66.015
21
-141.005
0
LINE
5
11E
100
AcDbEntity
8
BLACK
6
ByLayer
62
256
370
-1
100
AcDbLine
10
66.015
20
-141.005
11
65.2022
21
-141.005
0
LINE
5
11F
100
AcDbEntity
8
BLACK
6
ByLayer
62
256
370
-1
100
AcDbLine
10
65.2022
20
-141.005
11
65.2022
21
-137.504
0
LINE
5
120
100
AcDbEntity
8
BLACK
6
ByLayer
62
256
370
-1
100
AcDbLine
10
65.2022
20
-137.504
11
66.015
21
-137.504
0
LINE
5
121
100
AcDbEntity
8
BLACK
6
ByLayer
62
256
370
-1
100
AcDbLine
10
66.015
20
-137.504
11
66.015
21
-132.496
0
LINE
5
122
100
AcDbEntity
8
BLACK
6
ByLayer
62
256
370
-1
100
AcDbLine
10
66.015
20
-132.496
11
65.2022
21
-132.496
0
LINE
5
123
100
AcDbEntity
8
BLACK
6
ByLayer
62
256
370
-1
100
AcDbLine
10
65.2022
20
-132.496
11
65.2022
21
-128.995
0
LINE
5
124
100
AcDbEntity
8
BLACK
6
ByLayer
62
256
370
-1
100
AcDbLine
10
65.2022
20
-128.995
11
66.015
21
-128.995
0
LINE
5
125
100
AcDbEntity
8
BLACK
6
ByLayer
62
256
370
-1
100
AcDbLine
10
66.015
20
-128.995
11
66.015
21
-128.015
0
LINE
5
126
100
AcDbEntity
8
BLACK
6
ByLayer
62
256
370
-1
100
AcDbLine
10
296.015
20
-68.015
11
309.985
21
-68.015
0
LINE
5
127
100
AcDbEntity
8
BLACK
6
ByLayer
62
256
370
-1
100
AcDbLine
10
309.985
20
-68.015
11
309.985
21
-68.9954
0
LINE
5
128
100
AcDbEntity
8
BLACK
6
ByLayer
62
256
370
-1
100
AcDbLine
10
309.985
20
-68.9954
11
310.798
21
-68.9954
0
LINE
5
129
100
AcDbEntity
8
BLACK
6
ByLayer
62
256
370
-1
100
AcDbLine
10
310.798
20
-68.9954
11
310.798
21
-72.4956
0
LINE
5
12A
100
AcDbEntity
8
BLACK
6
ByLayer
62
256
370
-1
100
AcDbLine
10
310.798
20
-72.4956
11
309.985
21
-72.4956
0
LINE
5
12B
100
AcDbEntity
8
BLACK
6
ByLayer
62
256
370
-1
100
AcDbLine
10
309.985
20
-72.4956
11
309.985
21
-77.5044
0
LINE
5
12C
100
AcDbEntity
8
BLACK
6
ByLayer
62
256
370
-1
100
AcDbLine
10
309.985
20
-77.5044
11
310.798
21
-77.5044
0
LINE
5
12D
100
AcDbEntity
8
BLACK
6
ByLayer
62
256
370
-1
100
AcDbLine
10
310.798
20
-77.5044
11
310.798
21
-81.0046
0
LINE
5
12E
100
AcDbEntity
8
BLACK
6
ByLayer
62
256
370
-1
100
AcDbLine
10
310.798
20
-81.0046
11
309.985
21
-81.0046
0
LINE
5
12F
100
AcDbEntity
8
BLACK
6
ByLayer
62
256
370
-1
100
AcDbLine
10
309.985
20
-81.0046
11
309.985
21
-81.985
0
LINE
5
130
100
AcDbEntity
8
BLACK
6
ByLayer
62
256
370
-1
100
AcDbLine
10
309.985
20
-81.985
11
296.015
21
-81.985
0
LINE
5
131
100
AcDbEntity
8
BLACK
6
ByLayer
62
256
370
-1
100
AcDbLine
10
296.015
20
-81.985
11
296.015
21
-81.0046
0
LINE
5
132
100
AcDbEntity
8
BLACK
6
ByLayer
62
256
370
-1
100
AcDbLine
10
296.015
20
-81.0046
11
295.202
21
-81.0046
0
LINE
5
133
100
AcDbEntity
8
BLACK
6
ByLayer
62
256
370
-1
100
AcDbLine
10
295.202
20
-81.0046
11
295.202
21
-77.5044
0
LINE
5
134
100
AcDbEntity
8
BLACK
6
ByLayer
62
256
370
-1
100
AcDbLine
10
295.202
20
-77.5044
11
296.015
21
-77.5044
0
LINE
5
135
100
AcDbEntity
8
BLACK
6
ByLayer
62
256
370
-1
100
AcDbLine
10
296.015
20
-77.5044
11
296.015
21
-72.4956
0
LINE
5
136
100
AcDbEntity
8
BLACK
6
ByLayer
62
256
370
-1
100
AcDbLine
10
296.015
20
-72.4956
11
295.202
21
-72.4956
0
LINE
5
137
100
AcDbEntity
8
BLACK
6
ByLayer
62
256
370
-1
100
AcDbLine
10
295.202
20
-72.4956
11
295.202
21
-68.9954
0
LINE
5
138
100
AcDbEntity
8
BLACK
6
ByLayer
62
256
370
-1
100
AcDbLine
10
295.202
20
-68.9954
11
296.015
21
-68.9954
0
LINE
5
139
100
AcDbEntity
8
BLACK
6
ByLayer
62
256
370
-1
100
AcDbLine
10
296.015
20
-68.9954
11
296.015
21
-68.015
0
LINE
5
13A
100
AcDbEntity
8
BLACK
6
ByLayer
62
256
370
-1
100
AcDbLine
10
236.015
20
-68.015
11
249.985
21
-68.015
0
LINE
5
13B
100
AcDbEntity
8
BLACK
6
ByLayer
62
256
370
-1
100
AcDbLine
10
249.985
20
-68.015
11
249.985
21
-68.9954
0
LINE
5
13C
100
AcDbEntity
8
BLACK
6
ByLayer
62
256
370
-1
100
AcDbLine
10
249.985
20
-68.9954
11
250.798
21
-68.9954
0
LINE
5
13D
100
AcDbEntity
8
BLACK
6
ByLayer
62
256
370
-1
100
AcDbLine
10
250.798
20
-68.9954
11
250.798
21
-72.4956
0
LINE
5
13E
100
AcDbEntity
8
BLACK
6
ByLayer
62
256
370
-1
100
AcDbLine
10
250.798
20
-72.4956
11
249.985
21
-72.4956
0
LINE
5
13F
100
AcDbEntity
8
BLACK
6
ByLayer
62
256
370
-1
100
AcDbLine
10
249.985
20
-72.4956
11
249.985
21
-77.5044
0
LINE
5
140
100
AcDbEntity
8
BLACK
6
ByLayer
62
256
370
-1
100
AcDbLine
10
249.985
20
-77.5044
11
250.798
21
-77.5044
0
LINE
5
141
100
AcDbEntity
8
BLACK
6
ByLayer
62
256
370
-1
100
AcDbLine
10
250.798
20
-77.5044
11
250.798
21
-81.0046
0
LINE
5
142
100
AcDbEntity
8
BLACK
6
ByLayer
62
256
370
-1
100
AcDbLine
10
250.798
20
-81.0046
11
249.985
21
-81.0046
0
LINE
5
143
100
AcDbEntity
8
BLACK
6
ByLayer
62
256
370
-1
100
AcDbLine
10
249.985
20
-81.0046
11
249.985
21
-81.985
0
LINE
5
144
100
AcDbEntity
8
BLACK
6
ByLayer
62
256
370
-1
100
AcDbLine
10
249.985
20
-81.985
11
236.015
21
-81.985
0
LINE
5
145
100
AcDbEntity
8
BLACK
6
ByLayer
62
256
370
-1
100
AcDbLine
10
236.015
20
-81.985
11
236.015
21
-81.0046
0
LINE
5
146
100
AcDbEntity
8
BLACK
6
ByLayer
62
256
370
-1
100
AcDbLine
10
236.015
20
-81.0046
11
235.202
21
-81.0046
0
LINE
5
147
100
AcDbEntity
8
BLACK
6
ByLayer
62
256
370
-1
100
AcDbLine
10
235.202
20
-81.0046
11
235.202
21
-77.5044
0
LINE
5
148
100
AcDbEntity
8
BLACK
6
ByLayer
62
256
370
-1
100
AcDbLine
10
235.202
20
-77.5044
11
236.015
21
-77.5044
0
LINE
5
149
100
AcDbEntity
8
BLACK
6
ByLayer
62
256
370
-1
100
AcDbLine
10
236.015
20
-77.5044
11
236.015
21
-72.4956
0
LINE
5
14A
100
AcDbEntity
8
BLACK
6
ByLayer
62
256
370
-1
100
AcDbLine
10
236.015
20
-72.4956
11
235.202
21
-72.4956
0
LINE
5
14B
100
AcDbEntity
8
BLACK
6
ByLayer
62
256
370
-1
100
AcDbLine
10
235.202
20
-72.4956
11
235.202
21
-68.9954
0
LINE
5
14C
100
AcDbEntity
8
BLACK
6
ByLayer
62
256
370
-1
100
AcDbLine
10
235.202
20
-68.9954
11
236.015
21
-68.9954
0
LINE
5
14D
100
AcDbEntity
8
BLACK
6
ByLayer
62
256
370
-1
100
AcDbLine
10
236.015
20
-68.9954
11
236.015
21
-68.015
0
LINE
5
14E
100
AcDbEntity
8
BLACK
6
ByLayer
62
256
370
-1
100
AcDbLine
10
282.015
20
-128.015
11
295.985
21
-128.015
0
LINE
5
14F
100
AcDbEntity
8
BLACK
6
ByLayer
62
256
370
-1
100
AcDbLine
10
295.985
20
-128.015
11
295.985
21
-128.995
0
LINE
5
150
100
AcDbEntity
8
BLACK
6
ByLayer
62
256
370
-1
100
AcDbLine
10
295.985
20
-128.995
11
296.798
21
-128.995
0
LINE
5
151
100
AcDbEntity
8
BLACK
6
ByLayer
62
256
370
-1
100
AcDbLine
10
296.798
20
-128.995
11
296.798
21
-132.496
0
LINE
5
152
100
AcDbEntity
8
BLACK
6
ByLayer
62
256
370
-1
100
AcDbLine
10
296.798
20
-132.496
11
295.985
21
-132.496
0
LINE
5
153
100
AcDbEntity
8
BLACK
6
ByLayer
62
256
370
-1
100
AcDbLine
10
295.985
20
-132.496
11
295.985
21
-137.504
0
LINE
5
154
100
AcDbEntity
8
BLACK
6
ByLayer
62
256
370
-1
100
AcDbLine
10
295.985
20
-137.504
11
296.798
21
-137.504
0
LINE
5
155
100
AcDbEntity
8
BLACK
6
ByLayer
62
256
370
-1
100
AcDbLine
10
296.798
20
-137.504
11
296.798
21
-141.005
0
LINE
5
156
100
AcDbEntity
8
BLACK
6
ByLayer
62
256
370
-1
100
AcDbLine
10
296.798
20
-141.005
11
295.985
21
-141.005
0
LINE
5
157
100
AcDbEntity
8
BLACK
6
ByLayer
62
256
370
-1
100
AcDbLine
10
295.985
20
-141.005
11
295.985
21
-141.985
0
LINE
5
158
100
AcDbEntity
8
BLACK
6
ByLayer
62
256
370
-1
100
AcDbLine
10
295.985
20
-141.985
11
282.015
21
-141.985
0
LINE
5
159
100
AcDbEntity
8
BLACK
6
ByLayer
62
256
370
-1
100
AcDbLine
10
282.015
20
-141.985
11
282.015
21
-141.005
0
LINE
5
15A
100
AcDbEntity
8
BLACK
6
ByLayer
62
256
370
-1
100
AcDbLine
10
282.015
20
-141.005
11
281.202
21
-141.005
0
LINE
5
15B
100
AcDbEntity
8
BLACK
6
ByLayer
62
256
370
-1
100
AcDbLine
10
281.202
20
-141.005
11
281.202
21
-137.504
0
LINE
5
15C
100
AcDbEntity
8
BLACK
6
ByLayer
62
256
370
-1
100
AcDbLine
10
281.202
20
-137.504
11
282.015
21
-137.504
0
LINE
5
15D
100
AcDbEntity
8
BLACK
6
ByLayer
62
256
370
-1
100
AcDbLine
10
282.015
20
-137.504
11
282.015
21
-132.496
0
LINE
5
15E
100
AcDbEntity
8
BLACK
6
ByLayer
62
256
370
-1
100
AcDbLine
10
282.015
20
-132.496
11
281.202
21
-132.496
0
LINE
5
15F
100
AcDbEntity
8
BLACK
6
ByLayer
62
256
370
-1
100
AcDbLine
10
281.202
20
-132.496
11
281.202
21
-128.995
0
LINE
5
160
100
AcDbEntity
8
BLACK
6
ByLayer
62
256
370
-1
100
AcDbLine
10
281.202
20
-128.995
11
282.015
21
-128.995
0
LINE
5
161
100
AcDbEntity
8
BLACK
6
ByLayer
62
256
370
-1
100
AcDbLine
10
282.015
20
-128.995
11
282.015
21
-128.015
0
LINE
5
162
100
AcDbEntity
8
BLACK
6
ByLayer
62
256
370
-1
100
AcDbLine
10
280.015
20
-108.015
11
293.985
21
-108.015
0
LINE
5
163
100
AcDbEntity
8
BLACK
6
ByLayer
62
256
370
-1
100
AcDbLine
10
293.985
20
-108.015
11
293.985
21
-108.995
0
LINE
5
164
100
AcDbEntity
8
BLACK
6
ByLayer
62
256
370
-1
100
AcDbLine
10
293.985
20
-108.995
11
294.798
21
-108.995
0
LINE
5
165
100
AcDbEntity
8
BLACK
6
ByLayer
62
256
370
-1
100
AcDbLine
10
294.798
20
-108.995
11
294.798
21
-112.496
0
LINE
5
166
100
AcDbEntity
8
BLACK
6
ByLayer
62
256
370
-1
100
AcDbLine
10
294.798
20
-112.496
11
293.985
21
-112.496
0
LINE
5
167
100
AcDbEntity
8
BLACK
6
ByLayer
62
256
370
-1
100
AcDbLine
10
293.985
20
-112.496
11
293.985
21
-117.504
0
LINE
5
168
100
AcDbEntity
8
BLACK
6
ByLayer
62
256
370
-1
100
AcDbLine
10
293.985
20
-117.504
11
294.798
21
-117.504
0
LINE
5
169
100
AcDbEntity
8
BLACK
6
ByLayer
62
256
370
-1
100
AcDbLine
10
294.798
20
-117.504
11
294.798
21
-121.005
0
LINE
5
16A
100
AcDbEntity
8
BLACK
6
ByLayer
62
256
370
-1
100
AcDbLine
10
294.798
20
-121.005
11
293.985
21
-121.005
0
LINE
5
16B
100
AcDbEntity
8
BLACK
6
ByLayer
62
256
370
-1
100
AcDbLine
10
293.985
20
-121.005
11
293.985
21
-121.985
0
LINE
5
16C
100
AcDbEntity
8
BLACK
6
ByLayer
62
256
370
-1
100
AcDbLine
10
293.985
20
-121.985
11
280.015
21
-121.985
0
LINE
5
16D
100
AcDbEntity
8
BLACK
6
ByLayer
62
256
370
-1
100
AcDbLine
10
280.015
20
-121.985
11
280.015
21
-121.005
0
LINE
5
16E
100
AcDbEntity
8
BLACK
6
ByLayer
62
256
370
-1
100
AcDbLine
10
280.015
20
-121.005
11
279.202
21
-121.005
0
LINE
5
16F
100
AcDbEntity
8
BLACK
6
ByLayer
62
256
370
-1
100
AcDbLine
10
279.202
20
-121.005
11
279.202
21
-117.504
0
LINE
5
170
100
AcDbEntity
8
BLACK
6
ByLayer
62
256
370
-1
100
AcDbLine
10
279.202
20
-117.504
11
280.015
21
-117.504
0
LINE
5
171
100
AcDbEntity
8
BLACK
6
ByLayer
62
256
370
-1
100
AcDbLine
10
280.015
20
-117.504
11
280.015
21
-112.496
0
LINE
5
172
100
AcDbEntity
8
BLACK
6
ByLayer
62
256
370
-1
100
AcDbLine
10
280.015
20
-112.496
11
279.202
21
-112.496
0
LINE
5
173
100
AcDbEntity
8
BLACK
6
ByLayer
62
256
370
-1
100
AcDbLine
10
279.202
20
-112.496
11
279.202
21
-108.995
0
LINE
5
174
100
AcDbEntity
8
BLACK
6
ByLayer
62
256
370
-1
100
AcDbLine
10
279.202
20
-108.995
11
280.015
21
-108.995
0
LINE
5
175
100
AcDbEntity
8
BLACK
6
ByLayer
62
256
370
-1
100
AcDbLine
10
280.015
20
-108.995
11
280.015
21
-108.015
0
LINE
5
176
100
AcDbEntity
8
BLACK
6
ByLayer
62
256
370
-1
100
AcDbLine
10
258.015
20
-88.015
11
271.985
21
-88.015
0
LINE
5
177
100
AcDbEntity
8
BLACK
6
ByLayer
62
256
370
-1
100
AcDbLine
10
271.985
20
-88.015
11
271.985
21
-88.9954
0
LINE
5
178
100
AcDbEntity
8
BLACK
6
ByLayer
62
256
370
-1
100
AcDbLine
10
271.985
20
-88.9954
11
272.798
21
-88.9954
0
LINE
5
179
100
AcDbEntity
8
BLACK
6
ByLayer
62
256
370
-1
100
AcDbLine
10
272.798
20
-88.9954
11
272.798
21
-92.4956
0
LINE
5
17A
100
AcDbEntity
8
BLACK
6
ByLayer
62
256
370
-1
100
AcDbLine
10
272.798
20
-92.4956
11
271.985
21
-92.4956
0
LINE
5
17B
100
AcDbEntity
8
BLACK
6
ByLayer
62
256
370
-1
100
AcDbLine
10
271.985
20
-92.4956
11
271.985
21
-97.5044
0
LINE
5
17C
100
AcDbEntity
8
BLACK
6
ByLayer
62
256
370
-1
100
AcDbLine
10
271.985
20
-97.5044
11
272.798
21
-97.5044
0
LINE
5
17D
100
AcDbEntity
8
BLACK
6
ByLayer
62
256
370
-1
100
AcDbLine
10
272.798
20
-97.5044
11
272.798
21
-101.005
0
LINE
5
17E
100
AcDbEntity
8
BLACK
6
ByLayer
62
256
370
-1
100
AcDbLine
10
272.798
20
-101.005
11
271.985
21
-101.005
0
LINE
5
17F
100
AcDbEntity
8
BLACK
6
ByLayer
62
256
370
-1
100
AcDbLine
10
271.985
20
-101.005
11
271.985
21
-101.985
0
LINE
5
180
100
AcDbEntity
8
BLACK
6
ByLayer
62
256
370
-1
100
AcDbLine
10
271.985
20
-101.985
11
258.015
21
-101.985
0
LINE
5
181
100
AcDbEntity
8
BLACK
6
ByLayer
62
256
370
-1
100
AcDbLine
10
258.015
20
-101.985
11
258.015
21
-101.005
0
LINE
5
182
100
AcDbEntity
8
BLACK
6
ByLayer
62
256
370
-1
100
AcDbLine
10
258.015
20
-101.005
11
257.202
21
-101.005
0
LINE
5
183
100
AcDbEntity
8
BLACK
6
ByLayer
62
256
370
-1
100
AcDbLine
10
257.202
20
-101.005
11
257.202
21
-97.5044
0
LINE
5
184
100
AcDbEntity
8
BLACK
6
ByLayer
62
256
370
-1
100
AcDbLine
10
257.202
20
-97.5044
11
258.015
21
-97.5044
0
LINE
5
185
100
AcDbEntity
8
BLACK
6
ByLayer
62
256
370
-1
100
AcDbLine
10
258.015
20
-97.5044
11
258.015
21
-92.4956
0
LINE
5
186
100
AcDbEntity
8
BLACK
6
ByLayer
62
256
370
-1
100
AcDbLine
10
258.015
20
-92.4956
11
257.202
21
-92.4956
0
LINE
5
187
100
AcDbEntity
8
BLACK
6
ByLayer
62
256
370
-1
100
AcDbLine
10
257.202
20
-92.4956
11
257.202
21
-88.9954
0
LINE
5
188
100
AcDbEntity
8
BLACK
6
ByLayer
62
256
370
-1
100
AcDbLine
10
257.202
20
-88.9954
11
258.015
21
-88.9954
0
LINE
5
189
100
AcDbEntity
8
BLACK
6
ByLayer
62
256
370
-1
100
AcDbLine
10
258.015
20
-88.9954
11
258.015
21
-88.015
0
LINE
5
18A
100
AcDbEntity
8
BLACK
6
ByLayer
62
256
370
-1
100
AcDbLine
10
256.015
20
-68.015
11
269.985
21
-68.015
0
LINE
5
18B
100
AcDbEntity
8
BLACK
6
ByLayer
62
256
370
-1
100
AcDbLine
10
269.985
20
-68.015
11
269.985
21
-68.9954
0
LINE
5
18C
100
AcDbEntity
8
BLACK
6
ByLayer
62
256
370
-1
100
AcDbLine
10
269.985
20
-68.9954
11
270.798
21
-68.9954
0
LINE
5
18D
100
AcDbEntity
8
BLACK
6
ByLayer
62
256
370
-1
100
AcDbLine
10
270.798
20
-68.9954
11
270.798
21
-72.4956
0
LINE
5
18E
100
AcDbEntity
8
BLACK
6
ByLayer
62
256
370
-1
100
AcDbLine
10
270.798
20
-72.4956
11
269.985
21
-72.4956
0
LINE
5
18F
100
AcDbEntity
8
BLACK
6
ByLayer
62
256
370
-1
100
AcDbLine
10
269.985
20
-72.4956
11
269.985
21
-77.5044
0
LINE
5
190
100
AcDbEntity
8
BLACK
6
ByLayer
62
256
370
-1
100
AcDbLine
10
269.985
20
-77.5044
11
270.798
21
-77.5044
0
LINE
5
191
100
AcDbEntity
8
BLACK
6
ByLayer
62
256
370
-1
100
AcDbLine
10
270.798
20
-77.5044
11
270.798
21
-81.0046
0
LINE
5
192
100
AcDbEntity
8
BLACK
6
ByLayer
62
256
370
-1
100
AcDbLine
10
270.798
20
-81.0046
11
269.985
21
-81.0046
0
LINE
5
193
100
AcDbEntity
8
BLACK
6
ByLayer
62
256
370
-1
100
AcDbLine
10
269.985
20
-81.0046
11
269.985
21
-81.985
0
LINE
5
194
100
AcDbEntity
8
BLACK
6
ByLayer
62
256
370
-1
100
AcDbLine
10
269.985
20
-81.985
11
256.015
21
-81.985
0
LINE
5
195
100
AcDbEntity
8
BLACK
6
ByLayer
62
256
370
-1
100
AcDbLine
10
256.015
20
-81.985
11
256.015
21
-81.0046
0
LINE
5
196
100
AcDbEntity
8
BLACK
6
ByLayer
62
256
370
-1
100
AcDbLine
10
256.015
20
-81.0046
11
255.202
21
-81.0046
0
LINE
5
197
100
AcDbEntity
8
BLACK
6
ByLayer
62
256
370
-1
100
AcDbLine
10
255.202
20
-81.0046
11
255.202
21
-77.5044
0
LINE
5
198
100
AcDbEntity
8
BLACK
6
ByLayer
62
256
370
-1
100
AcDbLine
10
255.202
20
-77.5044
11
256.015
21
-77.5044
0
LINE
5
199
100
AcDbEntity
8
BLACK
6
ByLayer
62
256
370
-1
100
AcDbLine
10
256.015
20
-77.5044
11
256.015
21
-72.4956
0
LINE
5
19A
100
AcDbEntity
8
BLACK
6
ByLayer
62
256
370
-1
100
AcDbLine
10
256.015
20
-72.4956
11
255.202
21
-72.4956
0
LINE
5
19B
100
AcDbEntity
8
BLACK
6
ByLayer
62
256
370
-1
100
AcDbLine
10
255.202
20
-72.4956
11
255.202
21
-68.9954
0
LINE
5
19C
100
AcDbEntity
8
BLACK
6
ByLayer
62
256
370
-1
100
AcDbLine
10
255.202
20
-68.9954
11
256.015
21
-68.9954
0
LINE
5
19D
100
AcDbEntity
8
BLACK
6
ByLayer
62
256
370
-1
100
AcDbLine
10
256.015
20
-68.9954
11
256.015
21
-68.015
0
LINE
5
19E
100
AcDbEntity
8
BLACK
6
ByLayer
62
256
370
-1
100
AcDbLine
10
302.015
20
-128.015
11
315.985
21
-128.015
0
LINE
5
19F
100
AcDbEntity
8
BLACK
6
ByLayer
62
256
370
-1
100
AcDbLine
10
315.985
20
-128.015
11
315.985
21
-128.995
0
LINE
5
1A0
100
AcDbEntity
8
BLACK
6
ByLayer
62
256
370
-1
100
AcDbLine
10
315.985
20
-128.995
11
316.798
21
-128.995
0
LINE
5
1A1
100
AcDbEntity
8
BLACK
6
ByLayer
62
256
370
-1
100
AcDbLine
10
316.798
20
-128.995
11
316.798
21
-132.496
0
LINE
5
1A2
100
AcDbEntity
8
BLACK
6
ByLayer
62
256
370
-1
100
AcDbLine
10
316.798
20
-132.496
11
315.985
21
-132.496
0
LINE
5
1A3
100
AcDbEntity
8
BLACK
6
ByLayer
62
256
370
-1
100
AcDbLine
10
315.985
20
-132.496
11
315.985
21
-137.504
0
LINE
5
1A4
100
AcDbEntity
8
BLACK
6
ByLayer
62
256
370
-1
100
AcDbLine
10
315.985
20
-137.504
11
316.798
21
-137.504
0
LINE
5
1A5
100
AcDbEntity
8
BLACK
6
ByLayer
62
256
370
-1
100
AcDbLine
10
316.798
20
-137.504
11
316.798
21
-141.005
0
LINE
5
1A6
100
AcDbEntity
8
BLACK
6
ByLayer
62
256
370
-1
100
AcDbLine
10
316.798
20
-141.005
11
315.985
21
-141.005
0
LINE
5
1A7
100
AcDbEntity
8
BLACK
6
ByLayer
62
256
370
-1
100
AcDbLine
10
315.985
20
-141.005
11
315.985
21
-141.985
0
LINE
5
1A8
100
AcDbEntity
8
BLACK
6
ByLayer
62
256
370
-1
100
AcDbLine
10
315.985
20
-141.985
11
302.015
21
-141.985
0
LINE
5
1A9
100
AcDbEntity
8
BLACK
6
ByLayer
62
256
370
-1
100
AcDbLine
10
302.015
20
-141.985
11
302.015
21
-141.005
0
LINE
5
1AA
100
AcDbEntity
8
BLACK
6
ByLayer
62
256
370
-1
100
AcDbLine
10
302.015
20
-141.005
11
301.202
21
-141.005
0
LINE
5
1AB
100
AcDbEntity
8
BLACK
6
ByLayer
62
256
370
-1
100
AcDbLine
10
301.202
20
-141.005
11
301.202
21
-137.504
0
LINE
5
1AC
100
AcDbEntity
8
BLACK
6
ByLayer
62
256
370
-1
100
AcDbLine
10
301.202
20
-137.504
11
302.015
21
-137.504
0
LINE
5
1AD
100
AcDbEntity
8
BLACK
6
ByLayer
62
256
370
-1
100
AcDbLine
10
302.015
20
-137.504
11
302.015
21
-132.496
0
LINE
5
1AE
100
AcDbEntity
8
BLACK
6
ByLayer
62
256
370
-1
100
AcDbLine
10
302.015
20
-132.496
11
301.202
21
-132.496
0
LINE
5
1AF
100
AcDbEntity
8
BLACK
6
ByLayer
62
256
370
-1
100
AcDbLine
10
301.202
20
-132.496
11
301.202
21
-128.995
0
LINE
5
1B0
100
AcDbEntity
8
BLACK
6
ByLayer
62
256
370
-1
100
AcDbLine
10
301.202
20
-128.995
11
302.015
21
-128.995
0
LINE
5
1B1
100
AcDbEntity
8
BLACK
6
ByLayer
62
256
370
-1
100
AcDbLine
10
302.015
20
-128.995
11
302.015
21
-128.015
0
LINE
5
1B2
100
AcDbEntity
8
BLACK
6
ByLayer
62
256
370
-1
100
AcDbLine
10
300.015
20
-108.015
11
313.985
21
-108.015
0
LINE
5
1B3
100
AcDbEntity
8
BLACK
6
ByLayer
62
256
370
-1
100
AcDbLine
10
313.985
20
-108.015
11
313.985
21
-108.995
0
LINE
5
1B4
100
AcDbEntity
8
BLACK
6
ByLayer
62
256
370
-1
100
AcDbLine
10
313.985
20
-108.995
11
314.798
21
-108.995
0
LINE
5
1B5
100
AcDbEntity
8
BLACK
6
ByLayer
62
256
370
-1
100
AcDbLine
10
314.798
20
-108.995
11
314.798
21
-112.496
0
LINE
5
1B6
100
AcDbEntity
8
BLACK
6
ByLayer
62
256
370
-1
100
AcDbLine
10
314.798
20
-112.496
11
313.985
21
-112.496
0
LINE
5
1B7
100
AcDbEntity
8
BLACK
6
ByLayer
62
256
370
-1
100
AcDbLine
10
313.985
20
-112.496
11
313.985
21
-117.504
0
LINE
5
1B8
100
AcDbEntity
8
BLACK
6
ByLayer
62
256
370
-1
100
AcDbLine
10
313.985
20
-117.504
11
314.798
21
-117.504
0
LINE
5
1B9
100
AcDbEntity
8
BLACK
6
ByLayer
62
256
370
-1
100
AcDbLine
10
314.798
20
-117.504
11
314.798
21
-121.005
0
LINE
5
1BA
100
AcDbEntity
8
BLACK
6
ByLayer
62
256
370
-1
100
AcDbLine
10
314.798
20
-121.005
11
313.985
21
-121.005
0
LINE
5
1BB
100
AcDbEntity
8
BLACK
6
ByLayer
62
256
370
-1
100
AcDbLine
10
313.985
20
-121.005
11
313.985
21
-121.985
0
LINE
5
1BC
100
AcDbEntity
8
BLACK
6
ByLayer
62
256
370
-1
100
AcDbLine
10
313.985
20
-121.985
11
300.015
21
-121.985
0
LINE
5
1BD
100
AcDbEntity
8
BLACK
6
ByLayer
62
256
370
-1
100
AcDbLine
10
300.015
20
-121.985
11
300.015
21
-121.005
0
LINE
5
1BE
100
AcDbEntity
8
BLACK
6
ByLayer
62
256
370
-1
100
AcDbLine
10
300.015
20
-121.005
11
299.202
21
-121.005
0
LINE
5
1BF
100
AcDbEntity
8
BLACK
6
ByLayer
62
256
370
-1
100
AcDbLine
10
299.202
20
-121.005
11
299.202
21
-117.504
0
LINE
5
1C0
100
AcDbEntity
8
BLACK
6
ByLayer
62
256
370
-1
100
AcDbLine
10
299.202
20
-117.504
11
300.015
21
-117.504
0
LINE
5
1C1
100
AcDbEntity
8
BLACK
6
ByLayer
62
256
370
-1
100
AcDbLine
10
300.015
20
-117.504
11
300.015
21
-112.496
0
LINE
5
1C2
100
AcDbEntity
8
BLACK
6
ByLayer
62
256
370
-1
100
AcDbLine
10
300.015
20
-112.496
11
299.202
21
-112.496
0
LINE
5
1C3
100
AcDbEntity
8
BLACK
6
ByLayer
62
256
370
-1
100
AcDbLine
10
299.202
20
-112.496
11
299.202
21
-108.995
0
LINE
5
1C4
100
AcDbEntity
8
BLACK
6
ByLayer
62
256
370
-1
100
AcDbLine
10
299.202
20
-108.995
11
300.015
21
-108.995
0
LINE
5
1C5
100
AcDbEntity
8
BLACK
6
ByLayer
62
256
370
-1
100
AcDbLine
10
300.015
20
-108.995
11
300.015
21
-108.015
0
LINE
5
1C6
100
AcDbEntity
8
BLACK
6
ByLayer
62
256
370
-1
100
AcDbLine
10
278.015
20
-88.015
11
291.985
21
-88.015
0
LINE
5
1C7
100
AcDbEntity
8
BLACK
6
ByLayer
62
256
370
-1
100
AcDbLine
10
291.985
20
-88.015
11
291.985
21
-88.9954
0
LINE
5
1C8
100
AcDbEntity
8
BLACK
6
ByLayer
62
256
370
-1
100
AcDbLine
10
291.985
20
-88.9954
11
292.798
21
-88.9954
0
LINE
5
1C9
100
AcDbEntity
8
BLACK
6
ByLayer
62
256
370
-1
100
AcDbLine
10
292.798
20
-88.9954
11
292.798
21
-92.4956
0
LINE
5
1CA
100
AcDbEntity
8
BLACK
6
ByLayer
62
256
370
-1
100
AcDbLine
10
292.798
20
-92.4956
11
291.985
21
-92.4956
0
LINE
5
1CB
100
AcDbEntity
8
BLACK
6
ByLayer
62
256
370
-1
100
AcDbLine
10
291.985
20
-92.4956
11
291.985
21
-97.5044
0
LINE
5
1CC
100
AcDbEntity
8
BLACK
6
ByLayer
62
256
370
-1
100
AcDbLine
10
291.985
20
-97.5044
11
292.798
21
-97.5044
0
LINE
5
1CD
100
AcDbEntity
8
BLACK
6
ByLayer
62
256
370
-1
100
AcDbLine
10
292.798
20
-97.5044
11
292.798
21
-101.005
0
LINE
5
1CE
100
AcDbEntity
8
BLACK
6
ByLayer
62
256
370
-1
100
AcDbLine
10
292.798
20
-101.005
11
291.985
21
-101.005
0
LINE
5
1CF
100
AcDbEntity
8
BLACK
6
ByLayer
62
256
370
-1
100
AcDbLine
10
291.985
20
-101.005
11
291.985
21
-101.985
0
LINE
5
1D0
100
AcDbEntity
8
BLACK
6
ByLayer
62
256
370
-1
100
AcDbLine
10
291.985
20
-101.985
11
278.015
21
-101.985
0
LINE
5
1D1
100
AcDbEntity
8
BLACK
6
ByLayer
62
256
370
-1
100
AcDbLine
10
278.015
20
-101.985
11
278.015
21
-101.005
0
LINE
5
1D2
100
AcDbEntity
8
BLACK
6
ByLayer
62
256
370
-1
100
AcDbLine
10
278.015
20
-101.005
11
277.202
21
-101.005
0
LINE
5
1D3
100
AcDbEntity
8
BLACK
6
ByLayer
62
256
370
-1
100
AcDbLine
10
277.202
20
-101.005
11
277.202
21
-97.5044
0
LINE
5
1D4
100
AcDbEntity
8
BLACK
6
ByLayer
62
256
370
-1
100
AcDbLine
10
277.202
20
-97.5044
11
278.015
21
-97.5044
0
LINE
5
1D5
100
AcDbEntity
8
BLACK
6
ByLayer
62
256
370
-1
100
AcDbLine
10
278.015
20
-97.5044
11
278.015
21
-92.4956
0
LINE
5
1D6
100
AcDbEntity
8
BLACK
6
ByLayer
62
256
370
-1
100
AcDbLine
10
278.015
20
-92.4956
11
277.202
21
-92.4956
0
LINE
5
1D7
100
AcDbEntity
8
BLACK
6
ByLayer
62
256
370
-1
100
AcDbLine
10
277.202
20
-92.4956
11
277.202
21
-88.9954
0
LINE
5
1D8
100
AcDbEntity
8
BLACK
6
ByLayer
62
256
370
-1
100
AcDbLine
10
277.202
20
-88.9954
11
278.015
21
-88.9954
0
LINE
5
1D9
100
AcDbEntity
8
BLACK
6
ByLayer
62
256
370
-1
100
AcDbLine
10
278.015
20
-88.9954
11
278.015
21
-88.015
0
LINE
5
1DA
100
AcDbEntity
8
BLACK
6
ByLayer
62
256
370
-1
100
AcDbLine
10
276.015
20
-68.015
11
289.985
21
-68.015
0
LINE
5
1DB
100
AcDbEntity
8
BLACK
6
ByLayer
62
256
370
-1
100
AcDbLine
10
289.985
20
-68.015
11
289.985
21
-68.9954
0
LINE
5
1DC
100
AcDbEntity
8
BLACK
6
ByLayer
62
256
370
-1
100
AcDbLine
10
289.985
20
-68.9954
11
290.798
21
-68.9954
0
LINE
5
1DD
100
AcDbEntity
8
BLACK
6
ByLayer
62
256
370
-1
100
AcDbLine
10
290.798
20
-68.9954
11
290.798
21
-72.4956
0
LINE
5
1DE
100
AcDbEntity
8
BLACK
6
ByLayer
62
256
370
-1
100
AcDbLine
10
290.798
20
-72.4956
11
289.985
21
-72.4956
0
LINE
5
1DF
100
AcDbEntity
8
BLACK
6
ByLayer
62
256
370
-1
100
AcDbLine
10
289.985
20
-72.4956
11
289.985
21
-77.5044
0
LINE
5
1E0
100
AcDbEntity
8
BLACK
6
ByLayer
62
256
370
-1
100
AcDbLine
10
289.985
20
-77.5044
11
290.798
21
-77.5044
0
LINE
5
1E1
100
AcDbEntity
8
BLACK
6
ByLayer
62
256
370
-1
100
AcDbLine
10
290.798
20
-77.5044
11
290.798
21
-81.0046
0
LINE
5
1E2
100
AcDbEntity
8
BLACK
6
ByLayer
62
256
370
-1
100
AcDbLine
10
290.798
20
-81.0046
11
289.985
21
-81.0046
0
LINE
5
1E3
100
AcDbEntity
8
BLACK
6
ByLayer
62
256
370
-1
100
AcDbLine
10
289.985
20
-81.0046
11
289.985
21
-81.985
0
LINE
5
1E4
100
AcDbEntity
8
BLACK
6
ByLayer
62
256
370
-1
100
AcDbLine
10
289.985
20
-81.985
11
276.015
21
-81.985
0
LINE
5
1E5
100
AcDbEntity
8
BLACK
6
ByLayer
62
256
370
-1
100
AcDbLine
10
276.015
20
-81.985
11
276.015
21
-81.0046
0
LINE
5
1E6
100
AcDbEntity
8
BLACK
6
ByLayer
62
256
370
-1
100
AcDbLine
10
276.015
20
-81.0046
11
275.202
21
-81.0046
0
LINE
5
1E7
100
AcDbEntity
8
BLACK
6
ByLayer
62
256
370
-1
100
AcDbLine
10
275.202
20
-81.0046
11
275.202
21
-77.5044
0
LINE
5
1E8
100
AcDbEntity
8
BLACK
6
ByLayer
62
256
370
-1
100
AcDbLine
10
275.202
20
-77.5044
11
276.015
21
-77.5044
0
LINE
5
1E9
100
AcDbEntity
8
BLACK
6
ByLayer
62
256
370
-1
100
AcDbLine
10
276.015
20
-77.5044
11
276.015
21
-72.4956
0
LINE
5
1EA
100
AcDbEntity
8
BLACK
6
ByLayer
62
256
370
-1
100
AcDbLine
10
276.015
20
-72.4956
11
275.202
21
-72.4956
0
LINE
5
1EB
100
AcDbEntity
8
BLACK
6
ByLayer
62
256
370
-1
100
AcDbLine
10
275.202
20
-72.4956
11
275.202
21
-68.9954
0
LINE
5
1EC
100
AcDbEntity
8
BLACK
6
ByLayer
62
256
370
-1
100
AcDbLine
10
275.202
20
-68.9954
11
276.015
21
-68.9954
0
LINE
5
1ED
100
AcDbEntity
8
BLACK
6
ByLayer
62
256
370
-1
100
AcDbLine
10
276.015
20
-68.9954
11
276.015
21
-68.015
0
LINE
5
1EE
100
AcDbEntity
8
BLACK
6
ByLayer
62
256
370
-1
100
AcDbLine
10
322.015
20
-128.015
11
335.985
21
-128.015
0
LINE
5
1EF
100
AcDbEntity
8
BLACK
6
ByLayer
62
256
370
-1
100
AcDbLine
10
335.985
20
-128.015
11
335.985
21
-128.995
0
LINE
5
1F0
100
AcDbEntity
8
BLACK
6
ByLayer
62
256
370
-1
100
AcDbLine
10
335.985
20
-128.995
11
336.798
21
-128.995
0
LINE
5
1F1
100
AcDbEntity
8
BLACK
6
ByLayer
62
256
370
-1
100
AcDbLine
10
336.798
20
-128.995
11
336.798
21
-132.496
0
LINE
5
1F2
100
AcDbEntity
8
BLACK
6
ByLayer
62
256
370
-1
100
AcDbLine
10
336.798
20
-132.496
11
335.985
21
-132.496
0
LINE
5
1F3
100
AcDbEntity
8
BLACK
6
ByLayer
62
256
370
-1
100
AcDbLine
10
335.985
20
-132.496
11
335.985
21
-137.504
0
LINE
5
1F4
100
AcDbEntity
8
BLACK
6
ByLayer
62
256
370
-1
100
AcDbLine
10
335.985
20
-137.504
11
336.798
21
-137.504
0
LINE
5
1F5
100
AcDbEntity
8
BLACK
6
ByLayer
62
256
370
-1
100
AcDbLine
10
336.798
20
-137.504
11
336.798
21
-141.005
0
LINE
5
1F6
100
AcDbEntity
8
BLACK
6
ByLayer
62
256
370
-1
100
AcDbLine
10
336.798
20
-141.005
11
335.985
21
-141.005
0
LINE
5
1F7
100
AcDbEntity
8
BLACK
6
ByLayer
62
256
370
-1
100
AcDbLine
10
335.985
20
-141.005
11
335.985
21
-141.985
0
LINE
5
1F8
100
AcDbEntity
8
BLACK
6
ByLayer
62
256
370
-1
100
AcDbLine
10
335.985
20
-141.985
11
322.015
21
-141.985
0
LINE
5
1F9
100
AcDbEntity
8
BLACK
6
ByLayer
62
256
370
-1
100
AcDbLine
10
322.015
20
-141.985
11
322.015
21
-141.005
0
LINE
5
1FA
100
AcDbEntity
8
BLACK
6
ByLayer
62
256
370
-1
100
AcDbLine
10
322.015
20
-141.005
11
321.202
21
-141.005
0
LINE
5
1FB
100
AcDbEntity
8
BLACK
6
ByLayer
62
256
370
-1
100
AcDbLine
10
321.202
20
-141.005
11
321.202
21
-137.504
0
LINE
5
1FC
100
AcDbEntity
8
BLACK
6
ByLayer
62
256
370
-1
100
AcDbLine
10
321.202
20
-137.504
11
322.015
21
-137.504
0
LINE
5
1FD
100
AcDbEntity
8
BLACK
6
ByLayer
62
256
370
-1
100
AcDbLine
10
322.015
20
-137.504
11
322.015
21
-132.496
0
LINE
5
1FE
100
AcDbEntity
8
BLACK
6
ByLayer
62
256
370
-1
100
AcDbLine
10
322.015
20
-132.496
11
321.202
21
-132.496
0
LINE
5
1FF
100
AcDbEntity
8
BLACK
6
ByLayer
62
256
370
-1
100
AcDbLine
10
321.202
20
-132.496
11
321.202
21
-128.995
0
LINE
5
200
100
AcDbEntity
8
BLACK
6
ByLayer
62
256
370
-1
100
AcDbLine
10
321.202
20
-128.995
11
322.015
21
-128.995
0
LINE
5
201
100
AcDbEntity
8
BLACK
6
ByLayer
62
256
370
-1
100
AcDbLine
10
322.015
20
-128.995
11
322.015
21
-128.015
0
LINE
5
202
100
AcDbEntity
8
BLACK
6
ByLayer
62
256
370
-1
100
AcDbLine
10
320.015
20
-108.015
11
333.985
21
-108.015
0
LINE
5
203
100
AcDbEntity
8
BLACK
6
ByLayer
62
256
370
-1
100
AcDbLine
10
333.985
20
-108.015
11
333.985
21
-108.995
0
LINE
5
204
100
AcDbEntity
8
BLACK
6
ByLayer
62
256
370
-1
100
AcDbLine
10
333.985
20
-108.995
11
334.798
21
-108.995
0
LINE
5
205
100
AcDbEntity
8
BLACK
6
ByLayer
62
256
370
-1
100
AcDbLine
10
334.798
20
-108.995
11
334.798
21
-112.496
0
LINE
5
206
100
AcDbEntity
8
BLACK
6
ByLayer
62
256
370
-1
100
AcDbLine
10
334.798
20
-112.496
11
333.985
21
-112.496
0
LINE
5
207
100
AcDbEntity
8
BLACK
6
ByLayer
62
256
370
-1
100
AcDbLine
10
333.985
20
-112.496
11
333.985
21
-117.504
0
LINE
5
208
100
AcDbEntity
8
BLACK
6
ByLayer
62
256
370
-1
100
AcDbLine
10
333.985
20
-117.504
11
334.798
21
-117.504
0
LINE
5
209
100
AcDbEntity
8
BLACK
6
ByLayer
62
256
370
-1
100
AcDbLine
10
334.798
20
-117.504
11
334.798
21
-121.005
0
LINE
5
20A
100
AcDbEntity
8
BLACK
6
ByLayer
62
256
370
-1
100
AcDbLine
10
334.798
20
-121.005
11
333.985
21
-121.005
0
LINE
5
20B
100
AcDbEntity
8
BLACK
6
ByLayer
62
256
370
-1
100
AcDbLine
10
333.985
20
-121.005
11
333.985
21
-121.985
0
LINE
5
20C
100
AcDbEntity
8
BLACK
6
ByLayer
62
256
370
-1
100
AcDbLine
10
333.985
20
-121.985
11
320.015
21
-121.985
0
LINE
5
20D
100
AcDbEntity
8
BLACK
6
ByLayer
62
256
370
-1
100
AcDbLine
10
320.015
20
-121.985
11
320.015
21
-121.005
0
LINE
5
20E
100
AcDbEntity
8
BLACK
6
ByLayer
62
256
370
-1
100
AcDbLine
10
320.015
20
-121.005
11
319.202
21
-121.005
0
LINE
5
20F
100
AcDbEntity
8
BLACK
6
ByLayer
62
256
370
-1
100
AcDbLine
10
319.202
20
-121.005
11
319.202
21
-117.504
0
LINE
5
210
100
AcDbEntity
8
BLACK
6
ByLayer
62
256
370
-1
100
AcDbLine
10
319.202
20
-117.504
11
320.015
21
-117.504
0
LINE
5
211
100
AcDbEntity
8
BLACK
6
ByLayer
62
256
370
-1
100
AcDbLine
10
320.015
20
-117.504
11
320.015
21
-112.496
0
LINE
5
212
100
AcDbEntity
8
BLACK
6
ByLayer
62
256
370
-1
100
AcDbLine
10
320.015
20
-112.496
11
319.202
21
-112.496
0
LINE
5
213
100
AcDbEntity
8
BLACK
6
ByLayer
62
256
370
-1
100
AcDbLine
10
319.202
20
-112.496
11
319.202
21
-108.995
0
LINE
5
214
100
AcDbEntity
8
BLACK
6
ByLayer
62
256
370
-1
100
AcDbLine
10
319.202
20
-108.995
11
320.015
21
-108.995
0
LINE
5
215
100
AcDbEntity
8
BLACK
6
ByLayer
62
256
370
-1
100
AcDbLine
10
320.015
20
-108.995
11
320.015
21
-108.015
0
LINE
5
216
100
AcDbEntity
8
BLACK
6
ByLayer
62
256
370
-1
100
AcDbLine
10
298.015
20
-88.015
11
311.985
21
-88.015
0
LINE
5
217
100
AcDbEntity
8
BLACK
6
ByLayer
62
256
370
-1
100
AcDbLine
10
311.985
20
-88.015
11
311.985
21
-88.9954
0
LINE
5
218
100
AcDbEntity
8
BLACK
6
ByLayer
62
256
370
-1
100
AcDbLine
10
311.985
20
-88.9954
11
312.798
21
-88.9954
0
LINE
5
219
100
AcDbEntity
8
BLACK
6
ByLayer
62
256
370
-1
100
AcDbLine
10
312.798
20
-88.9954
11
312.798
21
-92.4956
0
LINE
5
21A
100
AcDbEntity
8
BLACK
6
ByLayer
62
256
370
-1
100
AcDbLine
10
312.798
20
-92.4956
11
311.985
21
-92.4956
0
LINE
5
21B
100
AcDbEntity
8
BLACK
6
ByLayer
62
256
370
-1
100
AcDbLine
10
311.985
20
-92.4956
11
311.985
21
-97.5044
0
LINE
5
21C
100
AcDbEntity
8
BLACK
6
ByLayer
62
256
370
-1
100
AcDbLine
10
311.985
20
-97.5044
11
312.798
21
-97.5044
0
LINE
5
21D
100
AcDbEntity
8
BLACK
6
ByLayer
62
256
370
-1
100
AcDbLine
10
312.798
20
-97.5044
11
312.798
21
-101.005
0
LINE
5
21E
100
AcDbEntity
8
BLACK
6
ByLayer
62
256
370
-1
100
AcDbLine
10
312.798
20
-101.005
11
311.985
21
-101.005
0
LINE
5
21F
100
AcDbEntity
8
BLACK
6
ByLayer
62
256
370
-1
100
AcDbLine
10
311.985
20
-101.005
11
311.985
21
-101.985
0
LINE
5
220
100
AcDbEntity
8
BLACK
6
ByLayer
62
256
370
-1
100
AcDbLine
10
311.985
20
-101.985
11
298.015
21
-101.985
0
LINE
5
221
100
AcDbEntity
8
BLACK
6
ByLayer
62
256
370
-1
100
AcDbLine
10
298.015
20
-101.985
11
298.015
21
-101.005
0
LINE
5
222
100
AcDbEntity
8
BLACK
6
ByLayer
62
256
370
-1
100
AcDbLine
10
298.015
20
-101.005
11
297.202
21
-101.005
0
LINE
5
223
100
AcDbEntity
8
BLACK
6
ByLayer
62
256
370
-1
100
AcDbLine
10
297.202
20
-101.005
11
297.202
21
-97.5044
0
LINE
5
224
100
AcDbEntity
8
BLACK
6
ByLayer
62
256
370
-1
100
AcDbLine
10
297.202
20
-97.5044
11
298.015
21
-97.5044
0
LINE
5
225
100
AcDbEntity
8
BLACK
6
ByLayer
62
256
370
-1
100
AcDbLine
10
298.015
20
-97.5044
11
298.015
21
-92.4956
0
LINE
5
226
100
AcDbEntity
8
BLACK
6
ByLayer
62
256
370
-1
100
AcDbLine
10
298.015
20
-92.4956
11
297.202
21
-92.4956
0
LINE
5
227
100
AcDbEntity
8
BLACK
6
ByLayer
62
256
370
-1
100
AcDbLine
10
297.202
20
-92.4956
11
297.202
21
-88.9954
0
LINE
5
228
100
AcDbEntity
8
BLACK
6
ByLayer
62
256
370
-1
100
AcDbLine
10
297.202
20
-88.9954
11
298.015
21
-88.9954
0
LINE
5
229
100
AcDbEntity
8
BLACK
6
ByLayer
62
256
370
-1
100
AcDbLine
10
298.015
20
-88.9954
11
298.015
21
-88.015
0
LINE
5
22A
100
AcDbEntity
8
BLACK
6
ByLayer
62
256
370
-1
100
AcDbLine
10
260.015
20
-108.015
11
273.985
21
-108.015
0
LINE
5
22B
100
AcDbEntity
8
BLACK
6
ByLayer
62
256
370
-1
100
AcDbLine
10
273.985
20
-108.015
11
273.985
21
-108.995
0
LINE
5
22C
100
AcDbEntity
8
BLACK
6
ByLayer
62
256
370
-1
100
AcDbLine
10
273.985
20
-108.995
11
274.798
21
-108.995
0
LINE
5
22D
100
AcDbEntity
8
BLACK
6
ByLayer
62
256
370
-1
100
AcDbLine
10
274.798
20
-108.995
11
274.798
21
-112.496
0
LINE
5
22E
100
AcDbEntity
8
BLACK
6
ByLayer
62
256
370
-1
100
AcDbLine
10
274.798
20
-112.496
11
273.985
21
-112.496
0
LINE
5
22F
100
AcDbEntity
8
BLACK
6
ByLayer
62
256
370
-1
100
AcDbLine
10
273.985
20
-112.496
11
273.985
21
-117.504
0
LINE
5
230
100
AcDbEntity
8
BLACK
6
ByLayer
62
256
370
-1
100
AcDbLine
10
273.985
20
-117.504
11
274.798
21
-117.504
0
LINE
5
231
100
AcDbEntity
8
BLACK
6
ByLayer
62
256
370
-1
100
AcDbLine
10
274.798
20
-117.504
11
274.798
21
-121.005
0
LINE
5
232
100
AcDbEntity
8
BLACK
6
ByLayer
62
256
370
-1
100
AcDbLine
10
274.798
20
-121.005
11
273.985
21
-121.005
0
LINE
5
233
100
AcDbEntity
8
BLACK
6
ByLayer
62
256
370
-1
100
AcDbLine
10
273.985
20
-121.005
11
273.985
21
-121.985
0
LINE
5
234
100
AcDbEntity
8
BLACK
6
ByLayer
62
256
370
-1
100
AcDbLine
10
273.985
20
-121.985
11
260.015
21
-121.985
0
LINE
5
235
100
AcDbEntity
8
BLACK
6
ByLayer
62
256
370
-1
100
AcDbLine
10
260.015
20
-121.985
11
260.015
21
-121.005
0
LINE
5
236
100
AcDbEntity
8
BLACK
6
ByLayer
62
256
370
-1
100
AcDbLine
10
260.015
20
-121.005
11
259.202
21
-121.005
0
LINE
5
237
100
AcDbEntity
8
BLACK
6
ByLayer
62
256
370
-1
100
AcDbLine
10
259.202
20
-121.005
11
259.202
21
-117.504
0
LINE
5
238
100
AcDbEntity
8
BLACK
6
ByLayer
62
256
370
-1
100
AcDbLine
10
259.202
20
-117.504
11
260.015
21
-117.504
0
LINE
5
239
100
AcDbEntity
8
BLACK
6
ByLayer
62
256
370
-1
100
AcDbLine
10
260.015
20
-117.504
11
260.015
21
-112.496
0
LINE
5
23A
100
AcDbEntity
8
BLACK
6
ByLayer
62
256
370
-1
100
AcDbLine
10
260.015
20
-112.496
11
259.202
21
-112.496
0
LINE
5
23B
100
AcDbEntity
8
BLACK
6
ByLayer
62
256
370
-1
100
AcDbLine
10
259.202
20
-112.496
11
259.202
21
-108.995
0
LINE
5
23C
100
AcDbEntity
8
BLACK
6
ByLayer
62
256
370
-1
100
AcDbLine
10
259.202
20
-108.995
11
260.015
21
-108.995
0
LINE
5
23D
100
AcDbEntity
8
BLACK
6
ByLayer
62
256
370
-1
100
AcDbLine
10
260.015
20
-108.995
11
260.015
21
-108.015
0
LINE
5
23E
100
AcDbEntity
8
BLACK
6
ByLayer
62
256
370
-1
100
AcDbLine
10
318.015
20
-88.015
11
331.985
21
-88.015
0
LINE
5
23F
100
AcDbEntity
8
BLACK
6
ByLayer
62
256
370
-1
100
AcDbLine
10
331.985
20
-88.015
11
331.985
21
-88.9954
0
LINE
5
240
100
AcDbEntity
8
BLACK
6
ByLayer
62
256
370
-1
100
AcDbLine
10
331.985
20
-88.9954
11
332.798
21
-88.9954
0
LINE
5
241
100
AcDbEntity
8
BLACK
6
ByLayer
62
256
370
-1
100
AcDbLine
10
332.798
20
-88.9954
11
332.798
21
-92.4956
0
LINE
5
242
100
AcDbEntity
8
BLACK
6
ByLayer
62
256
370
-1
100
AcDbLine
10
332.798
20
-92.4956
11
331.985
21
-92.4956
0
LINE
5
243
100
AcDbEntity
8
BLACK
6
ByLayer
62
256
370
-1
100
AcDbLine
10
331.985
20
-92.4956
11
331.985
21
-97.5044
0
LINE
5
244
100
AcDbEntity
8
BLACK
6
ByLayer
62
256
370
-1
100
AcDbLine
10
331.985
20
-97.5044
11
332.798
21
-97.5044
0
LINE
5
245
100
AcDbEntity
8
BLACK
6
ByLayer
62
256
370
-1
100
AcDbLine
10
332.798
20
-97.5044
11
332.798
21
-101.005
0
LINE
5
246
100
AcDbEntity
8
BLACK
6
ByLayer
62
256
370
-1
100
AcDbLine
10
332.798
20
-101.005
11
331.985
21
-101.005
0
LINE
5
247
100
AcDbEntity
8
BLACK
6
ByLayer
62
256
370
-1
100
AcDbLine
10
331.985
20
-101.005
11
331.985
21
-101.985
0
LINE
5
248
100
AcDbEntity
8
BLACK
6
ByLayer
62
256
370
-1
100
AcDbLine
10
331.985
20
-101.985
11
318.015
21
-101.985
0
LINE
5
249
100
AcDbEntity
8
BLACK
6
ByLayer
62
256
370
-1
100
AcDbLine
10
318.015
20
-101.985
11
318.015
21
-101.005
0
LINE
5
24A
100
AcDbEntity
8
BLACK
6
ByLayer
62
256
370
-1
100
AcDbLine
10
318.015
20
-101.005
11
317.202
21
-101.005
0
LINE
5
24B
100
AcDbEntity
8
BLACK
6
ByLayer
62
256
370
-1
100
AcDbLine
10
317.202
20
-101.005
11
317.202
21
-97.5044
0
LINE
5
24C
100
AcDbEntity
8
BLACK
6
ByLayer
62
256
370
-1
100
AcDbLine
10
317.202
20
-97.5044
11
318.015
21
-97.5044
0
LINE
5
24D
100
AcDbEntity
8
BLACK
6
ByLayer
62
256
370
-1
100
AcDbLine
10
318.015
20
-97.5044
11
318.015
21
-92.4956
0
LINE
5
24E
100
AcDbEntity
8
BLACK
6
ByLayer
62
256
370
-1
100
AcDbLine
10
318.015
20
-92.4956
11
317.202
21
-92.4956
0
LINE
5
24F
100
AcDbEntity
8
BLACK
6
ByLayer
62
256
370
-1
100
AcDbLine
10
317.202
20
-92.4956
11
317.202
21
-88.9954
0
LINE
5
250
100
AcDbEntity
8
BLACK
6
ByLayer
62
256
370
-1
100
AcDbLine
10
317.202
20
-88.9954
11
318.015
21
-88.9954
0
LINE
5
251
100
AcDbEntity
8
BLACK
6
ByLayer
62
256
370
-1
100
AcDbLine
10
318.015
20
-88.9954
11
318.015
21
-88.015
0
LINE
5
252
100
AcDbEntity
8
BLACK
6
ByLayer
62
256
370
-1
100
AcDbLine
10
316.015
20
-68.015
11
329.985
21
-68.015
0
LINE
5
253
100
AcDbEntity
8
BLACK
6
ByLayer
62
256
370
-1
100
AcDbLine
10
329.985
20
-68.015
11
329.985
21
-68.9954
0
LINE
5
254
100
AcDbEntity
8
BLACK
6
ByLayer
62
256
370
-1
100
AcDbLine
10
329.985
20
-68.9954
11
330.798
21
-68.9954
0
LINE
5
255
100
AcDbEntity
8
BLACK
6
ByLayer
62
256
370
-1
100
AcDbLine
10
330.798
20
-68.9954
11
330.798
21
-72.4956
0
LINE
5
256
100
AcDbEntity
8
BLACK
6
ByLayer
62
256
370
-1
100
AcDbLine
10
330.798
20
-72.4956
11
329.985
21
-72.4956
0
LINE
5
257
100
AcDbEntity
8
BLACK
6
ByLayer
62
256
370
-1
100
AcDbLine
10
329.985
20
-72.4956
11
329.985
21
-77.5044
0
LINE
5
258
100
AcDbEntity
8
BLACK
6
ByLayer
62
256
370
-1
100
AcDbLine
10
329.985
20
-77.5044
11
330.798
21
-77.5044
0
LINE
5
259
100
AcDbEntity
8
BLACK
6
ByLayer
62
256
370
-1
100
AcDbLine
10
330.798
20
-77.5044
11
330.798
21
-81.0046
0
LINE
5
25A
100
AcDbEntity
8
BLACK
6
ByLayer
62
256
370
-1
100
AcDbLine
10
330.798
20
-81.0046
11
329.985
21
-81.0046
0
LINE
5
25B
100
AcDbEntity
8
BLACK
6
ByLayer
62
256
370
-1
100
AcDbLine
10
329.985
20
-81.0046
11
329.985
21
-81.985
0
LINE
5
25C
100
AcDbEntity
8
BLACK
6
ByLayer
62
256
370
-1
100
AcDbLine
10
329.985
20
-81.985
11
316.015
21
-81.985
0
LINE
5
25D
100
AcDbEntity
8
BLACK
6
ByLayer
62
256
370
-1
100
AcDbLine
10
316.015
20
-81.985
11
316.015
21
-81.0046
0
LINE
5
25E
100
AcDbEntity
8
BLACK
6
ByLayer
62
256
370
-1
100
AcDbLine
10
316.015
20
-81.0046
11
315.202
21
-81.0046
0
LINE
5
25F
100
AcDbEntity
8
BLACK
6
ByLayer
62
256
370
-1
100
AcDbLine
10
315.202
20
-81.0046
11
315.202
21
-77.5044
0
LINE
5
260
100
AcDbEntity
8
BLACK
6
ByLayer
62
256
370
-1
100
AcDbLine
10
315.202
20
-77.5044
11
316.015
21
-77.5044
0
LINE
5
261
100
AcDbEntity
8
BLACK
6
ByLayer
62
256
370
-1
100
AcDbLine
10
316.015
20
-77.5044
11
316.015
21
-72.4956
0
LINE
5
262
100
AcDbEntity
8
BLACK
6
ByLayer
62
256
370
-1
100
AcDbLine
10
316.015
20
-72.4956
11
315.202
21
-72.4956
0
LINE
5
263
100
AcDbEntity
8
BLACK
6
ByLayer
62
256
370
-1
100
AcDbLine
10
315.202
20
-72.4956
11
315.202
21
-68.9954
0
LINE
5
264
100
AcDbEntity
8
BLACK
6
ByLayer
62
256
370
-1
100
AcDbLine
10
315.202
20
-68.9954
11
316.015
21
-68.9954
0
LINE
5
265
100
AcDbEntity
8
BLACK
6
ByLayer
62
256
370
-1
100
AcDbLine
10
316.015
20
-68.9954
11
316.015
21
-68.015
0
LINE
5
266
100
AcDbEntity
8
BLACK
6
ByLayer
62
256
370
-1
100
AcDbLine
10
338.015
20
-88.015
11
351.985
21
-88.015
0
LINE
5
267
100
AcDbEntity
8
BLACK
6
ByLayer
62
256
370
-1
100
AcDbLine
10
351.985
20
-88.015
11
351.985
21
-88.9954
0
LINE
5
268
100
AcDbEntity
8
BLACK
6
ByLayer
62
256
370
-1
100
AcDbLine
10
351.985
20
-88.9954
11
352.798
21
-88.9954
0
LINE
5
269
100
AcDbEntity
8
BLACK
6
ByLayer
62
256
370
-1
100
AcDbLine
10
352.798
20
-88.9954
11
352.798
21
-92.4956
0
LINE
5
26A
100
AcDbEntity
8
BLACK
6
ByLayer
62
256
370
-1
100
AcDbLine
10
352.798
20
-92.4956
11
351.985
21
-92.4956
0
LINE
5
26B
100
AcDbEntity
8
BLACK
6
ByLayer
62
256
370
-1
100
AcDbLine
10
351.985
20
-92.4956
11
351.985
21
-97.5044
0
LINE
5
26C
100
AcDbEntity
8
BLACK
6
ByLayer
62
256
370
-1
100
AcDbLine
10
351.985
20
-97.5044
11
352.798
21
-97.5044
0
LINE
5
26D
100
AcDbEntity
8
BLACK
6
ByLayer
62
256
370
-1
100
AcDbLine
10
352.798
20
-97.5044
11
352.798
21
-101.005
0
LINE
5
26E
100
AcDbEntity
8
BLACK
6
ByLayer
62
256
370
-1
100
AcDbLine
10
352.798
20
-101.005
11
351.985
21
-101.005
0
LINE
5
26F
100
AcDbEntity
8
BLACK
6
ByLayer
62
256
370
-1
100
AcDbLine
10
351.985
20
-101.005
11
351.985
21
-101.985
0
LINE
5
270
100
AcDbEntity
8
BLACK
6
ByLayer
62
256
370
-1
100
AcDbLine
10
351.985
20
-101.985
11
338.015
21
-101.985
0
LINE
5
271
100
AcDbEntity
8
BLACK
6
ByLayer
62
256
370
-1
100
AcDbLine
10
338.015
20
-101.985
11
338.015
21
-101.005
0
LINE
5
272
100
AcDbEntity
8
BLACK
6
ByLayer
62
256
370
-1
100
AcDbLine
10
338.015
20
-101.005
11
337.202
21
-101.005
0
LINE
5
273
100
AcDbEntity
8
BLACK
6
ByLayer
62
256
370
-1
100
AcDbLine
10
337.202
20
-101.005
11
337.202
21
-97.5044
0
LINE
5
274
100
AcDbEntity
8
BLACK
6
ByLayer
62
256
370
-1
100
AcDbLine
10
337.202
20
-97.5044
11
338.015
21
-97.5044
0
LINE
5
275
100
AcDbEntity
8
BLACK
6
ByLayer
62
256
370
-1
100
AcDbLine
10
338.015
20
-97.5044
11
338.015
21
-92.4956
0
LINE
5
276
100
AcDbEntity
8
BLACK
6
ByLayer
62
256
370
-1
100
AcDbLine
10
338.015
20
-92.4956
11
337.202
21
-92.4956
0
LINE
5
277
100
AcDbEntity
8
BLACK
6
ByLayer
62
256
370
-1
100
AcDbLine
10
337.202
20
-92.4956
11
337.202
21
-88.9954
0
LINE
5
278
100
AcDbEntity
8
BLACK
6
ByLayer
62
256
370
-1
100
AcDbLine
10
337.202
20
-88.9954
11
338.015
21
-88.9954
0
LINE
5
279
100
AcDbEntity
8
BLACK
6
ByLayer
62
256
370
-1
100
AcDbLine
10
338.015
20
-88.9954
11
338.015
21
-88.015
0
LINE
5
27A
100
AcDbEntity
8
BLACK
6
ByLayer
62
256
370
-1
100
AcDbLine
10
336.015
20
-68.015
11
349.985
21
-68.015
0
LINE
5
27B
100
AcDbEntity
8
BLACK
6
ByLayer
62
256
370
-1
100
AcDbLine
10
349.985
20
-68.015
11
349.985
21
-68.9954
0
LINE
5
27C
100
AcDbEntity
8
BLACK
6
ByLayer
62
256
370
-1
100
AcDbLine
10
349.985
20
-68.9954
11
350.798
21
-68.9954
0
LINE
5
27D
100
AcDbEntity
8
BLACK
6
ByLayer
62
256
370
-1
100
AcDbLine
10
350.798
20
-68.9954
11
350.798
21
-72.4956
0
LINE
5
27E
100
AcDbEntity
8
BLACK
6
ByLayer
62
256
370
-1
100
AcDbLine
10
350.798
20
-72.4956
11
349.985
21
-72.4956
0
LINE
5
27F
100
AcDbEntity
8
BLACK
6
ByLayer
62
256
370
-1
100
AcDbLine
10
349.985
20
-72.4956
11
349.985
21
-77.5044
0
LINE
5
280
100
AcDbEntity
8
BLACK
6
ByLayer
62
256
370
-1
100
AcDbLine
10
349.985
20
-77.5044
11
350.798
21
-77.5044
0
LINE
5
281
100
AcDbEntity
8
BLACK
6
ByLayer
62
256
370
-1
100
AcDbLine
10
350.798
20
-77.5044
11
350.798
21
-81.0046
0
LINE
5
282
100
AcDbEntity
8
BLACK
6
ByLayer
62
256
370
-1
100
AcDbLine
10
350.798
20
-81.0046
11
349.985
21
-81.0046
0
LINE
5
283
100
AcDbEntity
8
BLACK
6
ByLayer
62
256
370
-1
100
AcDbLine
10
349.985
20
-81.0046
11
349.985
21
-81.985
0
LINE
5
284
100
AcDbEntity
8
BLACK
6
ByLayer
62
256
370
-1
100
AcDbLine
10
349.985
20
-81.985
11
336.015
21
-81.985
0
LINE
5
285
100
AcDbEntity
8
BLACK
6
ByLayer
62
256
370
-1
100
AcDbLine
10
336.015
20
-81.985
11
336.015
21
-81.0046
0
LINE
5
286
100
AcDbEntity
8
BLACK
6
ByLayer
62
256
370
-1
100
AcDbLine
10
336.015
20
-81.0046
11
335.202
21
-81.0046
0
LINE
5
287
100
AcDbEntity
8
BLACK
6
ByLayer
62
256
370
-1
100
AcDbLine
10
335.202
20
-81.0046
11
335.202
21
-77.5044
0
LINE
5
288
100
AcDbEntity
8
BLACK
6
ByLayer
62
256
370
-1
100
AcDbLine
10
335.202
20
-77.5044
11
336.015
21
-77.5044
0
LINE
5
289
100
AcDbEntity
8
BLACK
6
ByLayer
62
256
370
-1
100
AcDbLine
10
336.015
20
-77.5044
11
336.015
21
-72.4956
0
LINE
5
28A
100
AcDbEntity
8
BLACK
6
ByLayer
62
256
370
-1
100
AcDbLine
10
336.015
20
-72.4956
11
335.202
21
-72.4956
0
LINE
5
28B
100
AcDbEntity
8
BLACK
6
ByLayer
62
256
370
-1
100
AcDbLine
10
335.202
20
-72.4956
11
335.202
21
-68.9954
0
LINE
5
28C
100
AcDbEntity
8
BLACK
6
ByLayer
62
256
370
-1
100
AcDbLine
10
335.202
20
-68.9954
11
336.015
21
-68.9954
0
LINE
5
28D
100
AcDbEntity
8
BLACK
6
ByLayer
62
256
370
-1
100
AcDbLine
10
336.015
20
-68.9954
11
336.015
21
-68.015
0
LINE
5
28E
100
AcDbEntity
8
BLACK
6
ByLayer
62
256
370
-1
100
AcDbLine
10
356.015
20
-68.015
11
369.985
21
-68.015
0
LINE
5
28F
100
AcDbEntity
8
BLACK
6
ByLayer
62
256
370
-1
100
AcDbLine
10
369.985
20
-68.015
11
369.985
21
-68.9954
0
LINE
5
290
100
AcDbEntity
8
BLACK
6
ByLayer
62
256
370
-1
100
AcDbLine
10
369.985
20
-68.9954
11
370.798
21
-68.9954
0
LINE
5
291
100
AcDbEntity
8
BLACK
6
ByLayer
62
256
370
-1
100
AcDbLine
10
370.798
20
-68.9954
11
370.798
21
-72.4956
0
LINE
5
292
100
AcDbEntity
8
BLACK
6
ByLayer
62
256
370
-1
100
AcDbLine
10
370.798
20
-72.4956
11
369.985
21
-72.4956
0
LINE
5
293
100
AcDbEntity
8
BLACK
6
ByLayer
62
256
370
-1
100
AcDbLine
10
369.985
20
-72.4956
11
369.985
21
-77.5044
0
LINE
5
294
100
AcDbEntity
8
BLACK
6
ByLayer
62
256
370
-1
100
AcDbLine
10
369.985
20
-77.5044
11
370.798
21
-77.5044
0
LINE
5
295
100
AcDbEntity
8
BLACK
6
ByLayer
62
256
370
-1
100
AcDbLine
10
370.798
20
-77.5044
11
370.798
21
-81.0046
0
LINE
5
296
100
AcDbEntity
8
BLACK
6
ByLayer
62
256
370
-1
100
AcDbLine
10
370.798
20
-81.0046
11
369.985
21
-81.0046
0
LINE
5
297
100
AcDbEntity
8
BLACK
6
ByLayer
62
256
370
-1
100
AcDbLine
10
369.985
20
-81.0046
11
369.985
21
-81.985
0
LINE
5
298
100
AcDbEntity
8
BLACK
6
ByLayer
62
256
370
-1
100
AcDbLine
10
369.985
20
-81.985
11
356.015
21
-81.985
0
LINE
5
299
100
AcDbEntity
8
BLACK
6
ByLayer
62
256
370
-1
100
AcDbLine
10
356.015
20
-81.985
11
356.015
21
-81.0046
0
LINE
5
29A
100
AcDbEntity
8
BLACK
6
ByLayer
62
256
370
-1
100
AcDbLine
10
356.015
20
-81.0046
11
355.202
21
-81.0046
0
LINE
5
29B
100
AcDbEntity
8
BLACK
6
ByLayer
62
256
370
-1
100
AcDbLine
10
355.202
20
-81.0046
11
355.202
21
-77.5044
0
LINE
5
29C
100
AcDbEntity
8
BLACK
6
ByLayer
62
256
370
-1
100
AcDbLine
10
355.202
20
-77.5044
11
356.015
21
-77.5044
0
LINE
5
29D
100
AcDbEntity
8
BLACK
6
ByLayer
62
256
370
-1
100
AcDbLine
10
356.015
20
-77.5044
11
356.015
21
-72.4956
0
LINE
5
29E
100
AcDbEntity
8
BLACK
6
ByLayer
62
256
370
-1
100
AcDbLine
10
356.015
20
-72.4956
11
355.202
21
-72.4956
0
LINE
5
29F
100
AcDbEntity
8
BLACK
6
ByLayer
62
256
370
-1
100
AcDbLine
10
355.202
20
-72.4956
11
355.202
21
-68.9954
0
LINE
5
2A0
100
AcDbEntity
8
BLACK
6
ByLayer
62
256
370
-1
100
AcDbLine
10
355.202
20
-68.9954
11
356.015
21
-68.9954
0
LINE
5
2A1
100
AcDbEntity
8
BLACK
6
ByLayer
62
256
370
-1
100
AcDbLine
10
356.015
20
-68.9954
11
356.015
21
-68.015
0
LINE
5
2A2
100
AcDbEntity
8
BLACK
6
ByLayer
62
256
370
-1
100
AcDbLine
10
58.015
20
-88.015
11
71.985
21
-88.015
0
LINE
5
2A3
100
AcDbEntity
8
BLACK
6
ByLayer
62
256
370
-1
100
AcDbLine
10
71.985
20
-88.015
11
71.985
21
-88.9954
0
LINE
5
2A4
100
AcDbEntity
8
BLACK
6
ByLayer
62
256
370
-1
100
AcDbLine
10
71.985
20
-88.9954
11
72.7978
21
-88.9954
0
LINE
5
2A5
100
AcDbEntity
8
BLACK
6
ByLayer
62
256
370
-1
100
AcDbLine
10
72.7978
20
-88.9954
11
72.7978
21
-92.4956
0
LINE
5
2A6
100
AcDbEntity
8
BLACK
6
ByLayer
62
256
370
-1
100
AcDbLine
10
72.7978
20
-92.4956
11
71.985
21
-92.4956
0
LINE
5
2A7
100
AcDbEntity
8
BLACK
6
ByLayer
62
256
370
-1
100
AcDbLine
10
71.985
20
-92.4956
11
71.985
21
-97.5044
0
LINE
5
2A8
100
AcDbEntity
8
BLACK
6
ByLayer
62
256
370
-1
100
AcDbLine
10
71.985
20
-97.5044
11
72.7978
21
-97.5044
0
LINE
5
2A9
100
AcDbEntity
8
BLACK
6
ByLayer
62
256
370
-1
100
AcDbLine
10
72.7978
20
-97.5044
11
72.7978
21
-101.005
0
LINE
5
2AA
100
AcDbEntity
8
BLACK
6
ByLayer
62
256
370
-1
100
AcDbLine
10
72.7978
20
-101.005
11
71.985
21
-101.005
0
LINE
5
2AB
100
AcDbEntity
8
BLACK
6
ByLayer
62
256
370
-1
100
AcDbLine
10
71.985
20
-101.005
11
71.985
21
-101.985
0
LINE
5
2AC
100
AcDbEntity
8
BLACK
6
ByLayer
62
256
370
-1
100
AcDbLine
10
71.985
20
-101.985
11
58.015
21
-101.985
0
LINE
5
2AD
100
AcDbEntity
8
BLACK
6
ByLayer
62
256
370
-1
100
AcDbLine
10
58.015
20
-101.985
11
58.015
21
-101.005
0
LINE
5
2AE
100
AcDbEntity
8
BLACK
6
ByLayer
62
256
370
-1
100
AcDbLine
10
58.015
20
-101.005
11
57.2022
21
-101.005
0
LINE
5
2AF
100
AcDbEntity
8
BLACK
6
ByLayer
62
256
370
-1
100
AcDbLine
10
57.2022
20
-101.005
11
57.2022
21
-97.5044
0
LINE
5
2B0
100
AcDbEntity
8
BLACK
6
ByLayer
62
256
370
-1
100
AcDbLine
10
57.2022
20
-97.5044
11
58.015
21
-97.5044
0
LINE
5
2B1
100
AcDbEntity
8
BLACK
6
ByLayer
62
256
370
-1
100
AcDbLine
10
58.015
20
-97.5044
11
58.015
21
-92.4956
0
LINE
5
2B2
100
AcDbEntity
8
BLACK
6
ByLayer
62
256
370
-1
100
AcDbLine
10
58.015
20
-92.4956
11
57.2022
21
-92.4956
0
LINE
5
2B3
100
AcDbEntity
8
BLACK
6
ByLayer
62
256
370
-1
100
AcDbLine
10
57.2022
20
-92.4956
11
57.2022
21
-88.9954
0
LINE
5
2B4
100
AcDbEntity
8
BLACK
6
ByLayer
62
256
370
-1
100
AcDbLine
10
57.2022
20
-88.9954
11
58.015
21
-88.9954
0
LINE
5
2B5
100
AcDbEntity
8
BLACK
6
ByLayer
62
256
370
-1
100
AcDbLine
10
58.015
20
-88.9954
11
58.015
21
-88.015
0
LINE
5
2B6
100
AcDbEntity
8
BLACK
6
ByLayer
62
256
370
-1
100
AcDbLine
10
100.015
20
-68.015
11
113.985
21
-68.015
0
LINE
5
2B7
100
AcDbEntity
8
BLACK
6
ByLayer
62
256
370
-1
100
AcDbLine
10
113.985
20
-68.015
11
113.985
21
-68.9954
0
LINE
5
2B8
100
AcDbEntity
8
BLACK
6
ByLayer
62
256
370
-1
100
AcDbLine
10
113.985
20
-68.9954
11
114.798
21
-68.9954
0
LINE
5
2B9
100
AcDbEntity
8
BLACK
6
ByLayer
62
256
370
-1
100
AcDbLine
10
114.798
20
-68.9954
11
114.798
21
-72.4956
0
LINE
5
2BA
100
AcDbEntity
8
BLACK
6
ByLayer
62
256
370
-1
100
AcDbLine
10
114.798
20
-72.4956
11
113.985
21
-72.4956
0
LINE
5
2BB
100
AcDbEntity
8
BLACK
6
ByLayer
62
256
370
-1
100
AcDbLine
10
113.985
20
-72.4956
11
113.985
21
-77.5044
0
LINE
5
2BC
100
AcDbEntity
8
BLACK
6
ByLayer
62
256
370
-1
100
AcDbLine
10
113.985
20
-77.5044
11
114.798
21
-77.5044
0
LINE
5
2BD
100
AcDbEntity
8
BLACK
6
ByLayer
62
256
370
-1
100
AcDbLine
10
114.798
20
-77.5044
11
114.798
21
-81.0046
0
LINE
5
2BE
100
AcDbEntity
8
BLACK
6
ByLayer
62
256
370
-1
100
AcDbLine
10
114.798
20
-81.0046
11
113.985
21
-81.0046
0
LINE
5
2BF
100
AcDbEntity
8
BLACK
6
ByLayer
62
256
370
-1
100
AcDbLine
10
113.985
20
-81.0046
11
113.985
21
-81.985
0
LINE
5
2C0
100
AcDbEntity
8
BLACK
6
ByLayer
62
256
370
-1
100
AcDbLine
10
113.985
20
-81.985
11
100.015
21
-81.985
0
LINE
5
2C1
100
AcDbEntity
8
BLACK
6
ByLayer
62
256
370
-1
100
AcDbLine
10
100.015
20
-81.985
11
100.015
21
-81.0046
0
LINE
5
2C2
100
AcDbEntity
8
BLACK
6
ByLayer
62
256
370
-1
100
AcDbLine
10
100.015
20
-81.0046
11
99.2022
21
-81.0046
0
LINE
5
2C3
100
AcDbEntity
8
BLACK
6
ByLayer
62
256
370
-1
100
AcDbLine
10
99.2022
20
-81.0046
11
99.2022
21
-77.5044
0
LINE
5
2C4
100
AcDbEntity
8
BLACK
6
ByLayer
62
256
370
-1
100
AcDbLine
10
99.2022
20
-77.5044
11
100.015
21
-77.5044
0
LINE
5
2C5
100
AcDbEntity
8
BLACK
6
ByLayer
62
256
370
-1
100
AcDbLine
10
100.015
20
-77.5044
11
100.015
21
-72.4956
0
LINE
5
2C6
100
AcDbEntity
8
BLACK
6
ByLayer
62
256
370
-1
100
AcDbLine
10
100.015
20
-72.4956
11
99.2022
21
-72.4956
0
LINE
5
2C7
100
AcDbEntity
8
BLACK
6
ByLayer
62
256
370
-1
100
AcDbLine
10
99.2022
20
-72.4956
11
99.2022
21
-68.9954
0
LINE
5
2C8
100
AcDbEntity
8
BLACK
6
ByLayer
62
256
370
-1
100
AcDbLine
10
99.2022
20
-68.9954
11
100.015
21
-68.9954
0
LINE
5
2C9
100
AcDbEntity
8
BLACK
6
ByLayer
62
256
370
-1
100
AcDbLine
10
100.015
20
-68.9954
11
100.015
21
-68.015
0
LINE
5
2CA
100
AcDbEntity
8
BLACK
6
ByLayer
62
256
370
-1
100
AcDbLine
10
80.015
20
-68.015
11
93.985
21
-68.015
0
LINE
5
2CB
100
AcDbEntity
8
BLACK
6
ByLayer
62
256
370
-1
100
AcDbLine
10
93.985
20
-68.015
11
93.985
21
-68.9954
0
LINE
5
2CC
100
AcDbEntity
8
BLACK
6
ByLayer
62
256
370
-1
100
AcDbLine
10
93.985
20
-68.9954
11
94.7978
21
-68.9954
0
LINE
5
2CD
100
AcDbEntity
8
BLACK
6
ByLayer
62
256
370
-1
100
AcDbLine
10
94.7978
20
-68.9954
11
94.7978
21
-72.4956
0
LINE
5
2CE
100
AcDbEntity
8
BLACK
6
ByLayer
62
256
370
-1
100
AcDbLine
10
94.7978
20
-72.4956
11
93.985
21
-72.4956
0
LINE
5
2CF
100
AcDbEntity
8
BLACK
6
ByLayer
62
256
370
-1
100
AcDbLine
10
93.985
20
-72.4956
11
93.985
21
-77.5044
0
LINE
5
2D0
100
AcDbEntity
8
BLACK
6
ByLayer
62
256
370
-1
100
AcDbLine
10
93.985
20
-77.5044
11
94.7978
21
-77.5044
0
LINE
5
2D1
100
AcDbEntity
8
BLACK
6
ByLayer
62
256
370
-1
100
AcDbLine
10
94.7978
20
-77.5044
11
94.7978
21
-81.0046
0
LINE
5
2D2
100
AcDbEntity
8
BLACK
6
ByLayer
62
256
370
-1
100
AcDbLine
10
94.7978
20
-81.0046
11
93.985
21
-81.0046
0
LINE
5
2D3
100
AcDbEntity
8
BLACK
6
ByLayer
62
256
370
-1
100
AcDbLine
10
93.985
20
-81.0046
11
93.985
21
-81.985
0
LINE
5
2D4
100
AcDbEntity
8
BLACK
6
ByLayer
62
256
370
-1
100
AcDbLine
10
93.985
20
-81.985
11
80.015
21
-81.985
0
LINE
5
2D5
100
AcDbEntity
8
BLACK
6
ByLayer
62
256
370
-1
100
AcDbLine
10
80.015
20
-81.985
11
80.015
21
-81.0046
0
LINE
5
2D6
100
AcDbEntity
8
BLACK
6
ByLayer
62
256
370
-1
100
AcDbLine
10
80.015
20
-81.0046
11
79.2022
21
-81.0046
0
LINE
5
2D7
100
AcDbEntity
8
BLACK
6
ByLayer
62
256
370
-1
100
AcDbLine
10
79.2022
20
-81.0046
11
79.2022
21
-77.5044
0
LINE
5
2D8
100
AcDbEntity
8
BLACK
6
ByLayer
62
256
370
-1
100
AcDbLine
10
79.2022
20
-77.5044
11
80.015
21
-77.5044
0
LINE
5
2D9
100
AcDbEntity
8
BLACK
6
ByLayer
62
256
370
-1
100
AcDbLine
10
80.015
20
-77.5044
11
80.015
21
-72.4956
0
LINE
5
2DA
100
AcDbEntity
8
BLACK
6
ByLayer
62
256
370
-1
100
AcDbLine
10
80.015
20
-72.4956
11
79.2022
21
-72.4956
0
LINE
5
2DB
100
AcDbEntity
8
BLACK
6
ByLayer
62
256
370
-1
100
AcDbLine
10
79.2022
20
-72.4956
11
79.2022
21
-68.9954
0
LINE
5
2DC
100
AcDbEntity
8
BLACK
6
ByLayer
62
256
370
-1
100
AcDbLine
10
79.2022
20
-68.9954
11
80.015
21
-68.9954
0
LINE
5
2DD
100
AcDbEntity
8
BLACK
6
ByLayer
62
256
370
-1
100
AcDbLine
10
80.015
20
-68.9954
11
80.015
21
-68.015
0
LINE
5
2DE
100
AcDbEntity
8
BLACK
6
ByLayer
62
256
370
-1
100
AcDbLine
10
158.015
20
-88.015
11
171.985
21
-88.015
0
LINE
5
2DF
100
AcDbEntity
8
BLACK
6
ByLayer
62
256
370
-1
100
AcDbLine
10
171.985
20
-88.015
11
171.985
21
-88.9954
0
LINE
5
2E0
100
AcDbEntity
8
BLACK
6
ByLayer
62
256
370
-1
100
AcDbLine
10
171.985
20
-88.9954
11
172.798
21
-88.9954
0
LINE
5
2E1
100
AcDbEntity
8
BLACK
6
ByLayer
62
256
370
-1
100
AcDbLine
10
172.798
20
-88.9954
11
172.798
21
-92.4956
0
LINE
5
2E2
100
AcDbEntity
8
BLACK
6
ByLayer
62
256
370
-1
100
AcDbLine
10
172.798
20
-92.4956
11
171.985
21
-92.4956
0
LINE
5
2E3
100
AcDbEntity
8
BLACK
6
ByLayer
62
256
370
-1
100
AcDbLine
10
171.985
20
-92.4956
11
171.985
21
-97.5044
0
LINE
5
2E4
100
AcDbEntity
8
BLACK
6
ByLayer
62
256
370
-1
100
AcDbLine
10
171.985
20
-97.5044
11
172.798
21
-97.5044
0
LINE
5
2E5
100
AcDbEntity
8
BLACK
6
ByLayer
62
256
370
-1
100
AcDbLine
10
172.798
20
-97.5044
11
172.798
21
-101.005
0
LINE
5
2E6
100
AcDbEntity
8
BLACK
6
ByLayer
62
256
370
-1
100
AcDbLine
10
172.798
20
-101.005
11
171.985
21
-101.005
0
LINE
5
2E7
100
AcDbEntity
8
BLACK
6
ByLayer
62
256
370
-1
100
AcDbLine
10
171.985
20
-101.005
11
171.985
21
-101.985
0
LINE
5
2E8
100
AcDbEntity
8
BLACK
6
ByLayer
62
256
370
-1
100
AcDbLine
10
171.985
20
-101.985
11
158.015
21
-101.985
0
LINE
5
2E9
100
AcDbEntity
8
BLACK
6
ByLayer
62
256
370
-1
100
AcDbLine
10
158.015
20
-101.985
11
158.015
21
-101.005
0
LINE
5
2EA
100
AcDbEntity
8
BLACK
6
ByLayer
62
256
370
-1
100
AcDbLine
10
158.015
20
-101.005
11
157.202
21
-101.005
0
LINE
5
2EB
100
AcDbEntity
8
BLACK
6
ByLayer
62
256
370
-1
100
AcDbLine
10
157.202
20
-101.005
11
157.202
21
-97.5044
0
LINE
5
2EC
100
AcDbEntity
8
BLACK
6
ByLayer
62
256
370
-1
100
AcDbLine
10
157.202
20
-97.5044
11
158.015
21
-97.5044
0
LINE
5
2ED
100
AcDbEntity
8
BLACK
6
ByLayer
62
256
370
-1
100
AcDbLine
10
158.015
20
-97.5044
11
158.015
21
-92.4956
0
LINE
5
2EE
100
AcDbEntity
8
BLACK
6
ByLayer
62
256
370
-1
100
AcDbLine
10
158.015
20
-92.4956
11
157.202
21
-92.4956
0
LINE
5
2EF
100
AcDbEntity
8
BLACK
6
ByLayer
62
256
370
-1
100
AcDbLine
10
157.202
20
-92.4956
11
157.202
21
-88.9954
0
LINE
5
2F0
100
AcDbEntity
8
BLACK
6
ByLayer
62
256
370
-1
100
AcDbLine
10
157.202
20
-88.9954
11
158.015
21
-88.9954
0
LINE
5
2F1
100
AcDbEntity
8
BLACK
6
ByLayer
62
256
370
-1
100
AcDbLine
10
158.015
20
-88.9954
11
158.015
21
-88.015
0
LINE
5
2F2
100
AcDbEntity
8
BLACK
6
ByLayer
62
256
370
-1
100
AcDbLine
10
114.015
20
-128.015
11
127.985
21
-128.015
0
LINE
5
2F3
100
AcDbEntity
8
BLACK
6
ByLayer
62
256
370
-1
100
AcDbLine
10
127.985
20
-128.015
11
127.985
21
-128.995
0
LINE
5
2F4
100
AcDbEntity
8
BLACK
6
ByLayer
62
256
370
-1
100
AcDbLine
10
127.985
20
-128.995
11
128.798
21
-128.995
0
LINE
5
2F5
100
AcDbEntity
8
BLACK
6
ByLayer
62
256
370
-1
100
AcDbLine
10
128.798
20
-128.995
11
128.798
21
-132.496
0
LINE
5
2F6
100
AcDbEntity
8
BLACK
6
ByLayer
62
256
370
-1
100
AcDbLine
10
128.798
20
-132.496
11
127.985
21
-132.496
0
LINE
5
2F7
100
AcDbEntity
8
BLACK
6
ByLayer
62
256
370
-1
100
AcDbLine
10
127.985
20
-132.496
11
127.985
21
-137.504
0
LINE
5
2F8
100
AcDbEntity
8
BLACK
6
ByLayer
62
256
370
-1
100
AcDbLine
10
127.985
20
-137.504
11
128.798
21
-137.504
0
LINE
5
2F9
100
AcDbEntity
8
BLACK
6
ByLayer
62
256
370
-1
100
AcDbLine
10
128.798
20
-137.504
11
128.798
21
-141.005
0
LINE
5
2FA
100
AcDbEntity
8
BLACK
6
ByLayer
62
256
370
-1
100
AcDbLine
10
128.798
20
-141.005
11
127.985
21
-141.005
0
LINE
5
2FB
100
AcDbEntity
8
BLACK
6
ByLayer
62
256
370
-1
100
AcDbLine
10
127.985
20
-141.005
11
127.985
21
-141.985
0
LINE
5
2FC
100
AcDbEntity
8
BLACK
6
ByLayer
62
256
370
-1
100
AcDbLine
10
127.985
20
-141.985
11
114.015
21
-141.985
0
LINE
5
2FD
100
AcDbEntity
8
BLACK
6
ByLayer
62
256
370
-1
100
AcDbLine
10
114.015
20
-141.985
11
114.015
21
-141.005
0
LINE
5
2FE
100
AcDbEntity
8
BLACK
6
ByLayer
62
256
370
-1
100
AcDbLine
10
114.015
20
-141.005
11
113.202
21
-141.005
0
LINE
5
2FF
100
AcDbEntity
8
BLACK
6
ByLayer
62
256
370
-1
100
AcDbLine
10
113.202
20
-141.005
11
113.202
21
-137.504
0
LINE
5
300
100
AcDbEntity
8
BLACK
6
ByLayer
62
256
370
-1
100
AcDbLine
10
113.202
20
-137.504
11
114.015
21
-137.504
0
LINE
5
301
100
AcDbEntity
8
BLACK
6
ByLayer
62
256
370
-1
100
AcDbLine
10
114.015
20
-137.504
11
114.015
21
-132.496
0
LINE
5
302
100
AcDbEntity
8
BLACK
6
ByLayer
62
256
370
-1
100
AcDbLine
10
114.015
20
-132.496
11
113.202
21
-132.496
0
LINE
5
303
100
AcDbEntity
8
BLACK
6
ByLayer
62
256
370
-1
100
AcDbLine
10
113.202
20
-132.496
11
113.202
21
-128.995
0
LINE
5
304
100
AcDbEntity
8
BLACK
6
ByLayer
62
256
370
-1
100
AcDbLine
10
113.202
20
-128.995
11
114.015
21
-128.995
0
LINE
5
305
100
AcDbEntity
8
BLACK
6
ByLayer
62
256
370
-1
100
AcDbLine
10
114.015
20
-128.995
11
114.015
21
-128.015
0
LINE
5
306
100
AcDbEntity
8
BLACK
6
ByLayer
62
256
370
-1
100
AcDbLine
10
98.015
20
-88.015
11
111.985
21
-88.015
0
LINE
5
307
100
AcDbEntity
8
BLACK
6
ByLayer
62
256
370
-1
100
AcDbLine
10
111.985
20
-88.015
11
111.985
21
-88.9954
0
LINE
5
308
100
AcDbEntity
8
BLACK
6
ByLayer
62
256
370
-1
100
AcDbLine
10
111.985
20
-88.9954
11
112.798
21
-88.9954
0
LINE
5
309
100
AcDbEntity
8
BLACK
6
ByLayer
62
256
370
-1
100
AcDbLine
10
112.798
20
-88.9954
11
112.798
21
-92.4956
0
LINE
5
30A
100
AcDbEntity
8
BLACK
6
ByLayer
62
256
370
-1
100
AcDbLine
10
112.798
20
-92.4956
11
111.985
21
-92.4956
0
LINE
5
30B
100
AcDbEntity
8
BLACK
6
ByLayer
62
256
370
-1
100
AcDbLine
10
111.985
20
-92.4956
11
111.985
21
-97.5044
0
LINE
5
30C
100
AcDbEntity
8
BLACK
6
ByLayer
62
256
370
-1
100
AcDbLine
10
111.985
20
-97.5044
11
112.798
21
-97.5044
0
LINE
5
30D
100
AcDbEntity
8
BLACK
6
ByLayer
62
256
370
-1
100
AcDbLine
10
112.798
20
-97.5044
11
112.798
21
-101.005
0
LINE
5
30E
100
AcDbEntity
8
BLACK
6
ByLayer
62
256
370
-1
100
AcDbLine
10
112.798
20
-101.005
11
111.985
21
-101.005
0
LINE
5
30F
100
AcDbEntity
8
BLACK
6
ByLayer
62
256
370
-1
100
AcDbLine
10
111.985
20
-101.005
11
111.985
21
-101.985
0
LINE
5
310
100
AcDbEntity
8
BLACK
6
ByLayer
62
256
370
-1
100
AcDbLine
10
111.985
20
-101.985
11
98.015
21
-101.985
0
LINE
5
311
100
AcDbEntity
8
BLACK
6
ByLayer
62
256
370
-1
100
AcDbLine
10
98.015
20
-101.985
11
98.015
21
-101.005
0
LINE
5
312
100
AcDbEntity
8
BLACK
6
ByLayer
62
256
370
-1
100
AcDbLine
10
98.015
20
-101.005
11
97.2022
21
-101.005
0
LINE
5
313
100
AcDbEntity
8
BLACK
6
ByLayer
62
256
370
-1
100
AcDbLine
10
97.2022
20
-101.005
11
97.2022
21
-97.5044
0
LINE
5
314
100
AcDbEntity
8
BLACK
6
ByLayer
62
256
370
-1
100
AcDbLine
10
97.2022
20
-97.5044
11
98.015
21
-97.5044
0
LINE
5
315
100
AcDbEntity
8
BLACK
6
ByLayer
62
256
370
-1
100
AcDbLine
10
98.015
20
-97.5044
11
98.015
21
-92.4956
0
LINE
5
316
100
AcDbEntity
8
BLACK
6
ByLayer
62
256
370
-1
100
AcDbLine
10
98.015
20
-92.4956
11
97.2022
21
-92.4956
0
LINE
5
317
100
AcDbEntity
8
BLACK
6
ByLayer
62
256
370
-1
100
AcDbLine
10
97.2022
20
-92.4956
11
97.2022
21
-88.9954
0
LINE
5
318
100
AcDbEntity
8
BLACK
6
ByLayer
62
256
370
-1
100
AcDbLine
10
97.2022
20
-88.9954
11
98.015
21
-88.9954
0
LINE
5
319
100
AcDbEntity
8
BLACK
6
ByLayer
62
256
370
-1
100
AcDbLine
10
98.015
20
-88.9954
11
98.015
21
-88.015
0
LINE
5
31A
100
AcDbEntity
8
BLACK
6
ByLayer
62
256
370
-1
100
AcDbLine
10
120.015
20
-68.015
11
133.985
21
-68.015
0
LINE
5
31B
100
AcDbEntity
8
BLACK
6
ByLayer
62
256
370
-1
100
AcDbLine
10
133.985
20
-68.015
11
133.985
21
-68.9954
0
LINE
5
31C
100
AcDbEntity
8
BLACK
6
ByLayer
62
256
370
-1
100
AcDbLine
10
133.985
20
-68.9954
11
134.798
21
-68.9954
0
LINE
5
31D
100
AcDbEntity
8
BLACK
6
ByLayer
62
256
370
-1
100
AcDbLine
10
134.798
20
-68.9954
11
134.798
21
-72.4956
0
LINE
5
31E
100
AcDbEntity
8
BLACK
6
ByLayer
62
256
370
-1
100
AcDbLine
10
134.798
20
-72.4956
11
133.985
21
-72.4956
0
LINE
5
31F
100
AcDbEntity
8
BLACK
6
ByLayer
62
256
370
-1
100
AcDbLine
10
133.985
20
-72.4956
11
133.985
21
-77.5044
0
LINE
5
320
100
AcDbEntity
8
BLACK
6
ByLayer
62
256
370
-1
100
AcDbLine
10
133.985
20
-77.5044
11
134.798
21
-77.5044
0
LINE
5
321
100
AcDbEntity
8
BLACK
6
ByLayer
62
256
370
-1
100
AcDbLine
10
134.798
20
-77.5044
11
134.798
21
-81.0046
0
LINE
5
322
100
AcDbEntity
8
BLACK
6
ByLayer
62
256
370
-1
100
AcDbLine
10
134.798
20
-81.0046
11
133.985
21
-81.0046
0
LINE
5
323
100
AcDbEntity
8
BLACK
6
ByLayer
62
256
370
-1
100
AcDbLine
10
133.985
20
-81.0046
11
133.985
21
-81.985
0
LINE
5
324
100
AcDbEntity
8
BLACK
6
ByLayer
62
256
370
-1
100
AcDbLine
10
133.985
20
-81.985
11
120.015
21
-81.985
0
LINE
5
325
100
AcDbEntity
8
BLACK
6
ByLayer
62
256
370
-1
100
AcDbLine
10
120.015
20
-81.985
11
120.015
21
-81.0046
0
LINE
5
326
100
AcDbEntity
8
BLACK
6
ByLayer
62
256
370
-1
100
AcDbLine
10
120.015
20
-81.0046
11
119.202
21
-81.0046
0
LINE
5
327
100
AcDbEntity
8
BLACK
6
ByLayer
62
256
370
-1
100
AcDbLine
10
119.202
20
-81.0046
11
119.202
21
-77.5044
0
LINE
5
328
100
AcDbEntity
8
BLACK
6
ByLayer
62
256
370
-1
100
AcDbLine
10
119.202
20
-77.5044
11
120.015
21
-77.5044
0
LINE
5
329
100
AcDbEntity
8
BLACK
6
ByLayer
62
256
370
-1
100
AcDbLine
10
120.015
20
-77.5044
11
120.015
21
-72.4956
0
LINE
5
32A
100
AcDbEntity
8
BLACK
6
ByLayer
62
256
370
-1
100
AcDbLine
10
120.015
20
-72.4956
11
119.202
21
-72.4956
0
LINE
5
32B
100
AcDbEntity
8
BLACK
6
ByLayer
62
256
370
-1
100
AcDbLine
10
119.202
20
-72.4956
11
119.202
21
-68.9954
0
LINE
5
32C
100
AcDbEntity
8
BLACK
6
ByLayer
62
256
370
-1
100
AcDbLine
10
119.202
20
-68.9954
11
120.015
21
-68.9954
0
LINE
5
32D
100
AcDbEntity
8
BLACK
6
ByLayer
62
256
370
-1
100
AcDbLine
10
120.015
20
-68.9954
11
120.015
21
-68.015
0
LINE
5
32E
100
AcDbEntity
8
BLACK
6
ByLayer
62
256
370
-1
100
AcDbLine
10
118.015
20
-88.015
11
131.985
21
-88.015
0
LINE
5
32F
100
AcDbEntity
8
BLACK
6
ByLayer
62
256
370
-1
100
AcDbLine
10
131.985
20
-88.015
11
131.985
21
-88.9954
0
LINE
5
330
100
AcDbEntity
8
BLACK
6
ByLayer
62
256
370
-1
100
AcDbLine
10
131.985
20
-88.9954
11
132.798
21
-88.9954
0
LINE
5
331
100
AcDbEntity
8
BLACK
6
ByLayer
62
256
370
-1
100
AcDbLine
10
132.798
20
-88.9954
11
132.798
21
-92.4956
0
LINE
5
332
100
AcDbEntity
8
BLACK
6
ByLayer
62
256
370
-1
100
AcDbLine
10
132.798
20
-92.4956
11
131.985
21
-92.4956
0
LINE
5
333
100
AcDbEntity
8
BLACK
6
ByLayer
62
256
370
-1
100
AcDbLine
10
131.985
20
-92.4956
11
131.985
21
-97.5044
0
LINE
5
334
100
AcDbEntity
8
BLACK
6
ByLayer
62
256
370
-1
100
AcDbLine
10
131.985
20
-97.5044
11
132.798
21
-97.5044
0
LINE
5
335
100
AcDbEntity
8
BLACK
6
ByLayer
62
256
370
-1
100
AcDbLine
10
132.798
20
-97.5044
11
132.798
21
-101.005
0
LINE
5
336
100
AcDbEntity
8
BLACK
6
ByLayer
62
256
370
-1
100
AcDbLine
10
132.798
20
-101.005
11
131.985
21
-101.005
0
LINE
5
337
100
AcDbEntity
8
BLACK
6
ByLayer
62
256
370
-1
100
AcDbLine
10
131.985
20
-101.005
11
131.985
21
-101.985
0
LINE
5
338
100
AcDbEntity
8
BLACK
6
ByLayer
62
256
370
-1
100
AcDbLine
10
131.985
20
-101.985
11
118.015
21
-101.985
0
LINE
5
339
100
AcDbEntity
8
BLACK
6
ByLayer
62
256
370
-1
100
AcDbLine
10
118.015
20
-101.985
11
118.015
21
-101.005
0
LINE
5
33A
100
AcDbEntity
8
BLACK
6
ByLayer
62
256
370
-1
100
AcDbLine
10
118.015
20
-101.005
11
117.202
21
-101.005
0
LINE
5
33B
100
AcDbEntity
8
BLACK
6
ByLayer
62
256
370
-1
100
AcDbLine
10
117.202
20
-101.005
11
117.202
21
-97.5044
0
LINE
5
33C
100
AcDbEntity
8
BLACK
6
ByLayer
62
256
370
-1
100
AcDbLine
10
117.202
20
-97.5044
11
118.015
21
-97.5044
0
LINE
5
33D
100
AcDbEntity
8
BLACK
6
ByLayer
62
256
370
-1
100
AcDbLine
10
118.015
20
-97.5044
11
118.015
21
-92.4956
0
LINE
5
33E
100
AcDbEntity
8
BLACK
6
ByLayer
62
256
370
-1
100
AcDbLine
10
118.015
20
-92.4956
11
117.202
21
-92.4956
0
LINE
5
33F
100
AcDbEntity
8
BLACK
6
ByLayer
62
256
370
-1
100
AcDbLine
10
117.202
20
-92.4956
11
117.202
21
-88.9954
0
LINE
5
340
100
AcDbEntity
8
BLACK
6
ByLayer
62
256
370
-1
100
AcDbLine
10
117.202
20
-88.9954
11
118.015
21
-88.9954
0
LINE
5
341
100
AcDbEntity
8
BLACK
6
ByLayer
62
256
370
-1
100
AcDbLine
10
118.015
20
-88.9954
11
118.015
21
-88.015
0
LINE
5
342
100
AcDbEntity
8
BLACK
6
ByLayer
62
256
370
-1
100
AcDbLine
10
136.015
20
-108.015
11
149.985
21
-108.015
0
LINE
5
343
100
AcDbEntity
8
BLACK
6
ByLayer
62
256
370
-1
100
AcDbLine
10
149.985
20
-108.015
11
149.985
21
-108.995
0
LINE
5
344
100
AcDbEntity
8
BLACK
6
ByLayer
62
256
370
-1
100
AcDbLine
10
149.985
20
-108.995
11
150.798
21
-108.995
0
LINE
5
345
100
AcDbEntity
8
BLACK
6
ByLayer
62
256
370
-1
100
AcDbLine
10
150.798
20
-108.995
11
150.798
21
-112.496
0
LINE
5
346
100
AcDbEntity
8
BLACK
6
ByLayer
62
256
370
-1
100
AcDbLine
10
150.798
20
-112.496
11
149.985
21
-112.496
0
LINE
5
347
100
AcDbEntity
8
BLACK
6
ByLayer
62
256
370
-1
100
AcDbLine
10
149.985
20
-112.496
11
149.985
21
-117.504
0
LINE
5
348
100
AcDbEntity
8
BLACK
6
ByLayer
62
256
370
-1
100
AcDbLine
10
149.985
20
-117.504
11
150.798
21
-117.504
0
LINE
5
349
100
AcDbEntity
8
BLACK
6
ByLayer
62
256
370
-1
100
AcDbLine
10
150.798
20
-117.504
11
150.798
21
-121.005
0
LINE
5
34A
100
AcDbEntity
8
BLACK
6
ByLayer
62
256
370
-1
100
AcDbLine
10
150.798
20
-121.005
11
149.985
21
-121.005
0
LINE
5
34B
100
AcDbEntity
8
BLACK
6
ByLayer
62
256
370
-1
100
AcDbLine
10
149.985
20
-121.005
11
149.985
21
-121.985
0
LINE
5
34C
100
AcDbEntity
8
BLACK
6
ByLayer
62
256
370
-1
100
AcDbLine
10
149.985
20
-121.985
11
136.015
21
-121.985
0
LINE
5
34D
100
AcDbEntity
8
BLACK
6
ByLayer
62
256
370
-1
100
AcDbLine
10
136.015
20
-121.985
11
136.015
21
-121.005
0
LINE
5
34E
100
AcDbEntity
8
BLACK
6
ByLayer
62
256
370
-1
100
AcDbLine
10
136.015
20
-121.005
11
135.202
21
-121.005
0
LINE
5
34F
100
AcDbEntity
8
BLACK
6
ByLayer
62
256
370
-1
100
AcDbLine
10
135.202
20
-121.005
11
135.202
21
-117.504
0
LINE
5
350
100
AcDbEntity
8
BLACK
6
ByLayer
62
256
370
-1
100
AcDbLine
10
135.202
20
-117.504
11
136.015
21
-117.504
0
LINE
5
351
100
AcDbEntity
8
BLACK
6
ByLayer
62
256
370
-1
100
AcDbLine
10
136.015
20
-117.504
11
136.015
21
-112.496
0
LINE
5
352
100
AcDbEntity
8
BLACK
6
ByLayer
62
256
370
-1
100
AcDbLine
10
136.015
20
-112.496
11
135.202
21
-112.496
0
LINE
5
353
100
AcDbEntity
8
BLACK
6
ByLayer
62
256
370
-1
100
AcDbLine
10
135.202
20
-112.496
11
135.202
21
-108.995
0
LINE
5
354
100
AcDbEntity
8
BLACK
6
ByLayer
62
256
370
-1
100
AcDbLine
10
135.202
20
-108.995
11
136.015
21
-108.995
0
LINE
5
355
100
AcDbEntity
8
BLACK
6
ByLayer
62
256
370
-1
100
AcDbLine
10
136.015
20
-108.995
11
136.015
21
-108.015
0
LINE
5
356
100
AcDbEntity
8
BLACK
6
ByLayer
62
256
370
-1
100
AcDbLine
10
134.015
20
-128.015
11
147.985
21
-128.015
0
LINE
5
357
100
AcDbEntity
8
BLACK
6
ByLayer
62
256
370
-1
100
AcDbLine
10
147.985
20
-128.015
11
147.985
21
-128.995
0
LINE
5
358
100
AcDbEntity
8
BLACK
6
ByLayer
62
256
370
-1
100
AcDbLine
10
147.985
20
-128.995
11
148.798
21
-128.995
0
LINE
5
359
100
AcDbEntity
8
BLACK
6
ByLayer
62
256
370
-1
100
AcDbLine
10
148.798
20
-128.995
11
148.798
21
-132.496
0
LINE
5
35A
100
AcDbEntity
8
BLACK
6
ByLayer
62
256
370
-1
100
AcDbLine
10
148.798
20
-132.496
11
147.985
21
-132.496
0
LINE
5
35B
100
AcDbEntity
8
BLACK
6
ByLayer
62
256
370
-1
100
AcDbLine
10
147.985
20
-132.496
11
147.985
21
-137.504
0
LINE
5
35C
100
AcDbEntity
8
BLACK
6
ByLayer
62
256
370
-1
100
AcDbLine
10
147.985
20
-137.504
11
148.798
21
-137.504
0
LINE
5
35D
100
AcDbEntity
8
BLACK
6
ByLayer
62
256
370
-1
100
AcDbLine
10
148.798
20
-137.504
11
148.798
21
-141.005
0
LINE
5
35E
100
AcDbEntity
8
BLACK
6
ByLayer
62
256
370
-1
100
AcDbLine
10
148.798
20
-141.005
11
147.985
21
-141.005
0
LINE
5
35F
100
AcDbEntity
8
BLACK
6
ByLayer
62
256
370
-1
100
AcDbLine
10
147.985
20
-141.005
11
147.985
21
-141.985
0
LINE
5
360
100
AcDbEntity
8
BLACK
6
ByLayer
62
256
370
-1
100
AcDbLine
10
147.985
20
-141.985
11
134.015
21
-141.985
0
LINE
5
361
100
AcDbEntity
8
BLACK
6
ByLayer
62
256
370
-1
100
AcDbLine
10
134.015
20
-141.985
11
134.015
21
-141.005
0
LINE
5
362
100
AcDbEntity
8
BLACK
6
ByLayer
62
256
370
-1
100
AcDbLine
10
134.015
20
-141.005
11
133.202
21
-141.005
0
LINE
5
363
100
AcDbEntity
8
BLACK
6
ByLayer
62
256
370
-1
100
AcDbLine
10
133.202
20
-141.005
11
133.202
21
-137.504
0
LINE
5
364
100
AcDbEntity
8
BLACK
6
ByLayer
62
256
370
-1
100
AcDbLine
10
133.202
20
-137.504
11
134.015
21
-137.504
0
LINE
5
365
100
AcDbEntity
8
BLACK
6
ByLayer
62
256
370
-1
100
AcDbLine
10
134.015
20
-137.504
11
134.015
21
-132.496
0
LINE
5
366
100
AcDbEntity
8
BLACK
6
ByLayer
62
256
370
-1
100
AcDbLine
10
134.015
20
-132.496
11
133.202
21
-132.496
0
LINE
5
367
100
AcDbEntity
8
BLACK
6
ByLayer
62
256
370
-1
100
AcDbLine
10
133.202
20
-132.496
11
133.202
21
-128.995
0
LINE
5
368
100
AcDbEntity
8
BLACK
6
ByLayer
62
256
370
-1
100
AcDbLine
10
133.202
20
-128.995
11
134.015
21
-128.995
0
LINE
5
369
100
AcDbEntity
8
BLACK
6
ByLayer
62
256
370
-1
100
AcDbLine
10
134.015
20
-128.995
11
134.015
21
-128.015
0
LINE
5
36A
100
AcDbEntity
8
BLACK
6
ByLayer
62
256
370
-1
100
AcDbLine
10
140.015
20
-68.015
11
153.985
21
-68.015
0
LINE
5
36B
100
AcDbEntity
8
BLACK
6
ByLayer
62
256
370
-1
100
AcDbLine
10
153.985
20
-68.015
11
153.985
21
-68.9954
0
LINE
5
36C
100
AcDbEntity
8
BLACK
6
ByLayer
62
256
370
-1
100
AcDbLine
10
153.985
20
-68.9954
11
154.798
21
-68.9954
0
LINE
5
36D
100
AcDbEntity
8
BLACK
6
ByLayer
62
256
370
-1
100
AcDbLine
10
154.798
20
-68.9954
11
154.798
21
-72.4956
0
LINE
5
36E
100
AcDbEntity
8
BLACK
6
ByLayer
62
256
370
-1
100
AcDbLine
10
154.798
20
-72.4956
11
153.985
21
-72.4956
0
LINE
5
36F
100
AcDbEntity
8
BLACK
6
ByLayer
62
256
370
-1
100
AcDbLine
10
153.985
20
-72.4956
11
153.985
21
-77.5044
0
LINE
5
370
100
AcDbEntity
8
BLACK
6
ByLayer
62
256
370
-1
100
AcDbLine
10
153.985
20
-77.5044
11
154.798
21
-77.5044
0
LINE
5
371
100
AcDbEntity
8
BLACK
6
ByLayer
62
256
370
-1
100
AcDbLine
10
154.798
20
-77.5044
11
154.798
21
-81.0046
0
LINE
5
372
100
AcDbEntity
8
BLACK
6
ByLayer
62
256
370
-1
100
AcDbLine
10
154.798
20
-81.0046
11
153.985
21
-81.0046
0
LINE
5
373
100
AcDbEntity
8
BLACK
6
ByLayer
62
256
370
-1
100
AcDbLine
10
153.985
20
-81.0046
11
153.985
21
-81.985
0
LINE
5
374
100
AcDbEntity
8
BLACK
6
ByLayer
62
256
370
-1
100
AcDbLine
10
153.985
20
-81.985
11
140.015
21
-81.985
0
LINE
5
375
100
AcDbEntity
8
BLACK
6
ByLayer
62
256
370
-1
100
AcDbLine
10
140.015
20
-81.985
11
140.015
21
-81.0046
0
LINE
5
376
100
AcDbEntity
8
BLACK
6
ByLayer
62
256
370
-1
100
AcDbLine
10
140.015
20
-81.0046
11
139.202
21
-81.0046
0
LINE
5
377
100
AcDbEntity
8
BLACK
6
ByLayer
62
256
370
-1
100
AcDbLine
10
139.202
20
-81.0046
11
139.202
21
-77.5044
0
LINE
5
378
100
AcDbEntity
8
BLACK
6
ByLayer
62
256
370
-1
100
AcDbLine
10
139.202
20
-77.5044
11
140.015
21
-77.5044
0
LINE
5
379
100
AcDbEntity
8
BLACK
6
ByLayer
62
256
370
-1
100
AcDbLine
10
140.015
20
-77.5044
11
140.015
21
-72.4956
0
LINE
5
37A
100
AcDbEntity
8
BLACK
6
ByLayer
62
256
370
-1
100
AcDbLine
10
140.015
20
-72.4956
11
139.202
21
-72.4956
0
LINE
5
37B
100
AcDbEntity
8
BLACK
6
ByLayer
62
256
370
-1
100
AcDbLine
10
139.202
20
-72.4956
11
139.202
21
-68.9954
0
LINE
5
37C
100
AcDbEntity
8
BLACK
6
ByLayer
62
256
370
-1
100
AcDbLine
10
139.202
20
-68.9954
11
140.015
21
-68.9954
0
LINE
5
37D
100
AcDbEntity
8
BLACK
6
ByLayer
62
256
370
-1
100
AcDbLine
10
140.015
20
-68.9954
11
140.015
21
-68.015
0
LINE
5
37E
100
AcDbEntity
8
BLACK
6
ByLayer
62
256
370
-1
100
AcDbLine
10
138.015
20
-88.015
11
151.985
21
-88.015
0
LINE
5
37F
100
AcDbEntity
8
BLACK
6
ByLayer
62
256
370
-1
100
AcDbLine
10
151.985
20
-88.015
11
151.985
21
-88.9954
0
LINE
5
380
100
AcDbEntity
8
BLACK
6
ByLayer
62
256
370
-1
100
AcDbLine
10
151.985
20
-88.9954
11
152.798
21
-88.9954
0
LINE
5
381
100
AcDbEntity
8
BLACK
6
ByLayer
62
256
370
-1
100
AcDbLine
10
152.798
20
-88.9954
11
152.798
21
-92.4956
0
LINE
5
382
100
AcDbEntity
8
BLACK
6
ByLayer
62
256
370
-1
100
AcDbLine
10
152.798
20
-92.4956
11
151.985
21
-92.4956
0
LINE
5
383
100
AcDbEntity
8
BLACK
6
ByLayer
62
256
370
-1
100
AcDbLine
10
151.985
20
-92.4956
11
151.985
21
-97.5044
0
LINE
5
384
100
AcDbEntity
8
BLACK
6
ByLayer
62
256
370
-1
100
AcDbLine
10
151.985
20
-97.5044
11
152.798
21
-97.5044
0
LINE
5
385
100
AcDbEntity
8
BLACK
6
ByLayer
62
256
370
-1
100
AcDbLine
10
152.798
20
-97.5044
11
152.798
21
-101.005
0
LINE
5
386
100
AcDbEntity
8
BLACK
6
ByLayer
62
256
370
-1
100
AcDbLine
10
152.798
20
-101.005
11
151.985
21
-101.005
0
LINE
5
387
100
AcDbEntity
8
BLACK
6
ByLayer
62
256
370
-1
100
AcDbLine
10
151.985
20
-101.005
11
151.985
21
-101.985
0
LINE
5
388
100
AcDbEntity
8
BLACK
6
ByLayer
62
256
370
-1
100
AcDbLine
10
151.985
20
-101.985
11
138.015
21
-101.985
0
LINE
5
389
100
AcDbEntity
8
BLACK
6
ByLayer
62
256
370
-1
100
AcDbLine
10
138.015
20
-101.985
11
138.015
21
-101.005
0
LINE
5
38A
100
AcDbEntity
8
BLACK
6
ByLayer
62
256
370
-1
100
AcDbLine
10
138.015
20
-101.005
11
137.202
21
-101.005
0
LINE
5
38B
100
AcDbEntity
8
BLACK
6
ByLayer
62
256
370
-1
100
AcDbLine
10
137.202
20
-101.005
11
137.202
21
-97.5044
0
LINE
5
38C
100
AcDbEntity
8
BLACK
6
ByLayer
62
256
370
-1
100
AcDbLine
10
137.202
20
-97.5044
11
138.015
21
-97.5044
0
LINE
5
38D
100
AcDbEntity
8
BLACK
6
ByLayer
62
256
370
-1
100
AcDbLine
10
138.015
20
-97.5044
11
138.015
21
-92.4956
0
LINE
5
38E
100
AcDbEntity
8
BLACK
6
ByLayer
62
256
370
-1
100
AcDbLine
10
138.015
20
-92.4956
11
137.202
21
-92.4956
0
LINE
5
38F
100
AcDbEntity
8
BLACK
6
ByLayer
62
256
370
-1
100
AcDbLine
10
137.202
20
-92.4956
11
137.202
21
-88.9954
0
LINE
5
390
100
AcDbEntity
8
BLACK
6
ByLayer
62
256
370
-1
100
AcDbLine
10
137.202
20
-88.9954
11
138.015
21
-88.9954
0
LINE
5
391
100
AcDbEntity
8
BLACK
6
ByLayer
62
256
370
-1
100
AcDbLine
10
138.015
20
-88.9954
11
138.015
21
-88.015
0
LINE
5
392
100
AcDbEntity
8
BLACK
6
ByLayer
62
256
370
-1
100
AcDbLine
10
156.015
20
-108.015
11
169.985
21
-108.015
0
LINE
5
393
100
AcDbEntity
8
BLACK
6
ByLayer
62
256
370
-1
100
AcDbLine
10
169.985
20
-108.015
11
169.985
21
-108.995
0
LINE
5
394
100
AcDbEntity
8
BLACK
6
ByLayer
62
256
370
-1
100
AcDbLine
10
169.985
20
-108.995
11
170.798
21
-108.995
0
LINE
5
395
100
AcDbEntity
8
BLACK
6
ByLayer
62
256
370
-1
100
AcDbLine
10
170.798
20
-108.995
11
170.798
21
-112.496
0
LINE
5
396
100
AcDbEntity
8
BLACK
6
ByLayer
62
256
370
-1
100
AcDbLine
10
170.798
20
-112.496
11
169.985
21
-112.496
0
LINE
5
397
100
AcDbEntity
8
BLACK
6
ByLayer
62
256
370
-1
100
AcDbLine
10
169.985
20
-112.496
11
169.985
21
-117.504
0
LINE
5
398
100
AcDbEntity
8
BLACK
6
ByLayer
62
256
370
-1
100
AcDbLine
10
169.985
20
-117.504
11
170.798
21
-117.504
0
LINE
5
399
100
AcDbEntity
8
BLACK
6
ByLayer
62
256
370
-1
100
AcDbLine
10
170.798
20
-117.504
11
170.798
21
-121.005
0
LINE
5
39A
100
AcDbEntity
8
BLACK
6
ByLayer
62
256
370
-1
100
AcDbLine
10
170.798
20
-121.005
11
169.985
21
-121.005
0
LINE
5
39B
100
AcDbEntity
8
BLACK
6
ByLayer
62
256
370
-1
100
AcDbLine
10
169.985
20
-121.005
11
169.985
21
-121.985
0
LINE
5
39C
100
AcDbEntity
8
BLACK
6
ByLayer
62
256
370
-1
100
AcDbLine
10
169.985
20
-121.985
11
156.015
21
-121.985
0
LINE
5
39D
100
AcDbEntity
8
BLACK
6
ByLayer
62
256
370
-1
100
AcDbLine
10
156.015
20
-121.985
11
156.015
21
-121.005
0
LINE
5
39E
100
AcDbEntity
8
BLACK
6
ByLayer
62
256
370
-1
100
AcDbLine
10
156.015
20
-121.005
11
155.202
21
-121.005
0
LINE
5
39F
100
AcDbEntity
8
BLACK
6
ByLayer
62
256
370
-1
100
AcDbLine
10
155.202
20
-121.005
11
155.202
21
-117.504
0
LINE
5
3A0
100
AcDbEntity
8
BLACK
6
ByLayer
62
256
370
-1
100
AcDbLine
10
155.202
20
-117.504
11
156.015
21
-117.504
0
LINE
5
3A1
100
AcDbEntity
8
BLACK
6
ByLayer
62
256
370
-1
100
AcDbLine
10
156.015
20
-117.504
11
156.015
21
-112.496
0
LINE
5
3A2
100
AcDbEntity
8
BLACK
6
ByLayer
62
256
370
-1
100
AcDbLine
10
156.015
20
-112.496
11
155.202
21
-112.496
0
LINE
5
3A3
100
AcDbEntity
8
BLACK
6
ByLayer
62
256
370
-1
100
AcDbLine
10
155.202
20
-112.496
11
155.202
21
-108.995
0
LINE
5
3A4
100
AcDbEntity
8
BLACK
6
ByLayer
62
256
370
-1
100
AcDbLine
10
155.202
20
-108.995
11
156.015
21
-108.995
0
LINE
5
3A5
100
AcDbEntity
8
BLACK
6
ByLayer
62
256
370
-1
100
AcDbLine
10
156.015
20
-108.995
11
156.015
21
-108.015
0
LINE
5
3A6
100
AcDbEntity
8
BLACK
6
ByLayer
62
256
370
-1
100
AcDbLine
10
154.015
20
-128.015
11
167.985
21
-128.015
0
LINE
5
3A7
100
AcDbEntity
8
BLACK
6
ByLayer
62
256
370
-1
100
AcDbLine
10
167.985
20
-128.015
11
167.985
21
-128.995
0
LINE
5
3A8
100
AcDbEntity
8
BLACK
6
ByLayer
62
256
370
-1
100
AcDbLine
10
167.985
20
-128.995
11
168.798
21
-128.995
0
LINE
5
3A9
100
AcDbEntity
8
BLACK
6
ByLayer
62
256
370
-1
100
AcDbLine
10
168.798
20
-128.995
11
168.798
21
-132.496
0
LINE
5
3AA
100
AcDbEntity
8
BLACK
6
ByLayer
62
256
370
-1
100
AcDbLine
10
168.798
20
-132.496
11
167.985
21
-132.496
0
LINE
5
3AB
100
AcDbEntity
8
BLACK
6
ByLayer
62
256
370
-1
100
AcDbLine
10
167.985
20
-132.496
11
167.985
21
-137.504
0
LINE
5
3AC
100
AcDbEntity
8
BLACK
6
ByLayer
62
256
370
-1
100
AcDbLine
10
167.985
20
-137.504
11
168.798
21
-137.504
0
LINE
5
3AD
100
AcDbEntity
8
BLACK
6
ByLayer
62
256
370
-1
100
AcDbLine
10
168.798
20
-137.504
11
168.798
21
-141.005
0
LINE
5
3AE
100
AcDbEntity
8
BLACK
6
ByLayer
62
256
370
-1
100
AcDbLine
10
168.798
20
-141.005
11
167.985
21
-141.005
0
LINE
5
3AF
100
AcDbEntity
8
BLACK
6
ByLayer
62
256
370
-1
100
AcDbLine
10
167.985
20
-141.005
11
167.985
21
-141.985
0
LINE
5
3B0
100
AcDbEntity
8
BLACK
6
ByLayer
62
256
370
-1
100
AcDbLine
10
167.985
20
-141.985
11
154.015
21
-141.985
0
LINE
5
3B1
100
AcDbEntity
8
BLACK
6
ByLayer
62
256
370
-1
100
AcDbLine
10
154.015
20
-141.985
11
154.015
21
-141.005
0
LINE
5
3B2
100
AcDbEntity
8
BLACK
6
ByLayer
62
256
370
-1
100
AcDbLine
10
154.015
20
-141.005
11
153.202
21
-141.005
0
LINE
5
3B3
100
AcDbEntity
8
BLACK
6
ByLayer
62
256
370
-1
100
AcDbLine
10
153.202
20
-141.005
11
153.202
21
-137.504
0
LINE
5
3B4
100
AcDbEntity
8
BLACK
6
ByLayer
62
256
370
-1
100
AcDbLine
10
153.202
20
-137.504
11
154.015
21
-137.504
0
LINE
5
3B5
100
AcDbEntity
8
BLACK
6
ByLayer
62
256
370
-1
100
AcDbLine
10
154.015
20
-137.504
11
154.015
21
-132.496
0
LINE
5
3B6
100
AcDbEntity
8
BLACK
6
ByLayer
62
256
370
-1
100
AcDbLine
10
154.015
20
-132.496
11
153.202
21
-132.496
0
LINE
5
3B7
100
AcDbEntity
8
BLACK
6
ByLayer
62
256
370
-1
100
AcDbLine
10
153.202
20
-132.496
11
153.202
21
-128.995
0
LINE
5
3B8
100
AcDbEntity
8
BLACK
6
ByLayer
62
256
370
-1
100
AcDbLine
10
153.202
20
-128.995
11
154.015
21
-128.995
0
LINE
5
3B9
100
AcDbEntity
8
BLACK
6
ByLayer
62
256
370
-1
100
AcDbLine
10
154.015
20
-128.995
11
154.015
21
-128.015
0
LINE
5
3BA
100
AcDbEntity
8
BLACK
6
ByLayer
62
256
370
-1
100
AcDbLine
10
94.015
20
-128.015
11
107.985
21
-128.015
0
LINE
5
3BB
100
AcDbEntity
8
BLACK
6
ByLayer
62
256
370
-1
100
AcDbLine
10
107.985
20
-128.015
11
107.985
21
-128.995
0
LINE
5
3BC
100
AcDbEntity
8
BLACK
6
ByLayer
62
256
370
-1
100
AcDbLine
10
107.985
20
-128.995
11
108.798
21
-128.995
0
LINE
5
3BD
100
AcDbEntity
8
BLACK
6
ByLayer
62
256
370
-1
100
AcDbLine
10
108.798
20
-128.995
11
108.798
21
-132.496
0
LINE
5
3BE
100
AcDbEntity
8
BLACK
6
ByLayer
62
256
370
-1
100
AcDbLine
10
108.798
20
-132.496
11
107.985
21
-132.496
0
LINE
5
3BF
100
AcDbEntity
8
BLACK
6
ByLayer
62
256
370
-1
100
AcDbLine
10
107.985
20
-132.496
11
107.985
21
-137.504
0
LINE
5
3C0
100
AcDbEntity
8
BLACK
6
ByLayer
62
256
370
-1
100
AcDbLine
10
107.985
20
-137.504
11
108.798
21
-137.504
0
LINE
5
3C1
100
AcDbEntity
8
BLACK
6
ByLayer
62
256
370
-1
100
AcDbLine
10
108.798
20
-137.504
11
108.798
21
-141.005
0
LINE
5
3C2
100
AcDbEntity
8
BLACK
6
ByLayer
62
256
370
-1
100
AcDbLine
10
108.798
20
-141.005
11
107.985
21
-141.005
0
LINE
5
3C3
100
AcDbEntity
8
BLACK
6
ByLayer
62
256
370
-1
100
AcDbLine
10
107.985
20
-141.005
11
107.985
21
-141.985
0
LINE
5
3C4
100
AcDbEntity
8
BLACK
6
ByLayer
62
256
370
-1
100
AcDbLine
10
107.985
20
-141.985
11
94.015
21
-141.985
0
LINE
5
3C5
100
AcDbEntity
8
BLACK
6
ByLayer
62
256
370
-1
100
AcDbLine
10
94.015
20
-141.985
11
94.015
21
-141.005
0
LINE
5
3C6
100
AcDbEntity
8
BLACK
6
ByLayer
62
256
370
-1
100
AcDbLine
10
94.015
20
-141.005
11
93.2022
21
-141.005
0
LINE
5
3C7
100
AcDbEntity
8
BLACK
6
ByLayer
62
256
370
-1
100
AcDbLine
10
93.2022
20
-141.005
11
93.2022
21
-137.504
0
LINE
5
3C8
100
AcDbEntity
8
BLACK
6
ByLayer
62
256
370
-1
100
AcDbLine
10
93.2022
20
-137.504
11
94.015
21
-137.504
0
LINE
5
3C9
100
AcDbEntity
8
BLACK
6
ByLayer
62
256
370
-1
100
AcDbLine
10
94.015
20
-137.504
11
94.015
21
-132.496
0
LINE
5
3CA
100
AcDbEntity
8
BLACK
6
ByLayer
62
256
370
-1
100
AcDbLine
10
94.015
20
-132.496
11
93.2022
21
-132.496
0
LINE
5
3CB
100
AcDbEntity
8
BLACK
6
ByLayer
62
256
370
-1
100
AcDbLine
10
93.2022
20
-132.496
11
93.2022
21
-128.995
0
LINE
5
3CC
100
AcDbEntity
8
BLACK
6
ByLayer
62
256
370
-1
100
AcDbLine
10
93.2022
20
-128.995
11
94.015
21
-128.995
0
LINE
5
3CD
100
AcDbEntity
8
BLACK
6
ByLayer
62
256
370
-1
100
AcDbLine
10
94.015
20
-128.995
11
94.015
21
-128.015
0
LINE
5
3CE
100
AcDbEntity
8
BLACK
6
ByLayer
62
256
370
-1
100
AcDbLine
10
160.015
20
-68.015
11
173.985
21
-68.015
0
LINE
5
3CF
100
AcDbEntity
8
BLACK
6
ByLayer
62
256
370
-1
100
AcDbLine
10
173.985
20
-68.015
11
173.985
21
-68.9954
0
LINE
5
3D0
100
AcDbEntity
8
BLACK
6
ByLayer
62
256
370
-1
100
AcDbLine
10
173.985
20
-68.9954
11
174.798
21
-68.9954
0
LINE
5
3D1
100
AcDbEntity
8
BLACK
6
ByLayer
62
256
370
-1
100
AcDbLine
10
174.798
20
-68.9954
11
174.798
21
-72.4956
0
LINE
5
3D2
100
AcDbEntity
8
BLACK
6
ByLayer
62
256
370
-1
100
AcDbLine
10
174.798
20
-72.4956
11
173.985
21
-72.4956
0
LINE
5
3D3
100
AcDbEntity
8
BLACK
6
ByLayer
62
256
370
-1
100
AcDbLine
10
173.985
20
-72.4956
11
173.985
21
-77.5044
0
LINE
5
3D4
100
AcDbEntity
8
BLACK
6
ByLayer
62
256
370
-1
100
AcDbLine
10
173.985
20
-77.5044
11
174.798
21
-77.5044
0
LINE
5
3D5
100
AcDbEntity
8
BLACK
6
ByLayer
62
256
370
-1
100
AcDbLine
10
174.798
20
-77.5044
11
174.798
21
-81.0046
0
LINE
5
3D6
100
AcDbEntity
8
BLACK
6
ByLayer
62
256
370
-1
100
AcDbLine
10
174.798
20
-81.0046
11
173.985
21
-81.0046
0
LINE
5
3D7
100
AcDbEntity
8
BLACK
6
ByLayer
62
256
370
-1
100
AcDbLine
10
173.985
20
-81.0046
11
173.985
21
-81.985
0
LINE
5
3D8
100
AcDbEntity
8
BLACK
6
ByLayer
62
256
370
-1
100
AcDbLine
10
173.985
20
-81.985
11
160.015
21
-81.985
0
LINE
5
3D9
100
AcDbEntity
8
BLACK
6
ByLayer
62
256
370
-1
100
AcDbLine
10
160.015
20
-81.985
11
160.015
21
-81.0046
0
LINE
5
3DA
100
AcDbEntity
8
BLACK
6
ByLayer
62
256
370
-1
100
AcDbLine
10
160.015
20
-81.0046
11
159.202
21
-81.0046
0
LINE
5
3DB
100
AcDbEntity
8
BLACK
6
ByLayer
62
256
370
-1
100
AcDbLine
10
159.202
20
-81.0046
11
159.202
21
-77.5044
0
LINE
5
3DC
100
AcDbEntity
8
BLACK
6
ByLayer
62
256
370
-1
100
AcDbLine
10
159.202
20
-77.5044
11
160.015
21
-77.5044
0
LINE
5
3DD
100
AcDbEntity
8
BLACK
6
ByLayer
62
256
370
-1
100
AcDbLine
10
160.015
20
-77.5044
11
160.015
21
-72.4956
0
LINE
5
3DE
100
AcDbEntity
8
BLACK
6
ByLayer
62
256
370
-1
100
AcDbLine
10
160.015
20
-72.4956
11
159.202
21
-72.4956
0
LINE
5
3DF
100
AcDbEntity
8
BLACK
6
ByLayer
62
256
370
-1
100
AcDbLine
10
159.202
20
-72.4956
11
159.202
21
-68.9954
0
LINE
5
3E0
100
AcDbEntity
8
BLACK
6
ByLayer
62
256
370
-1
100
AcDbLine
10
159.202
20
-68.9954
11
160.015
21
-68.9954
0
LINE
5
3E1
100
AcDbEntity
8
BLACK
6
ByLayer
62
256
370
-1
100
AcDbLine
10
160.015
20
-68.9954
11
160.015
21
-68.015
0
LINE
5
3E2
100
AcDbEntity
8
BLACK
6
ByLayer
62
256
370
-1
100
AcDbLine
10
238.015
20
-88.015
11
251.985
21
-88.015
0
LINE
5
3E3
100
AcDbEntity
8
BLACK
6
ByLayer
62
256
370
-1
100
AcDbLine
10
251.985
20
-88.015
11
251.985
21
-88.9954
0
LINE
5
3E4
100
AcDbEntity
8
BLACK
6
ByLayer
62
256
370
-1
100
AcDbLine
10
251.985
20
-88.9954
11
252.798
21
-88.9954
0
LINE
5
3E5
100
AcDbEntity
8
BLACK
6
ByLayer
62
256
370
-1
100
AcDbLine
10
252.798
20
-88.9954
11
252.798
21
-92.4956
0
LINE
5
3E6
100
AcDbEntity
8
BLACK
6
ByLayer
62
256
370
-1
100
AcDbLine
10
252.798
20
-92.4956
11
251.985
21
-92.4956
0
LINE
5
3E7
100
AcDbEntity
8
BLACK
6
ByLayer
62
256
370
-1
100
AcDbLine
10
251.985
20
-92.4956
11
251.985
21
-97.5044
0
LINE
5
3E8
100
AcDbEntity
8
BLACK
6
ByLayer
62
256
370
-1
100
AcDbLine
10
251.985
20
-97.5044
11
252.798
21
-97.5044
0
LINE
5
3E9
100
AcDbEntity
8
BLACK
6
ByLayer
62
256
370
-1
100
AcDbLine
10
252.798
20
-97.5044
11
252.798
21
-101.005
0
LINE
5
3EA
100
AcDbEntity
8
BLACK
6
ByLayer
62
256
370
-1
100
AcDbLine
10
252.798
20
-101.005
11
251.985
21
-101.005
0
LINE
5
3EB
100
AcDbEntity
8
BLACK
6
ByLayer
62
256
370
-1
100
AcDbLine
10
251.985
20
-101.005
11
251.985
21
-101.985
0
LINE
5
3EC
100
AcDbEntity
8
BLACK
6
ByLayer
62
256
370
-1
100
AcDbLine
10
251.985
20
-101.985
11
238.015
21
-101.985
0
LINE
5
3ED
100
AcDbEntity
8
BLACK
6
ByLayer
62
256
370
-1
100
AcDbLine
10
238.015
20
-101.985
11
238.015
21
-101.005
0
LINE
5
3EE
100
AcDbEntity
8
BLACK
6
ByLayer
62
256
370
-1
100
AcDbLine
10
238.015
20
-101.005
11
237.202
21
-101.005
0
LINE
5
3EF
100
AcDbEntity
8
BLACK
6
ByLayer
62
256
370
-1
100
AcDbLine
10
237.202
20
-101.005
11
237.202
21
-97.5044
0
LINE
5
3F0
100
AcDbEntity
8
BLACK
6
ByLayer
62
256
370
-1
100
AcDbLine
10
237.202
20
-97.5044
11
238.015
21
-97.5044
0
LINE
5
3F1
100
AcDbEntity
8
BLACK
6
ByLayer
62
256
370
-1
100
AcDbLine
10
238.015
20
-97.5044
11
238.015
21
-92.4956
0
LINE
5
3F2
100
AcDbEntity
8
BLACK
6
ByLayer
62
256
370
-1
100
AcDbLine
10
238.015
20
-92.4956
11
237.202
21
-92.4956
0
LINE
5
3F3
100
AcDbEntity
8
BLACK
6
ByLayer
62
256
370
-1
100
AcDbLine
10
237.202
20
-92.4956
11
237.202
21
-88.9954
0
LINE
5
3F4
100
AcDbEntity
8
BLACK
6
ByLayer
62
256
370
-1
100
AcDbLine
10
237.202
20
-88.9954
11
238.015
21
-88.9954
0
LINE
5
3F5
100
AcDbEntity
8
BLACK
6
ByLayer
62
256
370
-1
100
AcDbLine
10
238.015
20
-88.9954
11
238.015
21
-88.015
0
LINE
5
3F6
100
AcDbEntity
8
BLACK
6
ByLayer
62
256
370
-1
100
AcDbLine
10
176.015
20
-108.015
11
189.985
21
-108.015
0
LINE
5
3F7
100
AcDbEntity
8
BLACK
6
ByLayer
62
256
370
-1
100
AcDbLine
10
189.985
20
-108.015
11
189.985
21
-108.995
0
LINE
5
3F8
100
AcDbEntity
8
BLACK
6
ByLayer
62
256
370
-1
100
AcDbLine
10
189.985
20
-108.995
11
190.798
21
-108.995
0
LINE
5
3F9
100
AcDbEntity
8
BLACK
6
ByLayer
62
256
370
-1
100
AcDbLine
10
190.798
20
-108.995
11
190.798
21
-112.496
0
LINE
5
3FA
100
AcDbEntity
8
BLACK
6
ByLayer
62
256
370
-1
100
AcDbLine
10
190.798
20
-112.496
11
189.985
21
-112.496
0
LINE
5
3FB
100
AcDbEntity
8
BLACK
6
ByLayer
62
256
370
-1
100
AcDbLine
10
189.985
20
-112.496
11
189.985
21
-117.504
0
LINE
5
3FC
100
AcDbEntity
8
BLACK
6
ByLayer
62
256
370
-1
100
AcDbLine
10
189.985
20
-117.504
11
190.798
21
-117.504
0
LINE
5
3FD
100
AcDbEntity
8
BLACK
6
ByLayer
62
256
370
-1
100
AcDbLine
10
190.798
20
-117.504
11
190.798
21
-121.005
0
LINE
5
3FE
100
AcDbEntity
8
BLACK
6
ByLayer
62
256
370
-1
100
AcDbLine
10
190.798
20
-121.005
11
189.985
21
-121.005
0
LINE
5
3FF
100
AcDbEntity
8
BLACK
6
ByLayer
62
256
370
-1
100
AcDbLine
10
189.985
20
-121.005
11
189.985
21
-121.985
0
LINE
5
400
100
AcDbEntity
8
BLACK
6
ByLayer
62
256
370
-1
100
AcDbLine
10
189.985
20
-121.985
11
176.015
21
-121.985
0
LINE
5
401
100
AcDbEntity
8
BLACK
6
ByLayer
62
256
370
-1
100
AcDbLine
10
176.015
20
-121.985
11
176.015
21
-121.005
0
LINE
5
402
100
AcDbEntity
8
BLACK
6
ByLayer
62
256
370
-1
100
AcDbLine
10
176.015
20
-121.005
11
175.202
21
-121.005
0
LINE
5
403
100
AcDbEntity
8
BLACK
6
ByLayer
62
256
370
-1
100
AcDbLine
10
175.202
20
-121.005
11
175.202
21
-117.504
0
LINE
5
404
100
AcDbEntity
8
BLACK
6
ByLayer
62
256
370
-1
100
AcDbLine
10
175.202
20
-117.504
11
176.015
21
-117.504
0
LINE
5
405
100
AcDbEntity
8
BLACK
6
ByLayer
62
256
370
-1
100
AcDbLine
10
176.015
20
-117.504
11
176.015
21
-112.496
0
LINE
5
406
100
AcDbEntity
8
BLACK
6
ByLayer
62
256
370
-1
100
AcDbLine
10
176.015
20
-112.496
11
175.202
21
-112.496
0
LINE
5
407
100
AcDbEntity
8
BLACK
6
ByLayer
62
256
370
-1
100
AcDbLine
10
175.202
20
-112.496
11
175.202
21
-108.995
0
LINE
5
408
100
AcDbEntity
8
BLACK
6
ByLayer
62
256
370
-1
100
AcDbLine
10
175.202
20
-108.995
11
176.015
21
-108.995
0
LINE
5
409
100
AcDbEntity
8
BLACK
6
ByLayer
62
256
370
-1
100
AcDbLine
10
176.015
20
-108.995
11
176.015
21
-108.015
0
LINE
5
40A
100
AcDbEntity
8
BLACK
6
ByLayer
62
256
370
-1
100
AcDbLine
10
174.015
20
-128.015
11
187.985
21
-128.015
0
LINE
5
40B
100
AcDbEntity
8
BLACK
6
ByLayer
62
256
370
-1
100
AcDbLine
10
187.985
20
-128.015
11
187.985
21
-128.995
0
LINE
5
40C
100
AcDbEntity
8
BLACK
6
ByLayer
62
256
370
-1
100
AcDbLine
10
187.985
20
-128.995
11
188.798
21
-128.995
0
LINE
5
40D
100
AcDbEntity
8
BLACK
6
ByLayer
62
256
370
-1
100
AcDbLine
10
188.798
20
-128.995
11
188.798
21
-132.496
0
LINE
5
40E
100
AcDbEntity
8
BLACK
6
ByLayer
62
256
370
-1
100
AcDbLine
10
188.798
20
-132.496
11
187.985
21
-132.496
0
LINE
5
40F
100
AcDbEntity
8
BLACK
6
ByLayer
62
256
370
-1
100
AcDbLine
10
187.985
20
-132.496
11
187.985
21
-137.504
0
LINE
5
410
100
AcDbEntity
8
BLACK
6
ByLayer
62
256
370
-1
100
AcDbLine
10
187.985
20
-137.504
11
188.798
21
-137.504
0
LINE
5
411
100
AcDbEntity
8
BLACK
6
ByLayer
62
256
370
-1
100
AcDbLine
10
188.798
20
-137.504
11
188.798
21
-141.005
0
LINE
5
412
100
AcDbEntity
8
BLACK
6
ByLayer
62
256
370
-1
100
AcDbLine
10
188.798
20
-141.005
11
187.985
21
-141.005
0
LINE
5
413
100
AcDbEntity
8
BLACK
6
ByLayer
62
256
370
-1
100
AcDbLine
10
187.985
20
-141.005
11
187.985
21
-141.985
0
LINE
5
414
100
AcDbEntity
8
BLACK
6
ByLayer
62
256
370
-1
100
AcDbLine
10
187.985
20
-141.985
11
174.015
21
-141.985
0
LINE
5
415
100
AcDbEntity
8
BLACK
6
ByLayer
62
256
370
-1
100
AcDbLine
10
174.015
20
-141.985
11
174.015
21
-141.005
0
LINE
5
416
100
AcDbEntity
8
BLACK
6
ByLayer
62
256
370
-1
100
AcDbLine
10
174.015
20
-141.005
11
173.202
21
-141.005
0
LINE
5
417
100
AcDbEntity
8
BLACK
6
ByLayer
62
256
370
-1
100
AcDbLine
10
173.202
20
-141.005
11
173.202
21
-137.504
0
LINE
5
418
100
AcDbEntity
8
BLACK
6
ByLayer
62
256
370
-1
100
AcDbLine
10
173.202
20
-137.504
11
174.015
21
-137.504
0
LINE
5
419
100
AcDbEntity
8
BLACK
6
ByLayer
62
256
370
-1
100
AcDbLine
10
174.015
20
-137.504
11
174.015
21
-132.496
0
LINE
5
41A
100
AcDbEntity
8
BLACK
6
ByLayer
62
256
370
-1
100
AcDbLine
10
174.015
20
-132.496
11
173.202
21
-132.496
0
LINE
5
41B
100
AcDbEntity
8
BLACK
6
ByLayer
62
256
370
-1
100
AcDbLine
10
173.202
20
-132.496
11
173.202
21
-128.995
0
LINE
5
41C
100
AcDbEntity
8
BLACK
6
ByLayer
62
256
370
-1
100
AcDbLine
10
173.202
20
-128.995
11
174.015
21
-128.995
0
LINE
5
41D
100
AcDbEntity
8
BLACK
6
ByLayer
62
256
370
-1
100
AcDbLine
10
174.015
20
-128.995
11
174.015
21
-128.015
0
LINE
5
41E
100
AcDbEntity
8
BLACK
6
ByLayer
62
256
370
-1
100
AcDbLine
10
96.015
20
-108.015
11
109.985
21
-108.015
0
LINE
5
41F
100
AcDbEntity
8
BLACK
6
ByLayer
62
256
370
-1
100
AcDbLine
10
109.985
20
-108.015
11
109.985
21
-108.995
0
LINE
5
420
100
AcDbEntity
8
BLACK
6
ByLayer
62
256
370
-1
100
AcDbLine
10
109.985
20
-108.995
11
110.798
21
-108.995
0
LINE
5
421
100
AcDbEntity
8
BLACK
6
ByLayer
62
256
370
-1
100
AcDbLine
10
110.798
20
-108.995
11
110.798
21
-112.496
0
LINE
5
422
100
AcDbEntity
8
BLACK
6
ByLayer
62
256
370
-1
100
AcDbLine
10
110.798
20
-112.496
11
109.985
21
-112.496
0
LINE
5
423
100
AcDbEntity
8
BLACK
6
ByLayer
62
256
370
-1
100
AcDbLine
10
109.985
20
-112.496
11
109.985
21
-117.504
0
LINE
5
424
100
AcDbEntity
8
BLACK
6
ByLayer
62
256
370
-1
100
AcDbLine
10
109.985
20
-117.504
11
110.798
21
-117.504
0
LINE
5
425
100
AcDbEntity
8
BLACK
6
ByLayer
62
256
370
-1
100
AcDbLine
10
110.798
20
-117.504
11
110.798
21
-121.005
0
LINE
5
426
100
AcDbEntity
8
BLACK
6
ByLayer
62
256
370
-1
100
AcDbLine
10
110.798
20
-121.005
11
109.985
21
-121.005
0
LINE
5
427
100
AcDbEntity
8
BLACK
6
ByLayer
62
256
370
-1
100
AcDbLine
10
109.985
20
-121.005
11
109.985
21
-121.985
0
LINE
5
428
100
AcDbEntity
8
BLACK
6
ByLayer
62
256
370
-1
100
AcDbLine
10
109.985
20
-121.985
11
96.015
21
-121.985
0
LINE
5
429
100
AcDbEntity
8
BLACK
6
ByLayer
62
256
370
-1
100
AcDbLine
10
96.015
20
-121.985
11
96.015
21
-121.005
0
LINE
5
42A
100
AcDbEntity
8
BLACK
6
ByLayer
62
256
370
-1
100
AcDbLine
10
96.015
20
-121.005
11
95.2022
21
-121.005
0
LINE
5
42B
100
AcDbEntity
8
BLACK
6
ByLayer
62
256
370
-1
100
AcDbLine
10
95.2022
20
-121.005
11
95.2022
21
-117.504
0
LINE
5
42C
100
AcDbEntity
8
BLACK
6
ByLayer
62
256
370
-1
100
AcDbLine
10
95.2022
20
-117.504
11
96.015
21
-117.504
0
LINE
5
42D
100
AcDbEntity
8
BLACK
6
ByLayer
62
256
370
-1
100
AcDbLine
10
96.015
20
-117.504
11
96.015
21
-112.496
0
LINE
5
42E
100
AcDbEntity
8
BLACK
6
ByLayer
62
256
370
-1
100
AcDbLine
10
96.015
20
-112.496
11
95.2022
21
-112.496
0
LINE
5
42F
100
AcDbEntity
8
BLACK
6
ByLayer
62
256
370
-1
100
AcDbLine
10
95.2022
20
-112.496
11
95.2022
21
-108.995
0
LINE
5
430
100
AcDbEntity
8
BLACK
6
ByLayer
62
256
370
-1
100
AcDbLine
10
95.2022
20
-108.995
11
96.015
21
-108.995
0
LINE
5
431
100
AcDbEntity
8
BLACK
6
ByLayer
62
256
370
-1
100
AcDbLine
10
96.015
20
-108.995
11
96.015
21
-108.015
0
LINE
5
432
100
AcDbEntity
8
BLACK
6
ByLayer
62
256
370
-1
100
AcDbLine
10
78.015
20
-88.015
11
91.985
21
-88.015
0
LINE
5
433
100
AcDbEntity
8
BLACK
6
ByLayer
62
256
370
-1
100
AcDbLine
10
91.985
20
-88.015
11
91.985
21
-88.9954
0
LINE
5
434
100
AcDbEntity
8
BLACK
6
ByLayer
62
256
370
-1
100
AcDbLine
10
91.985
20
-88.9954
11
92.7978
21
-88.9954
0
LINE
5
435
100
AcDbEntity
8
BLACK
6
ByLayer
62
256
370
-1
100
AcDbLine
10
92.7978
20
-88.9954
11
92.7978
21
-92.4956
0
LINE
5
436
100
AcDbEntity
8
BLACK
6
ByLayer
62
256
370
-1
100
AcDbLine
10
92.7978
20
-92.4956
11
91.985
21
-92.4956
0
LINE
5
437
100
AcDbEntity
8
BLACK
6
ByLayer
62
256
370
-1
100
AcDbLine
10
91.985
20
-92.4956
11
91.985
21
-97.5044
0
LINE
5
438
100
AcDbEntity
8
BLACK
6
ByLayer
62
256
370
-1
100
AcDbLine
10
91.985
20
-97.5044
11
92.7978
21
-97.5044
0
LINE
5
439
100
AcDbEntity
8
BLACK
6
ByLayer
62
256
370
-1
100
AcDbLine
10
92.7978
20
-97.5044
11
92.7978
21
-101.005
0
LINE
5
43A
100
AcDbEntity
8
BLACK
6
ByLayer
62
256
370
-1
100
AcDbLine
10
92.7978
20
-101.005
11
91.985
21
-101.005
0
LINE
5
43B
100
AcDbEntity
8
BLACK
6
ByLayer
62
256
370
-1
100
AcDbLine
10
91.985
20
-101.005
11
91.985
21
-101.985
0
LINE
5
43C
100
AcDbEntity
8
BLACK
6
ByLayer
62
256
370
-1
100
AcDbLine
10
91.985
20
-101.985
11
78.015
21
-101.985
0
LINE
5
43D
100
AcDbEntity
8
BLACK
6
ByLayer
62
256
370
-1
100
AcDbLine
10
78.015
20
-101.985
11
78.015
21
-101.005
0
LINE
5
43E
100
AcDbEntity
8
BLACK
6
ByLayer
62
256
370
-1
100
AcDbLine
10
78.015
20
-101.005
11
77.2022
21
-101.005
0
LINE
5
43F
100
AcDbEntity
8
BLACK
6
ByLayer
62
256
370
-1
100
AcDbLine
10
77.2022
20
-101.005
11
77.2022
21
-97.5044
0
LINE
5
440
100
AcDbEntity
8
BLACK
6
ByLayer
62
256
370
-1
100
AcDbLine
10
77.2022
20
-97.5044
11
78.015
21
-97.5044
0
LINE
5
441
100
AcDbEntity
8
BLACK
6
ByLayer
62
256
370
-1
100
AcDbLine
10
78.015
20
-97.5044
11
78.015
21
-92.4956
0
LINE
5
442
100
AcDbEntity
8
BLACK
6
ByLayer
62
256
370
-1
100
AcDbLine
10
78.015
20
-92.4956
11
77.2022
21
-92.4956
0
LINE
5
443
100
AcDbEntity
8
BLACK
6
ByLayer
62
256
370
-1
100
AcDbLine
10
77.2022
20
-92.4956
11
77.2022
21
-88.9954
0
LINE
5
444
100
AcDbEntity
8
BLACK
6
ByLayer
62
256
370
-1
100
AcDbLine
10
77.2022
20
-88.9954
11
78.015
21
-88.9954
0
LINE
5
445
100
AcDbEntity
8
BLACK
6
ByLayer
62
256
370
-1
100
AcDbLine
10
78.015
20
-88.9954
11
78.015
21
-88.015
0
LINE
5
446
100
AcDbEntity
8
BLACK
6
ByLayer
62
256
370
-1
100
AcDbLine
10
60.015
20
-68.015
11
73.985
21
-68.015
0
LINE
5
447
100
AcDbEntity
8
BLACK
6
ByLayer
62
256
370
-1
100
AcDbLine
10
73.985
20
-68.015
11
73.985
21
-68.9954
0
LINE
5
448
100
AcDbEntity
8
BLACK
6
ByLayer
62
256
370
-1
100
AcDbLine
10
73.985
20
-68.9954
11
74.7978
21
-68.9954
0
LINE
5
449
100
AcDbEntity
8
BLACK
6
ByLayer
62
256
370
-1
100
AcDbLine
10
74.7978
20
-68.9954
11
74.7978
21
-72.4956
0
LINE
5
44A
100
AcDbEntity
8
BLACK
6
ByLayer
62
256
370
-1
100
AcDbLine
10
74.7978
20
-72.4956
11
73.985
21
-72.4956
0
LINE
5
44B
100
AcDbEntity
8
BLACK
6
ByLayer
62
256
370
-1
100
AcDbLine
10
73.985
20
-72.4956
11
73.985
21
-77.5044
0
LINE
5
44C
100
AcDbEntity
8
BLACK
6
ByLayer
62
256
370
-1
100
AcDbLine
10
73.985
20
-77.5044
11
74.7978
21
-77.5044
0
LINE
5
44D
100
AcDbEntity
8
BLACK
6
ByLayer
62
256
370
-1
100
AcDbLine
10
74.7978
20
-77.5044
11
74.7978
21
-81.0046
0
LINE
5
44E
100
AcDbEntity
8
BLACK
6
ByLayer
62
256
370
-1
100
AcDbLine
10
74.7978
20
-81.0046
11
73.985
21
-81.0046
0
LINE
5
44F
100
AcDbEntity
8
BLACK
6
ByLayer
62
256
370
-1
100
AcDbLine
10
73.985
20
-81.0046
11
73.985
21
-81.985
0
LINE
5
450
100
AcDbEntity
8
BLACK
6
ByLayer
62
256
370
-1
100
AcDbLine
10
73.985
20
-81.985
11
60.015
21
-81.985
0
LINE
5
451
100
AcDbEntity
8
BLACK
6
ByLayer
62
256
370
-1
100
AcDbLine
10
60.015
20
-81.985
11
60.015
21
-81.0046
0
LINE
5
452
100
AcDbEntity
8
BLACK
6
ByLayer
62
256
370
-1
100
AcDbLine
10
60.015
20
-81.0046
11
59.2022
21
-81.0046
0
LINE
5
453
100
AcDbEntity
8
BLACK
6
ByLayer
62
256
370
-1
100
AcDbLine
10
59.2022
20
-81.0046
11
59.2022
21
-77.5044
0
LINE
5
454
100
AcDbEntity
8
BLACK
6
ByLayer
62
256
370
-1
100
AcDbLine
10
59.2022
20
-77.5044
11
60.015
21
-77.5044
0
LINE
5
455
100
AcDbEntity
8
BLACK
6
ByLayer
62
256
370
-1
100
AcDbLine
10
60.015
20
-77.5044
11
60.015
21
-72.4956
0
LINE
5
456
100
AcDbEntity
8
BLACK
6
ByLayer
62
256
370
-1
100
AcDbLine
10
60.015
20
-72.4956
11
59.2022
21
-72.4956
0
LINE
5
457
100
AcDbEntity
8
BLACK
6
ByLayer
62
256
370
-1
100
AcDbLine
10
59.2022
20
-72.4956
11
59.2022
21
-68.9954
0
LINE
5
458
100
AcDbEntity
8
BLACK
6
ByLayer
62
256
370
-1
100
AcDbLine
10
59.2022
20
-68.9954
11
60.015
21
-68.9954
0
LINE
5
459
100
AcDbEntity
8
BLACK
6
ByLayer
62
256
370
-1
100
AcDbLine
10
60.015
20
-68.9954
11
60.015
21
-68.015
0
LINE
5
45A
100
AcDbEntity
8
BLACK
6
ByLayer
62
256
370
-1
100
AcDbLine
10
178.015
20
-88.015
11
191.985
21
-88.015
0
LINE
5
45B
100
AcDbEntity
8
BLACK
6
ByLayer
62
256
370
-1
100
AcDbLine
10
191.985
20
-88.015
11
191.985
21
-88.9954
0
LINE
5
45C
100
AcDbEntity
8
BLACK
6
ByLayer
62
256
370
-1
100
AcDbLine
10
191.985
20
-88.9954
11
192.798
21
-88.9954
0
LINE
5
45D
100
AcDbEntity
8
BLACK
6
ByLayer
62
256
370
-1
100
AcDbLine
10
192.798
20
-88.9954
11
192.798
21
-92.4956
0
LINE
5
45E
100
AcDbEntity
8
BLACK
6
ByLayer
62
256
370
-1
100
AcDbLine
10
192.798
20
-92.4956
11
191.985
21
-92.4956
0
LINE
5
45F
100
AcDbEntity
8
BLACK
6
ByLayer
62
256
370
-1
100
AcDbLine
10
191.985
20
-92.4956
11
191.985
21
-97.5044
0
LINE
5
460
100
AcDbEntity
8
BLACK
6
ByLayer
62
256
370
-1
100
AcDbLine
10
191.985
20
-97.5044
11
192.798
21
-97.5044
0
LINE
5
461
100
AcDbEntity
8
BLACK
6
ByLayer
62
256
370
-1
100
AcDbLine
10
192.798
20
-97.5044
11
192.798
21
-101.005
0
LINE
5
462
100
AcDbEntity
8
BLACK
6
ByLayer
62
256
370
-1
100
AcDbLine
10
192.798
20
-101.005
11
191.985
21
-101.005
0
LINE
5
463
100
AcDbEntity
8
BLACK
6
ByLayer
62
256
370
-1
100
AcDbLine
10
191.985
20
-101.005
11
191.985
21
-101.985
0
LINE
5
464
100
AcDbEntity
8
BLACK
6
ByLayer
62
256
370
-1
100
AcDbLine
10
191.985
20
-101.985
11
178.015
21
-101.985
0
LINE
5
465
100
AcDbEntity
8
BLACK
6
ByLayer
62
256
370
-1
100
AcDbLine
10
178.015
20
-101.985
11
178.015
21
-101.005
0
LINE
5
466
100
AcDbEntity
8
BLACK
6
ByLayer
62
256
370
-1
100
AcDbLine
10
178.015
20
-101.005
11
177.202
21
-101.005
0
LINE
5
467
100
AcDbEntity
8
BLACK
6
ByLayer
62
256
370
-1
100
AcDbLine
10
177.202
20
-101.005
11
177.202
21
-97.5044
0
LINE
5
468
100
AcDbEntity
8
BLACK
6
ByLayer
62
256
370
-1
100
AcDbLine
10
177.202
20
-97.5044
11
178.015
21
-97.5044
0
LINE
5
469
100
AcDbEntity
8
BLACK
6
ByLayer
62
256
370
-1
100
AcDbLine
10
178.015
20
-97.5044
11
178.015
21
-92.4956
0
LINE
5
46A
100
AcDbEntity
8
BLACK
6
ByLayer
62
256
370
-1
100
AcDbLine
10
178.015
20
-92.4956
11
177.202
21
-92.4956
0
LINE
5
46B
100
AcDbEntity
8
BLACK
6
ByLayer
62
256
370
-1
100
AcDbLine
10
177.202
20
-92.4956
11
177.202
21
-88.9954
0
LINE
5
46C
100
AcDbEntity
8
BLACK
6
ByLayer
62
256
370
-1
100
AcDbLine
10
177.202
20
-88.9954
11
178.015
21
-88.9954
0
LINE
5
46D
100
AcDbEntity
8
BLACK
6
ByLayer
62
256
370
-1
100
AcDbLine
10
178.015
20
-88.9954
11
178.015
21
-88.015
0
LINE
5
46E
100
AcDbEntity
8
BLACK
6
ByLayer
62
256
370
-1
100
AcDbLine
10
180.015
20
-68.015
11
193.985
21
-68.015
0
LINE
5
46F
100
AcDbEntity
8
BLACK
6
ByLayer
62
256
370
-1
100
AcDbLine
10
193.985
20
-68.015
11
193.985
21
-68.9954
0
LINE
5
470
100
AcDbEntity
8
BLACK
6
ByLayer
62
256
370
-1
100
AcDbLine
10
193.985
20
-68.9954
11
194.798
21
-68.9954
0
LINE
5
471
100
AcDbEntity
8
BLACK
6
ByLayer
62
256
370
-1
100
AcDbLine
10
194.798
20
-68.9954
11
194.798
21
-72.4956
0
LINE
5
472
100
AcDbEntity
8
BLACK
6
ByLayer
62
256
370
-1
100
AcDbLine
10
194.798
20
-72.4956
11
193.985
21
-72.4956
0
LINE
5
473
100
AcDbEntity
8
BLACK
6
ByLayer
62
256
370
-1
100
AcDbLine
10
193.985
20
-72.4956
11
193.985
21
-77.5044
0
LINE
5
474
100
AcDbEntity
8
BLACK
6
ByLayer
62
256
370
-1
100
AcDbLine
10
193.985
20
-77.5044
11
194.798
21
-77.5044
0
LINE
5
475
100
AcDbEntity
8
BLACK
6
ByLayer
62
256
370
-1
100
AcDbLine
10
194.798
20
-77.5044
11
194.798
21
-81.0046
0
LINE
5
476
100
AcDbEntity
8
BLACK
6
ByLayer
62
256
370
-1
100
AcDbLine
10
194.798
20
-81.0046
11
193.985
21
-81.0046
0
LINE
5
477
100
AcDbEntity
8
BLACK
6
ByLayer
62
256
370
-1
100
AcDbLine
10
193.985
20
-81.0046
11
193.985
21
-81.985
0
LINE
5
478
100
AcDbEntity
8
BLACK
6
ByLayer
62
256
370
-1
100
AcDbLine
10
193.985
20
-81.985
11
180.015
21
-81.985
0
LINE
5
479
100
AcDbEntity
8
BLACK
6
ByLayer
62
256
370
-1
100
AcDbLine
10
180.015
20
-81.985
11
180.015
21
-81.0046
0
LINE
5
47A
100
AcDbEntity
8
BLACK
6
ByLayer
62
256
370
-1
100
AcDbLine
10
180.015
20
-81.0046
11
179.202
21
-81.0046
0
LINE
5
47B
100
AcDbEntity
8
BLACK
6
ByLayer
62
256
370
-1
100
AcDbLine
10
179.202
20
-81.0046
11
179.202
21
-77.5044
0
LINE
5
47C
100
AcDbEntity
8
BLACK
6
ByLayer
62
256
370
-1
100
AcDbLine
10
179.202
20
-77.5044
11
180.015
21
-77.5044
0
LINE
5
47D
100
AcDbEntity
8
BLACK
6
ByLayer
62
256
370
-1
100
AcDbLine
10
180.015
20
-77.5044
11
180.015
21
-72.4956
0
LINE
5
47E
100
AcDbEntity
8
BLACK
6
ByLayer
62
256
370
-1
100
AcDbLine
10
180.015
20
-72.4956
11
179.202
21
-72.4956
0
LINE
5
47F
100
AcDbEntity
8
BLACK
6
ByLayer
62
256
370
-1
100
AcDbLine
10
179.202
20
-72.4956
11
179.202
21
-68.9954
0
LINE
5
480
100
AcDbEntity
8
BLACK
6
ByLayer
62
256
370
-1
100
AcDbLine
10
179.202
20
-68.9954
11
180.015
21
-68.9954
0
LINE
5
481
100
AcDbEntity
8
BLACK
6
ByLayer
62
256
370
-1
100
AcDbLine
10
180.015
20
-68.9954
11
180.015
21
-68.015
0
LINE
5
482
100
AcDbEntity
8
BLACK
6
ByLayer
62
256
370
-1
100
AcDbLine
10
242.015
20
-128.015
11
255.985
21
-128.015
0
LINE
5
483
100
AcDbEntity
8
BLACK
6
ByLayer
62
256
370
-1
100
AcDbLine
10
255.985
20
-128.015
11
255.985
21
-128.995
0
LINE
5
484
100
AcDbEntity
8
BLACK
6
ByLayer
62
256
370
-1
100
AcDbLine
10
255.985
20
-128.995
11
256.798
21
-128.995
0
LINE
5
485
100
AcDbEntity
8
BLACK
6
ByLayer
62
256
370
-1
100
AcDbLine
10
256.798
20
-128.995
11
256.798
21
-132.496
0
LINE
5
486
100
AcDbEntity
8
BLACK
6
ByLayer
62
256
370
-1
100
AcDbLine
10
256.798
20
-132.496
11
255.985
21
-132.496
0
LINE
5
487
100
AcDbEntity
8
BLACK
6
ByLayer
62
256
370
-1
100
AcDbLine
10
255.985
20
-132.496
11
255.985
21
-137.504
0
LINE
5
488
100
AcDbEntity
8
BLACK
6
ByLayer
62
256
370
-1
100
AcDbLine
10
255.985
20
-137.504
11
256.798
21
-137.504
0
LINE
5
489
100
AcDbEntity
8
BLACK
6
ByLayer
62
256
370
-1
100
AcDbLine
10
256.798
20
-137.504
11
256.798
21
-141.005
0
LINE
5
48A
100
AcDbEntity
8
BLACK
6
ByLayer
62
256
370
-1
100
AcDbLine
10
256.798
20
-141.005
11
255.985
21
-141.005
0
LINE
5
48B
100
AcDbEntity
8
BLACK
6
ByLayer
62
256
370
-1
100
AcDbLine
10
255.985
20
-141.005
11
255.985
21
-141.985
0
LINE
5
48C
100
AcDbEntity
8
BLACK
6
ByLayer
62
256
370
-1
100
AcDbLine
10
255.985
20
-141.985
11
242.015
21
-141.985
0
LINE
5
48D
100
AcDbEntity
8
BLACK
6
ByLayer
62
256
370
-1
100
AcDbLine
10
242.015
20
-141.985
11
242.015
21
-141.005
0
LINE
5
48E
100
AcDbEntity
8
BLACK
6
ByLayer
62
256
370
-1
100
AcDbLine
10
242.015
20
-141.005
11
241.202
21
-141.005
0
LINE
5
48F
100
AcDbEntity
8
BLACK
6
ByLayer
62
256
370
-1
100
AcDbLine
10
241.202
20
-141.005
11
241.202
21
-137.504
0
LINE
5
490
100
AcDbEntity
8
BLACK
6
ByLayer
62
256
370
-1
100
AcDbLine
10
241.202
20
-137.504
11
242.015
21
-137.504
0
LINE
5
491
100
AcDbEntity
8
BLACK
6
ByLayer
62
256
370
-1
100
AcDbLine
10
242.015
20
-137.504
11
242.015
21
-132.496
0
LINE
5
492
100
AcDbEntity
8
BLACK
6
ByLayer
62
256
370
-1
100
AcDbLine
10
242.015
20
-132.496
11
241.202
21
-132.496
0
LINE
5
493
100
AcDbEntity
8
BLACK
6
ByLayer
62
256
370
-1
100
AcDbLine
10
241.202
20
-132.496
11
241.202
21
-128.995
0
LINE
5
494
100
AcDbEntity
8
BLACK
6
ByLayer
62
256
370
-1
100
AcDbLine
10
241.202
20
-128.995
11
242.015
21
-128.995
0
LINE
5
495
100
AcDbEntity
8
BLACK
6
ByLayer
62
256
370
-1
100
AcDbLine
10
242.015
20
-128.995
11
242.015
21
-128.015
0
LINE
5
496
100
AcDbEntity
8
BLACK
6
ByLayer
62
256
370
-1
100
AcDbLine
10
240.015
20
-108.015
11
253.985
21
-108.015
0
LINE
5
497
100
AcDbEntity
8
BLACK
6
ByLayer
62
256
370
-1
100
AcDbLine
10
253.985
20
-108.015
11
253.985
21
-108.995
0
LINE
5
498
100
AcDbEntity
8
BLACK
6
ByLayer
62
256
370
-1
100
AcDbLine
10
253.985
20
-108.995
11
254.798
21
-108.995
0
LINE
5
499
100
AcDbEntity
8
BLACK
6
ByLayer
62
256
370
-1
100
AcDbLine
10
254.798
20
-108.995
11
254.798
21
-112.496
0
LINE
5
49A
100
AcDbEntity
8
BLACK
6
ByLayer
62
256
370
-1
100
AcDbLine
10
254.798
20
-112.496
11
253.985
21
-112.496
0
LINE
5
49B
100
AcDbEntity
8
BLACK
6
ByLayer
62
256
370
-1
100
AcDbLine
10
253.985
20
-112.496
11
253.985
21
-117.504
0
LINE
5
49C
100
AcDbEntity
8
BLACK
6
ByLayer
62
256
370
-1
100
AcDbLine
10
253.985
20
-117.504
11
254.798
21
-117.504
0
LINE
5
49D
100
AcDbEntity
8
BLACK
6
ByLayer
62
256
370
-1
100
AcDbLine
10
254.798
20
-117.504
11
254.798
21
-121.005
0
LINE
5
49E
100
AcDbEntity
8
BLACK
6
ByLayer
62
256
370
-1
100
AcDbLine
10
254.798
20
-121.005
11
253.985
21
-121.005
0
LINE
5
49F
100
AcDbEntity
8
BLACK
6
ByLayer
62
256
370
-1
100
AcDbLine
10
253.985
20
-121.005
11
253.985
21
-121.985
0
LINE
5
4A0
100
AcDbEntity
8
BLACK
6
ByLayer
62
256
370
-1
100
AcDbLine
10
253.985
20
-121.985
11
240.015
21
-121.985
0
LINE
5
4A1
100
AcDbEntity
8
BLACK
6
ByLayer
62
256
370
-1
100
AcDbLine
10
240.015
20
-121.985
11
240.015
21
-121.005
0
LINE
5
4A2
100
AcDbEntity
8
BLACK
6
ByLayer
62
256
370
-1
100
AcDbLine
10
240.015
20
-121.005
11
239.202
21
-121.005
0
LINE
5
4A3
100
AcDbEntity
8
BLACK
6
ByLayer
62
256
370
-1
100
AcDbLine
10
239.202
20
-121.005
11
239.202
21
-117.504
0
LINE
5
4A4
100
AcDbEntity
8
BLACK
6
ByLayer
62
256
370
-1
100
AcDbLine
10
239.202
20
-117.504
11
240.015
21
-117.504
0
LINE
5
4A5
100
AcDbEntity
8
BLACK
6
ByLayer
62
256
370
-1
100
AcDbLine
10
240.015
20
-117.504
11
240.015
21
-112.496
0
LINE
5
4A6
100
AcDbEntity
8
BLACK
6
ByLayer
62
256
370
-1
100
AcDbLine
10
240.015
20
-112.496
11
239.202
21
-112.496
0
LINE
5
4A7
100
AcDbEntity
8
BLACK
6
ByLayer
62
256
370
-1
100
AcDbLine
10
239.202
20
-112.496
11
239.202
21
-108.995
0
LINE
5
4A8
100
AcDbEntity
8
BLACK
6
ByLayer
62
256
370
-1
100
AcDbLine
10
239.202
20
-108.995
11
240.015
21
-108.995
0
LINE
5
4A9
100
AcDbEntity
8
BLACK
6
ByLayer
62
256
370
-1
100
AcDbLine
10
240.015
20
-108.995
11
240.015
21
-108.015
0
LINE
5
4AA
100
AcDbEntity
8
BLACK
6
ByLayer
62
256
370
-1
100
AcDbLine
10
262.015
20
-128.015
11
275.985
21
-128.015
0
LINE
5
4AB
100
AcDbEntity
8
BLACK
6
ByLayer
62
256
370
-1
100
AcDbLine
10
275.985
20
-128.015
11
275.985
21
-128.995
0
LINE
5
4AC
100
AcDbEntity
8
BLACK
6
ByLayer
62
256
370
-1
100
AcDbLine
10
275.985
20
-128.995
11
276.798
21
-128.995
0
LINE
5
4AD
100
AcDbEntity
8
BLACK
6
ByLayer
62
256
370
-1
100
AcDbLine
10
276.798
20
-128.995
11
276.798
21
-132.496
0
LINE
5
4AE
100
AcDbEntity
8
BLACK
6
ByLayer
62
256
370
-1
100
AcDbLine
10
276.798
20
-132.496
11
275.985
21
-132.496
0
LINE
5
4AF
100
AcDbEntity
8
BLACK
6
ByLayer
62
256
370
-1
100
AcDbLine
10
275.985
20
-132.496
11
275.985
21
-137.504
0
LINE
5
4B0
100
AcDbEntity
8
BLACK
6
ByLayer
62
256
370
-1
100
AcDbLine
10
275.985
20
-137.504
11
276.798
21
-137.504
0
LINE
5
4B1
100
AcDbEntity
8
BLACK
6
ByLayer
62
256
370
-1
100
AcDbLine
10
276.798
20
-137.504
11
276.798
21
-141.005
0
LINE
5
4B2
100
AcDbEntity
8
BLACK
6
ByLayer
62
256
370
-1
100
AcDbLine
10
276.798
20
-141.005
11
275.985
21
-141.005
0
LINE
5
4B3
100
AcDbEntity
8
BLACK
6
ByLayer
62
256
370
-1
100
AcDbLine
10
275.985
20
-141.005
11
275.985
21
-141.985
0
LINE
5
4B4
100
AcDbEntity
8
BLACK
6
ByLayer
62
256
370
-1
100
AcDbLine
10
275.985
20
-141.985
11
262.015
21
-141.985
0
LINE
5
4B5
100
AcDbEntity
8
BLACK
6
ByLayer
62
256
370
-1
100
AcDbLine
10
262.015
20
-141.985
11
262.015
21
-141.005
0
LINE
5
4B6
100
AcDbEntity
8
BLACK
6
ByLayer
62
256
370
-1
100
AcDbLine
10
262.015
20
-141.005
11
261.202
21
-141.005
0
LINE
5
4B7
100
AcDbEntity
8
BLACK
6
ByLayer
62
256
370
-1
100
AcDbLine
10
261.202
20
-141.005
11
261.202
21
-137.504
0
LINE
5
4B8
100
AcDbEntity
8
BLACK
6
ByLayer
62
256
370
-1
100
AcDbLine
10
261.202
20
-137.504
11
262.015
21
-137.504
0
LINE
5
4B9
100
AcDbEntity
8
BLACK
6
ByLayer
62
256
370
-1
100
AcDbLine
10
262.015
20
-137.504
11
262.015
21
-132.496
0
LINE
5
4BA
100
AcDbEntity
8
BLACK
6
ByLayer
62
256
370
-1
100
AcDbLine
10
262.015
20
-132.496
11
261.202
21
-132.496
0
LINE
5
4BB
100
AcDbEntity
8
BLACK
6
ByLayer
62
256
370
-1
100
AcDbLine
10
261.202
20
-132.496
11
261.202
21
-128.995
0
LINE
5
4BC
100
AcDbEntity
8
BLACK
6
ByLayer
62
256
370
-1
100
AcDbLine
10
261.202
20
-128.995
11
262.015
21
-128.995
0
LINE
5
4BD
100
AcDbEntity
8
BLACK
6
ByLayer
62
256
370
-1
100
AcDbLine
10
262.015
20
-128.995
11
262.015
21
-128.015
0
LINE
5
4BE
100
AcDbEntity
8
BLACK
6
ByLayer
62
256
370
-1
100
AcDbLine
10
116.015
20
-108.015
11
129.985
21
-108.015
0
LINE
5
4BF
100
AcDbEntity
8
BLACK
6
ByLayer
62
256
370
-1
100
AcDbLine
10
129.985
20
-108.015
11
129.985
21
-108.995
0
LINE
5
4C0
100
AcDbEntity
8
BLACK
6
ByLayer
62
256
370
-1
100
AcDbLine
10
129.985
20
-108.995
11
130.798
21
-108.995
0
LINE
5
4C1
100
AcDbEntity
8
BLACK
6
ByLayer
62
256
370
-1
100
AcDbLine
10
130.798
20
-108.995
11
130.798
21
-112.496
0
LINE
5
4C2
100
AcDbEntity
8
BLACK
6
ByLayer
62
256
370
-1
100
AcDbLine
10
130.798
20
-112.496
11
129.985
21
-112.496
0
LINE
5
4C3
100
AcDbEntity
8
BLACK
6
ByLayer
62
256
370
-1
100
AcDbLine
10
129.985
20
-112.496
11
129.985
21
-117.504
0
LINE
5
4C4
100
AcDbEntity
8
BLACK
6
ByLayer
62
256
370
-1
100
AcDbLine
10
129.985
20
-117.504
11
130.798
21
-117.504
0
LINE
5
4C5
100
AcDbEntity
8
BLACK
6
ByLayer
62
256
370
-1
100
AcDbLine
10
130.798
20
-117.504
11
130.798
21
-121.005
0
LINE
5
4C6
100
AcDbEntity
8
BLACK
6
ByLayer
62
256
370
-1
100
AcDbLine
10
130.798
20
-121.005
11
129.985
21
-121.005
0
LINE
5
4C7
100
AcDbEntity
8
BLACK
6
ByLayer
62
256
370
-1
100
AcDbLine
10
129.985
20
-121.005
11
129.985
21
-121.985
0
LINE
5
4C8
100
AcDbEntity
8
BLACK
6
ByLayer
62
256
370
-1
100
AcDbLine
10
129.985
20
-121.985
11
116.015
21
-121.985
0
LINE
5
4C9
100
AcDbEntity
8
BLACK
6
ByLayer
62
256
370
-1
100
AcDbLine
10
116.015
20
-121.985
11
116.015
21
-121.005
0
LINE
5
4CA
100
AcDbEntity
8
BLACK
6
ByLayer
62
256
370
-1
100
AcDbLine
10
116.015
20
-121.005
11
115.202
21
-121.005
0
LINE
5
4CB
100
AcDbEntity
8
BLACK
6
ByLayer
62
256
370
-1
100
AcDbLine
10
115.202
20
-121.005
11
115.202
21
-117.504
0
LINE
5
4CC
100
AcDbEntity
8
BLACK
6
ByLayer
62
256
370
-1
100
AcDbLine
10
115.202
20
-117.504
11
116.015
21
-117.504
0
LINE
5
4CD
100
AcDbEntity
8
BLACK
6
ByLayer
62
256
370
-1
100
AcDbLine
10
116.015
20
-117.504
11
116.015
21
-112.496
0
LINE
5
4CE
100
AcDbEntity
8
BLACK
6
ByLayer
62
256
370
-1
100
AcDbLine
10
116.015
20
-112.496
11
115.202
21
-112.496
0
LINE
5
4CF
100
AcDbEntity
8
BLACK
6
ByLayer
62
256
370
-1
100
AcDbLine
10
115.202
20
-112.496
11
115.202
21
-108.995
0
LINE
5
4D0
100
AcDbEntity
8
BLACK
6
ByLayer
62
256
370
-1
100
AcDbLine
10
115.202
20
-108.995
11
116.015
21
-108.995
0
LINE
5
4D1
100
AcDbEntity
8
BLACK
6
ByLayer
62
256
370
-1
100
AcDbLine
10
116.015
20
-108.995
11
116.015
21
-108.015
0
LINE
5
4D2
100
AcDbEntity
8
BLACK
6
ByLayer
62
256
370
-1
100
AcDbLine
10
358.015
20
-88.015
11
371.985
21
-88.015
0
LINE
5
4D3
100
AcDbEntity
8
BLACK
6
ByLayer
62
256
370
-1
100
AcDbLine
10
371.985
20
-88.015
11
371.985
21
-88.9954
0
LINE
5
4D4
100
AcDbEntity
8
BLACK
6
ByLayer
62
256
370
-1
100
AcDbLine
10
371.985
20
-88.9954
11
372.798
21
-88.9954
0
LINE
5
4D5
100
AcDbEntity
8
BLACK
6
ByLayer
62
256
370
-1
100
AcDbLine
10
372.798
20
-88.9954
11
372.798
21
-92.4956
0
LINE
5
4D6
100
AcDbEntity
8
BLACK
6
ByLayer
62
256
370
-1
100
AcDbLine
10
372.798
20
-92.4956
11
371.985
21
-92.4956
0
LINE
5
4D7
100
AcDbEntity
8
BLACK
6
ByLayer
62
256
370
-1
100
AcDbLine
10
371.985
20
-92.4956
11
371.985
21
-97.5044
0
LINE
5
4D8
100
AcDbEntity
8
BLACK
6
ByLayer
62
256
370
-1
100
AcDbLine
10
371.985
20
-97.5044
11
372.798
21
-97.5044
0
LINE
5
4D9
100
AcDbEntity
8
BLACK
6
ByLayer
62
256
370
-1
100
AcDbLine
10
372.798
20
-97.5044
11
372.798
21
-101.005
0
LINE
5
4DA
100
AcDbEntity
8
BLACK
6
ByLayer
62
256
370
-1
100
AcDbLine
10
372.798
20
-101.005
11
371.985
21
-101.005
0
LINE
5
4DB
100
AcDbEntity
8
BLACK
6
ByLayer
62
256
370
-1
100
AcDbLine
10
371.985
20
-101.005
11
371.985
21
-101.985
0
LINE
5
4DC
100
AcDbEntity
8
BLACK
6
ByLayer
62
256
370
-1
100
AcDbLine
10
371.985
20
-101.985
11
358.015
21
-101.985
0
LINE
5
4DD
100
AcDbEntity
8
BLACK
6
ByLayer
62
256
370
-1
100
AcDbLine
10
358.015
20
-101.985
11
358.015
21
-101.005
0
LINE
5
4DE
100
AcDbEntity
8
BLACK
6
ByLayer
62
256
370
-1
100
AcDbLine
10
358.015
20
-101.005
11
357.202
21
-101.005
0
LINE
5
4DF
100
AcDbEntity
8
BLACK
6
ByLayer
62
256
370
-1
100
AcDbLine
10
357.202
20
-101.005
11
357.202
21
-97.5044
0
LINE
5
4E0
100
AcDbEntity
8
BLACK
6
ByLayer
62
256
370
-1
100
AcDbLine
10
357.202
20
-97.5044
11
358.015
21
-97.5044
0
LINE
5
4E1
100
AcDbEntity
8
BLACK
6
ByLayer
62
256
370
-1
100
AcDbLine
10
358.015
20
-97.5044
11
358.015
21
-92.4956
0
LINE
5
4E2
100
AcDbEntity
8
BLACK
6
ByLayer
62
256
370
-1
100
AcDbLine
10
358.015
20
-92.4956
11
357.202
21
-92.4956
0
LINE
5
4E3
100
AcDbEntity
8
BLACK
6
ByLayer
62
256
370
-1
100
AcDbLine
10
357.202
20
-92.4956
11
357.202
21
-88.9954
0
LINE
5
4E4
100
AcDbEntity
8
BLACK
6
ByLayer
62
256
370
-1
100
AcDbLine
10
357.202
20
-88.9954
11
358.015
21
-88.9954
0
LINE
5
4E5
100
AcDbEntity
8
BLACK
6
ByLayer
62
256
370
-1
100
AcDbLine
10
358.015
20
-88.9954
11
358.015
21
-88.015
0
LINE
5
4E6
100
AcDbEntity
8
BLACK
6
ByLayer
62
256
370
-1
100
AcDbLine
10
350.015
20
-128.015
11
363.985
21
-128.015
0
LINE
5
4E7
100
AcDbEntity
8
BLACK
6
ByLayer
62
256
370
-1
100
AcDbLine
10
363.985
20
-128.015
11
363.985
21
-128.995
0
LINE
5
4E8
100
AcDbEntity
8
BLACK
6
ByLayer
62
256
370
-1
100
AcDbLine
10
363.985
20
-128.995
11
364.798
21
-128.995
0
LINE
5
4E9
100
AcDbEntity
8
BLACK
6
ByLayer
62
256
370
-1
100
AcDbLine
10
364.798
20
-128.995
11
364.798
21
-132.496
0
LINE
5
4EA
100
AcDbEntity
8
BLACK
6
ByLayer
62
256
370
-1
100
AcDbLine
10
364.798
20
-132.496
11
363.985
21
-132.496
0
LINE
5
4EB
100
AcDbEntity
8
BLACK
6
ByLayer
62
256
370
-1
100
AcDbLine
10
363.985
20
-132.496
11
363.985
21
-137.504
0
LINE
5
4EC
100
AcDbEntity
8
BLACK
6
ByLayer
62
256
370
-1
100
AcDbLine
10
363.985
20
-137.504
11
364.798
21
-137.504
0
LINE
5
4ED
100
AcDbEntity
8
BLACK
6
ByLayer
62
256
370
-1
100
AcDbLine
10
364.798
20
-137.504
11
364.798
21
-141.005
0
LINE
5
4EE
100
AcDbEntity
8
BLACK
6
ByLayer
62
256
370
-1
100
AcDbLine
10
364.798
20
-141.005
11
363.985
21
-141.005
0
LINE
5
4EF
100
AcDbEntity
8
BLACK
6
ByLayer
62
256
370
-1
100
AcDbLine
10
363.985
20
-141.005
11
363.985
21
-141.985
0
LINE
5
4F0
100
AcDbEntity
8
BLACK
6
ByLayer
62
256
370
-1
100
AcDbLine
10
363.985
20
-141.985
11
350.015
21
-141.985
0
LINE
5
4F1
100
AcDbEntity
8
BLACK
6
ByLayer
62
256
370
-1
100
AcDbLine
10
350.015
20
-141.985
11
350.015
21
-141.005
0
LINE
5
4F2
100
AcDbEntity
8
BLACK
6
ByLayer
62
256
370
-1
100
AcDbLine
10
350.015
20
-141.005
11
349.202
21
-141.005
0
LINE
5
4F3
100
AcDbEntity
8
BLACK
6
ByLayer
62
256
370
-1
100
AcDbLine
10
349.202
20
-141.005
11
349.202
21
-137.504
0
LINE
5
4F4
100
AcDbEntity
8
BLACK
6
ByLayer
62
256
370
-1
100
AcDbLine
10
349.202
20
-137.504
11
350.015
21
-137.504
0
LINE
5
4F5
100
AcDbEntity
8
BLACK
6
ByLayer
62
256
370
-1
100
AcDbLine
10
350.015
20
-137.504
11
350.015
21
-132.496
0
LINE
5
4F6
100
AcDbEntity
8
BLACK
6
ByLayer
62
256
370
-1
100
AcDbLine
10
350.015
20
-132.496
11
349.202
21
-132.496
0
LINE
5
4F7
100
AcDbEntity
8
BLACK
6
ByLayer
62
256
370
-1
100
AcDbLine
10
349.202
20
-132.496
11
349.202
21
-128.995
0
LINE
5
4F8
100
AcDbEntity
8
BLACK
6
ByLayer
62
256
370
-1
100
AcDbLine
10
349.202
20
-128.995
11
350.015
21
-128.995
0
LINE
5
4F9
100
AcDbEntity
8
BLACK
6
ByLayer
62
256
370
-1
100
AcDbLine
10
350.015
20
-128.995
11
350.015
21
-128.015
0
LINE
5
4FA
100
AcDbEntity
8
BLACK
6
ByLayer
62
256
370
-1
100
AcDbLine
10
348.015
20
-108.015
11
361.985
21
-108.015
0
LINE
5
4FB
100
AcDbEntity
8
BLACK
6
ByLayer
62
256
370
-1
100
AcDbLine
10
361.985
20
-108.015
11
361.985
21
-108.995
0
LINE
5
4FC
100
AcDbEntity
8
BLACK
6
ByLayer
62
256
370
-1
100
AcDbLine
10
361.985
20
-108.995
11
362.798
21
-108.995
0
LINE
5
4FD
100
AcDbEntity
8
BLACK
6
ByLayer
62
256
370
-1
100
AcDbLine
10
362.798
20
-108.995
11
362.798
21
-112.496
0
LINE
5
4FE
100
AcDbEntity
8
BLACK
6
ByLayer
62
256
370
-1
100
AcDbLine
10
362.798
20
-112.496
11
361.985
21
-112.496
0
LINE
5
4FF
100
AcDbEntity
8
BLACK
6
ByLayer
62
256
370
-1
100
AcDbLine
10
361.985
20
-112.496
11
361.985
21
-117.504
0
LINE
5
500
100
AcDbEntity
8
BLACK
6
ByLayer
62
256
370
-1
100
AcDbLine
10
361.985
20
-117.504
11
362.798
21
-117.504
0
LINE
5
501
100
AcDbEntity
8
BLACK
6
ByLayer
62
256
370
-1
100
AcDbLine
10
362.798
20
-117.504
11
362.798
21
-121.005
0
LINE
5
502
100
AcDbEntity
8
BLACK
6
ByLayer
62
256
370
-1
100
AcDbLine
10
362.798
20
-121.005
11
361.985
21
-121.005
0
LINE
5
503
100
AcDbEntity
8
BLACK
6
ByLayer
62
256
370
-1
100
AcDbLine
10
361.985
20
-121.005
11
361.985
21
-121.985
0
LINE
5
504
100
AcDbEntity
8
BLACK
6
ByLayer
62
256
370
-1
100
AcDbLine
10
361.985
20
-121.985
11
348.015
21
-121.985
0
LINE
5
505
100
AcDbEntity
8
BLACK
6
ByLayer
62
256
370
-1
100
AcDbLine
10
348.015
20
-121.985
11
348.015
21
-121.005
0
LINE
5
506
100
AcDbEntity
8
BLACK
6
ByLayer
62
256
370
-1
100
AcDbLine
10
348.015
20
-121.005
11
347.202
21
-121.005
0
LINE
5
507
100
AcDbEntity
8
BLACK
6
ByLayer
62
256
370
-1
100
AcDbLine
10
347.202
20
-121.005
11
347.202
21
-117.504
0
LINE
5
508
100
AcDbEntity
8
BLACK
6
ByLayer
62
256
370
-1
100
AcDbLine
10
347.202
20
-117.504
11
348.015
21
-117.504
0
LINE
5
509
100
AcDbEntity
8
BLACK
6
ByLayer
62
256
370
-1
100
AcDbLine
10
348.015
20
-117.504
11
348.015
21
-112.496
0
LINE
5
50A
100
AcDbEntity
8
BLACK
6
ByLayer
62
256
370
-1
100
AcDbLine
10
348.015
20
-112.496
11
347.202
21
-112.496
0
LINE
5
50B
100
AcDbEntity
8
BLACK
6
ByLayer
62
256
370
-1
100
AcDbLine
10
347.202
20
-112.496
11
347.202
21
-108.995
0
LINE
5
50C
100
AcDbEntity
8
BLACK
6
ByLayer
62
256
370
-1
100
AcDbLine
10
347.202
20
-108.995
11
348.015
21
-108.995
0
LINE
5
50D
100
AcDbEntity
8
BLACK
6
ByLayer
62
256
370
-1
100
AcDbLine
10
348.015
20
-108.995
11
348.015
21
-108.015
0
LINE
5
50E
100
AcDbEntity
8
BLACK
6
ByLayer
62
256
370
-1
100
AcDbLine
10
348.015
20
-148.015
11
361.985
21
-148.015
0
LINE
5
50F
100
AcDbEntity
8
BLACK
6
ByLayer
62
256
370
-1
100
AcDbLine
10
361.985
20
-148.015
11
361.985
21
-148.995
0
LINE
5
510
100
AcDbEntity
8
BLACK
6
ByLayer
62
256
370
-1
100
AcDbLine
10
361.985
20
-148.995
11
362.798
21
-148.995
0
LINE
5
511
100
AcDbEntity
8
BLACK
6
ByLayer
62
256
370
-1
100
AcDbLine
10
362.798
20
-148.995
11
362.798
21
-152.496
0
LINE
5
512
100
AcDbEntity
8
BLACK
6
ByLayer
62
256
370
-1
100
AcDbLine
10
362.798
20
-152.496
11
361.985
21
-152.496
0
LINE
5
513
100
AcDbEntity
8
BLACK
6
ByLayer
62
256
370
-1
100
AcDbLine
10
361.985
20
-152.496
11
361.985
21
-157.504
0
LINE
5
514
100
AcDbEntity
8
BLACK
6
ByLayer
62
256
370
-1
100
AcDbLine
10
361.985
20
-157.504
11
362.798
21
-157.504
0
LINE
5
515
100
AcDbEntity
8
BLACK
6
ByLayer
62
256
370
-1
100
AcDbLine
10
362.798
20
-157.504
11
362.798
21
-161.005
0
LINE
5
516
100
AcDbEntity
8
BLACK
6
ByLayer
62
256
370
-1
100
AcDbLine
10
362.798
20
-161.005
11
361.985
21
-161.005
0
LINE
5
517
100
AcDbEntity
8
BLACK
6
ByLayer
62
256
370
-1
100
AcDbLine
10
361.985
20
-161.005
11
361.985
21
-161.985
0
LINE
5
518
100
AcDbEntity
8
BLACK
6
ByLayer
62
256
370
-1
100
AcDbLine
10
361.985
20
-161.985
11
348.015
21
-161.985
0
LINE
5
519
100
AcDbEntity
8
BLACK
6
ByLayer
62
256
370
-1
100
AcDbLine
10
348.015
20
-161.985
11
348.015
21
-161.005
0
LINE
5
51A
100
AcDbEntity
8
BLACK
6
ByLayer
62
256
370
-1
100
AcDbLine
10
348.015
20
-161.005
11
347.202
21
-161.005
0
LINE
5
51B
100
AcDbEntity
8
BLACK
6
ByLayer
62
256
370
-1
100
AcDbLine
10
347.202
20
-161.005
11
347.202
21
-157.504
0
LINE
5
51C
100
AcDbEntity
8
BLACK
6
ByLayer
62
256
370
-1
100
AcDbLine
10
347.202
20
-157.504
11
348.015
21
-157.504
0
LINE
5
51D
100
AcDbEntity
8
BLACK
6
ByLayer
62
256
370
-1
100
AcDbLine
10
348.015
20
-157.504
11
348.015
21
-152.496
0
LINE
5
51E
100
AcDbEntity
8
BLACK
6
ByLayer
62
256
370
-1
100
AcDbLine
10
348.015
20
-152.496
11
347.202
21
-152.496
0
LINE
5
51F
100
AcDbEntity
8
BLACK
6
ByLayer
62
256
370
-1
100
AcDbLine
10
347.202
20
-152.496
11
347.202
21
-148.995
0
LINE
5
520
100
AcDbEntity
8
BLACK
6
ByLayer
62
256
370
-1
100
AcDbLine
10
347.202
20
-148.995
11
348.015
21
-148.995
0
LINE
5
521
100
AcDbEntity
8
BLACK
6
ByLayer
62
256
370
-1
100
AcDbLine
10
348.015
20
-148.995
11
348.015
21
-148.015
0
LINE
5
522
100
AcDbEntity
8
BLACK
6
ByLayer
62
256
370
-1
100
AcDbLine
10
313.015
20
-148.015
11
326.985
21
-148.015
0
LINE
5
523
100
AcDbEntity
8
BLACK
6
ByLayer
62
256
370
-1
100
AcDbLine
10
326.985
20
-148.015
11
326.985
21
-148.995
0
LINE
5
524
100
AcDbEntity
8
BLACK
6
ByLayer
62
256
370
-1
100
AcDbLine
10
326.985
20
-148.995
11
327.798
21
-148.995
0
LINE
5
525
100
AcDbEntity
8
BLACK
6
ByLayer
62
256
370
-1
100
AcDbLine
10
327.798
20
-148.995
11
327.798
21
-152.496
0
LINE
5
526
100
AcDbEntity
8
BLACK
6
ByLayer
62
256
370
-1
100
AcDbLine
10
327.798
20
-152.496
11
326.985
21
-152.496
0
LINE
5
527
100
AcDbEntity
8
BLACK
6
ByLayer
62
256
370
-1
100
AcDbLine
10
326.985
20
-152.496
11
326.985
21
-157.504
0
LINE
5
528
100
AcDbEntity
8
BLACK
6
ByLayer
62
256
370
-1
100
AcDbLine
10
326.985
20
-157.504
11
327.798
21
-157.504
0
LINE
5
529
100
AcDbEntity
8
BLACK
6
ByLayer
62
256
370
-1
100
AcDbLine
10
327.798
20
-157.504
11
327.798
21
-161.005
0
LINE
5
52A
100
AcDbEntity
8
BLACK
6
ByLayer
62
256
370
-1
100
AcDbLine
10
327.798
20
-161.005
11
326.985
21
-161.005
0
LINE
5
52B
100
AcDbEntity
8
BLACK
6
ByLayer
62
256
370
-1
100
AcDbLine
10
326.985
20
-161.005
11
326.985
21
-161.985
0
LINE
5
52C
100
AcDbEntity
8
BLACK
6
ByLayer
62
256
370
-1
100
AcDbLine
10
326.985
20
-161.985
11
313.015
21
-161.985
0
LINE
5
52D
100
AcDbEntity
8
BLACK
6
ByLayer
62
256
370
-1
100
AcDbLine
10
313.015
20
-161.985
11
313.015
21
-161.005
0
LINE
5
52E
100
AcDbEntity
8
BLACK
6
ByLayer
62
256
370
-1
100
AcDbLine
10
313.015
20
-161.005
11
312.202
21
-161.005
0
LINE
5
52F
100
AcDbEntity
8
BLACK
6
ByLayer
62
256
370
-1
100
AcDbLine
10
312.202
20
-161.005
11
312.202
21
-157.504
0
LINE
5
530
100
AcDbEntity
8
BLACK
6
ByLayer
62
256
370
-1
100
AcDbLine
10
312.202
20
-157.504
11
313.015
21
-157.504
0
LINE
5
531
100
AcDbEntity
8
BLACK
6
ByLayer
62
256
370
-1
100
AcDbLine
10
313.015
20
-157.504
11
313.015
21
-152.496
0
LINE
5
532
100
AcDbEntity
8
BLACK
6
ByLayer
62
256
370
-1
100
AcDbLine
10
313.015
20
-152.496
11
312.202
21
-152.496
0
LINE
5
533
100
AcDbEntity
8
BLACK
6
ByLayer
62
256
370
-1
100
AcDbLine
10
312.202
20
-152.496
11
312.202
21
-148.995
0
LINE
5
534
100
AcDbEntity
8
BLACK
6
ByLayer
62
256
370
-1
100
AcDbLine
10
312.202
20
-148.995
11
313.015
21
-148.995
0
LINE
5
535
100
AcDbEntity
8
BLACK
6
ByLayer
62
256
370
-1
100
AcDbLine
10
313.015
20
-148.995
11
313.015
21
-148.015
0
LINE
5
536
100
AcDbEntity
8
BLACK
6
ByLayer
62
256
370
-1
100
AcDbLine
10
68.015
20
-148.015
11
81.985
21
-148.015
0
LINE
5
537
100
AcDbEntity
8
BLACK
6
ByLayer
62
256
370
-1
100
AcDbLine
10
81.985
20
-148.015
11
81.985
21
-148.995
0
LINE
5
538
100
AcDbEntity
8
BLACK
6
ByLayer
62
256
370
-1
100
AcDbLine
10
81.985
20
-148.995
11
82.7978
21
-148.995
0
LINE
5
539
100
AcDbEntity
8
BLACK
6
ByLayer
62
256
370
-1
100
AcDbLine
10
82.7978
20
-148.995
11
82.7978
21
-152.496
0
LINE
5
53A
100
AcDbEntity
8
BLACK
6
ByLayer
62
256
370
-1
100
AcDbLine
10
82.7978
20
-152.496
11
81.985
21
-152.496
0
LINE
5
53B
100
AcDbEntity
8
BLACK
6
ByLayer
62
256
370
-1
100
AcDbLine
10
81.985
20
-152.496
11
81.985
21
-157.504
0
LINE
5
53C
100
AcDbEntity
8
BLACK
6
ByLayer
62
256
370
-1
100
AcDbLine
10
81.985
20
-157.504
11
82.7978
21
-157.504
0
LINE
5
53D
100
AcDbEntity
8
BLACK
6
ByLayer
62
256
370
-1
100
AcDbLine
10
82.7978
20
-157.504
11
82.7978
21
-161.005
0
LINE
5
53E
100
AcDbEntity
8
BLACK
6
ByLayer
62
256
370
-1
100
AcDbLine
10
82.7978
20
-161.005
11
81.985
21
-161.005
0
LINE
5
53F
100
AcDbEntity
8
BLACK
6
ByLayer
62
256
370
-1
100
AcDbLine
10
81.985
20
-161.005
11
81.985
21
-161.985
0
LINE
5
540
100
AcDbEntity
8
BLACK
6
ByLayer
62
256
370
-1
100
AcDbLine
10
81.985
20
-161.985
11
68.015
21
-161.985
0
LINE
5
541
100
AcDbEntity
8
BLACK
6
ByLayer
62
256
370
-1
100
AcDbLine
10
68.015
20
-161.985
11
68.015
21
-161.005
0
LINE
5
542
100
AcDbEntity
8
BLACK
6
ByLayer
62
256
370
-1
100
AcDbLine
10
68.015
20
-161.005
11
67.2022
21
-161.005
0
LINE
5
543
100
AcDbEntity
8
BLACK
6
ByLayer
62
256
370
-1
100
AcDbLine
10
67.2022
20
-161.005
11
67.2022
21
-157.504
0
LINE
5
544
100
AcDbEntity
8
BLACK
6
ByLayer
62
256
370
-1
100
AcDbLine
10
67.2022
20
-157.504
11
68.015
21
-157.504
0
LINE
5
545
100
AcDbEntity
8
BLACK
6
ByLayer
62
256
370
-1
100
AcDbLine
10
68.015
20
-157.504
11
68.015
21
-152.496
0
LINE
5
546
100
AcDbEntity
8
BLACK
6
ByLayer
62
256
370
-1
100
AcDbLine
10
68.015
20
-152.496
11
67.2022
21
-152.496
0
LINE
5
547
100
AcDbEntity
8
BLACK
6
ByLayer
62
256
370
-1
100
AcDbLine
10
67.2022
20
-152.496
11
67.2022
21
-148.995
0
LINE
5
548
100
AcDbEntity
8
BLACK
6
ByLayer
62
256
370
-1
100
AcDbLine
10
67.2022
20
-148.995
11
68.015
21
-148.995
0
LINE
5
549
100
AcDbEntity
8
BLACK
6
ByLayer
62
256
370
-1
100
AcDbLine
10
68.015
20
-148.995
11
68.015
21
-148.015
0
CIRCLE
5
54A
100
AcDbEntity
8
BLACK
6
ByLayer
62
256
370
-1
100
AcDbCircle
10
380
20
-75
40
1.55
0
CIRCLE
5
54B
100
AcDbEntity
8
BLACK
6
ByLayer
62
256
370
-1
100
AcDbCircle
10
380
20
-155
40
1.55
0
CIRCLE
5
54C
100
AcDbEntity
8
BLACK
6
ByLayer
62
256
370
-1
100
AcDbCircle
10
380
20
-115
40
1.55
0
CIRCLE
5
54D
100
AcDbEntity
8
BLACK
6
ByLayer
62
256
370
-1
100
AcDbCircle
10
50
20
-155
40
1.55
0
CIRCLE
5
54E
100
AcDbEntity
8
BLACK
6
ByLayer
62
256
370
-1
100
AcDbCircle
10
50
20
-75
40
1.55
0
CIRCLE
5
54F
100
AcDbEntity
8
BLACK
6
ByLayer
62
256
370
-1
100
AcDbCircle
10
50
20
-115
40
1.55
0
ARC
5
550
100
AcDbEntity
8
BLACK
6
ByLayer
62
256
370
-1
100
AcDbCircle
10
128.166666667
20
-81
40
74.8400145496
100
AcDbArc
50
343.704068372
51
16.2959316284
0
ARC
5
551
100
AcDbEntity
8
BLACK
6
ByLayer
62
256
370
-1
100
AcDbCircle
10
301.833333333
20
-81
40
74.8400145496
100
AcDbArc
50
163.704068372
51
196.295931628
0
ARC
5
552
100
AcDbEntity
8
BLACK
6
ByLayer
62
256
370
-1
100
AcDbCircle
10
215
20
-66
40
39
100
AcDbArc
50
247.380135052
51
292.619864948
0
ARC
5
553
100
AcDbEntity
8
BLACK
6
ByLayer
62
256
370
-1
100
AcDbCircle
10
72.5
20
-112.5
40
318.6887196
100
AcDbArc
50
348.690067526
51
11.309932474
0
ARC
5
554
100
AcDbEntity
8
BLACK
6
ByLayer
62
256
370
-1
100
AcDbCircle
10
357.5
20
-112.5
40
318.6887196
100
AcDbArc
50
168.690067526
51
191.309932474
0
ARC
5
555
100
AcDbEntity
8
BLACK
6
ByLayer
62
256
370
-1
100
AcDbCircle
10
155
20
448.75
40
510.73629448
100
AcDbArc
50
257.562451751
51
275.054776276
0
ARC
5
556
100
AcDbEntity
8
BLACK
6
ByLayer
62
256
370
-1
100
AcDbCircle
10
275
20
448.75
40
510.736294481
100
AcDbArc
50
264.945223724
51
282.437548249
0
ARC
5
557
100
AcDbEntity
8
BLACK
6
ByLayer
62
256
370
-1
100
AcDbCircle
10
215
20
-2235.78571429
40
2067.78571429
100
AcDbArc
50
85.2841880586
51
94.7158119414
0
ENDSEC
0
SECTION
2
OBJECTS
0
DICTIONARY
5
C
330
0
100
AcDbDictionary
281
1
3
ACAD_GROUP
350
D
0
DICTIONARY
5
D
330
C
100
AcDbDictionary
281
1
0
ENDSEC
0
EOF
